<?xml version="1.0" encoding="UTF-8" standalone="no"?>
<!-- Created with Inkscape (http://www.inkscape.org/) -->

<svg
   xmlns:dc="http://purl.org/dc/elements/1.1/"
   xmlns:cc="http://creativecommons.org/ns#"
   xmlns:rdf="http://www.w3.org/1999/02/22-rdf-syntax-ns#"
   xmlns:svg="http://www.w3.org/2000/svg"
   xmlns="http://www.w3.org/2000/svg"
   xmlns:sodipodi="http://sodipodi.sourceforge.net/DTD/sodipodi-0.dtd"
   xmlns:inkscape="http://www.inkscape.org/namespaces/inkscape"
   width="211.66667mm"
   height="176.70667mm"
   viewBox="0 0 211.66667 176.70667"
   version="1.1"
   id="svg4924"
   inkscape:version="0.92.5 (2060ec1f9f, 2020-04-08)"
   sodipodi:docname="bloody-splatter-2.svg">
  <defs
     id="defs4918" />
  <sodipodi:namedview
     id="base"
     pagecolor="#ffffff"
     bordercolor="#666666"
     borderopacity="1.0"
     inkscape:pageopacity="0.0"
     inkscape:pageshadow="2"
     inkscape:zoom="0.5"
     inkscape:cx="27.183391"
     inkscape:cy="517.14397"
     inkscape:document-units="mm"
     inkscape:current-layer="layer1"
     showgrid="false"
     fit-margin-top="0"
     fit-margin-left="0"
     fit-margin-right="0"
     fit-margin-bottom="0"
     inkscape:window-width="2560"
     inkscape:window-height="1462"
     inkscape:window-x="0"
     inkscape:window-y="0"
     inkscape:window-maximized="1" />
  <metadata
     id="metadata4921">
    <rdf:RDF>
      <cc:Work
         rdf:about="">
        <dc:format>image/svg+xml</dc:format>
        <dc:type
           rdf:resource="http://purl.org/dc/dcmitype/StillImage" />
        <dc:title></dc:title>
      </cc:Work>
    </rdf:RDF>
  </metadata>
  <g
     inkscape:label="Layer 1"
     inkscape:groupmode="layer"
     id="layer1"
     transform="translate(-40.078773,-66.9449)">
    <g
       id="g89"
       transform="matrix(5.2483974,0,0,5.2483974,-619.89261,-659.76862)">
      <path
         d="m 140.82069,156.2473 c 0.084,-0.049 0.10654,-0.16757 0.0483,-0.36936 -0.0166,0.12594 -0.0328,0.25188 -0.0483,0.36936 z m 3.71546,-5.81378 c -0.1203,0.0116 -0.24272,0.024 -0.3676,0.0363 -0.0871,0.16369 -0.18239,0.34255 -0.27199,0.51082 0.0579,0.0681 0.10619,0.12453 0.15205,0.17921 0.17991,-0.10512 0.36159,-0.21131 0.52846,-0.30868 -0.0134,-0.13194 -0.0268,-0.27058 -0.0409,-0.41769 z m -3.25015,4.30953 c 0.007,0.007 0.0134,0.0145 0.0198,0.0219 0.09,-0.043 0.19968,-0.0674 0.26494,-0.1344 0.0635,-0.0653 0.0963,-0.17216 0.11359,-0.266 0.0113,-0.0589 -0.0123,-0.15346 -0.055,-0.1845 -0.0427,-0.0314 -0.14781,-0.0296 -0.19155,0.003 -0.11677,0.0871 -0.23319,0.15451 -0.37818,0.18732 -0.054,0.0123 -0.11818,0.1016 -0.12524,0.16193 -0.005,0.0494 0.0561,0.12876 0.10795,0.15628 0.0713,0.0377 0.16157,0.0381 0.24377,0.0543 z m -0.31538,1.02659 c 0.0646,0 0.0917,-0.001 0.11853,0 0.12947,0.005 0.24801,-0.0554 0.28293,-0.1644 0.0554,-0.17251 -0.0123,-0.23742 -0.20637,-0.31221 -0.0868,-0.0339 -0.15911,-0.10548 -0.23848,-0.15804 -0.0392,-0.0261 -0.0815,-0.0709 -0.12136,-0.0702 -0.15451,0.004 -0.32067,0.28575 -0.25611,0.42827 0.0889,0.19544 0.22048,0.32562 0.42086,0.27658 z m -0.54046,-1.33597 c 0.0617,-0.0434 0.1323,-0.0667 0.15558,-0.11289 0.16016,-0.31715 0.51541,-0.50694 0.57714,-0.88688 7.2e-4,-0.004 0.005,-0.007 0.007,-0.0113 0.061,-0.12454 -0.0183,-0.38136 -0.14075,-0.44627 -0.0222,-0.0116 -0.054,-0.0212 -0.0755,-0.0138 -0.22719,0.0751 -0.47767,0.11712 -0.54893,0.40817 -0.0289,0.11888 -0.11888,0.1778 -0.2413,0.17215 -0.15698,-0.007 -0.27587,0.0642 -0.37712,0.17357 -0.12629,0.13652 -0.10195,0.28928 0.0568,0.381 0.0924,0.0536 0.18168,0.11359 0.27482,0.16686 0.0988,0.0568 0.20073,0.10901 0.31221,0.16933 z m -7.95125,3.163 c -0.13229,0.20426 -0.23883,0.39194 -0.3683,0.56198 -0.16828,0.22119 -0.41734,0.30127 -0.68157,0.28928 -0.0885,-0.004 -0.17604,-0.10831 -0.25682,-0.17569 -0.10478,-0.0875 -0.20426,-0.18203 -0.30198,-0.27728 -0.0272,-0.0265 -0.0642,-0.0723 -0.0572,-0.0998 0.048,-0.19861 0.10478,-0.39546 0.16263,-0.59161 0.008,-0.0268 0.0328,-0.0579 0.0579,-0.0699 0.21696,-0.10195 0.43568,-0.19967 0.65369,-0.2988 0.0889,-0.0402 0.14676,-0.0833 0.10866,-0.20461 -0.0342,-0.10972 -0.0921,-0.18733 -0.16228,-0.27693 -0.1277,-0.16263 -0.25153,-0.3429 -0.2293,-0.57891 0.013,-0.14323 -0.0162,-0.28999 -0.0106,-0.43462 0.008,-0.20215 0.0928,-0.28399 0.29175,-0.34326 0.0829,-0.025 0.15311,-0.0896 0.23495,-0.12276 0.0688,-0.0279 0.15134,-0.0624 0.21802,-0.048 0.24624,0.0547 0.36265,-0.036 0.37923,-0.28611 0.0194,-0.28857 0.0328,-0.58137 0.2406,-0.8195 0.073,-0.084 -0.002,-0.19685 -0.12982,-0.21202 -0.133,-0.0159 -0.27976,-0.003 -0.39512,-0.0572 -0.21801,-0.1016 -0.43391,-0.0843 -0.66181,-0.0854 -0.17286,-7.1e-4 -0.3302,0.005 -0.496,0.0614 -0.11854,0.0406 -0.25682,0.0268 -0.38665,0.0268 -0.0215,0 -0.0487,-0.0501 -0.0635,-0.0815 -0.036,-0.0776 -0.0698,-0.15628 -0.0981,-0.23707 -0.0247,-0.0716 -0.0674,-0.15204 -0.0519,-0.2166 0.009,-0.0402 0.11007,-0.0674 0.17428,-0.0832 0.055,-0.0138 0.11712,-0.01 0.17462,-0.002 0.19226,0.0279 0.37218,-0.12453 0.26635,-0.36795 -0.0861,-0.19823 -0.11254,-0.43671 -0.36019,-0.55736 -0.13123,-0.0642 -0.20214,-0.24306 -0.31186,-0.35877 -0.0448,-0.0469 -0.12135,-0.0646 -0.18485,-0.0914 -0.0286,-0.012 -0.0632,-0.009 -0.091,-0.0219 -0.30621,-0.13582 -0.63394,-0.16651 -0.96096,-0.20143 -0.21732,-0.0229 -0.43604,-0.0335 -0.65335,-0.0571 -0.0603,-0.006 -0.11924,-0.0342 -0.17603,-0.0589 -0.20779,-0.0885 -0.41099,-0.20813 -0.64241,-0.0649 -0.0127,0.008 -0.0335,0.004 -0.0628,0.006 0.0145,-0.0547 0.0279,-0.10019 0.0381,-0.1464 0.0367,-0.16898 0.0783,-0.18874 0.24801,-0.14217 0.12347,0.0339 0.25258,0.0497 0.37817,0.0765 0.0519,0.0113 0.1016,0.031 0.1524,0.0473 0.0593,0.0191 0.11783,0.0406 0.1778,0.0572 0.145,0.0402 0.29034,0.0801 0.43639,0.11642 0.0776,0.019 0.15663,0.0321 0.23601,0.0452 0.11853,0.0201 0.23706,0.0434 0.35666,0.0547 0.10759,0.0102 0.21766,10e-4 0.32526,0.0116 0.0924,0.01 0.18238,0.0445 0.27516,0.0522 0.20955,0.018 0.4191,0.0296 0.62936,0.0353 0.0445,0.001 0.0896,-0.0346 0.13511,-0.0519 0.0494,-0.019 0.0984,-0.0459 0.15029,-0.0526 0.22895,-0.0296 0.29457,-0.0896 0.36865,-0.30516 0.0356,-0.10265 0.10231,-0.19473 0.15628,-0.29068 0.0325,-0.0582 0.0737,-0.11254 0.0977,-0.17357 0.0847,-0.21414 0.21202,-0.38982 0.42404,-0.49142 0.0649,-0.0307 0.13652,-0.0459 0.20179,-0.0755 0.0945,-0.0427 0.15028,-0.0981 0.10477,-0.22084 -0.0543,-0.14852 -0.0296,-0.27693 0.10936,-0.39193 0.24024,-0.20003 0.2346,-0.21308 0.006,-0.42722 -0.21238,-0.19861 -0.4251,-0.39722 -0.647,-0.58455 -0.084,-0.0705 -0.19579,-0.10583 -0.29139,-0.16298 -0.0988,-0.0593 -0.19403,-0.12453 -0.28857,-0.19015 -0.0145,-0.0102 -0.0166,-0.0381 -0.0402,-0.0984 0.13758,0.0388 0.24906,0.06 0.35207,0.10124 0.14499,0.0586 0.28258,0.13547 0.42686,0.19579 0.0586,0.0247 0.1263,0.0268 0.19615,0.0402 0.0342,0.2413 0.27622,0.32279 0.4138,0.49107 0.0279,0.0339 0.0674,0.0603 0.10584,0.0822 0.0399,0.0222 0.10477,0.0607 0.12418,0.0462 0.0448,-0.0342 0.091,-0.0928 0.097,-0.14641 0.024,-0.20002 -0.0169,-0.39193 -0.11077,-0.57114 -0.0942,-0.17921 -0.005,-0.36583 0.19791,-0.38523 0.10865,-0.0106 0.22013,0.0123 0.34043,0.0205 0.0162,-0.1203 0.0529,-0.23954 0.19261,-0.24166 0.0617,-0.20108 0.097,-0.39828 0.18274,-0.57114 0.0663,-0.13406 0.18204,-0.25224 0.29845,-0.35067 0.15734,-0.13335 0.18662,-0.2039 0.0829,-0.38523 -0.0582,-0.10125 -0.0434,-0.18415 0.031,-0.2734 0.0621,-0.0744 0.10372,-0.16616 0.15734,-0.248 0.0152,-0.0236 0.0363,-0.0526 0.061,-0.06 0.0653,-0.0197 0.1337,-0.0293 0.1838,-0.0392 0.0504,0.0222 0.10406,0.0455 0.17462,0.0766 0.0113,-0.09 0.019,-0.14746 0.0261,-0.20497 0.006,7.2e-4 0.012,0.001 0.0176,0.002 0.006,0.0448 -0.004,0.10725 0.0219,0.12947 0.0303,0.0261 0.091,0.0176 0.14464,0.025 0.0543,-0.13758 0.10548,-0.2667 0.15663,-0.39582 -0.0116,-0.007 -0.0229,-0.0152 -0.0342,-0.0222 0.048,-0.0141 0.096,-0.0279 0.14464,-0.0416 0.0565,0.14887 0.072,0.16087 0.18592,0.14852 0.0688,0.19015 0.16898,0.25047 0.30339,0.17286 0.0289,-0.0169 0.0427,-0.0699 0.0519,-0.10936 0.0423,-0.17639 0.0804,-0.35348 0.12135,-0.53622 0.0963,0.0402 0.17145,0.054 0.22296,0.097 0.0649,0.0536 0.14605,0.10689 0.0575,0.22719 -0.0466,0.0632 -0.0289,0.18027 -0.0229,0.27164 0.001,0.0208 0.0762,0.0367 0.14181,0.066 0.10407,0.17286 0.20003,0.19226 0.40358,0.042 0,0.11642 0,0.22013 0,0.35101 0.0818,-0.0113 0.18662,-0.004 0.19756,-0.0314 0.0325,-0.0861 0.0529,-0.1905 0.0349,-0.2794 -0.0233,-0.11607 -0.0628,-0.21802 0.0723,-0.28822 0.01,-0.005 0.0166,-0.0219 0.0187,-0.0346 0.0145,-0.078 0.0183,-0.1584 0.12947,-0.16863 0.0212,-0.002 0.0363,-0.0649 0.0575,-0.10689 0.0434,-0.0159 0.0977,-0.036 0.15875,-0.0589 0.0924,0.0406 0.1725,0.097 0.16615,0.23178 -0.005,0.11112 -0.0342,0.133 -0.13899,0.0977 -0.0561,-0.0191 -0.127,-0.0155 -0.18309,0.003 -0.0187,0.006 -0.0176,0.0889 -0.0169,0.13652 0.001,0.0766 0.0233,0.15452 0.013,0.2286 -0.0363,0.27693 0.1905,0.3803 0.34219,0.53234 0.0162,0.0162 0.0691,0.001 0.10301,-0.007 0.0487,-0.012 0.0988,-0.0512 0.14147,-0.043 0.1277,0.0233 0.32702,-0.10584 0.32279,-0.26882 -0.001,-0.066 0.0148,-0.13194 0.0183,-0.19791 0.004,-0.0667 7.1e-4,-0.1337 0.0233,-0.20214 0.006,0.10019 0.004,0.20179 0.0233,0.29951 0.0106,0.0557 0.0437,0.12276 0.0882,0.15169 0.0353,0.0229 0.10372,7.2e-4 0.15557,-0.01 0.0564,-0.0109 0.11113,-0.03 0.16546,-0.048 0.0222,-0.008 0.0575,-0.0201 0.0593,-0.0335 0.0183,-0.14817 0.16404,-0.21202 0.21731,-0.33655 0.0448,-0.10548 0.0956,-0.20849 0.14781,-0.32103 0.004,0.0265 0.0134,0.0564 0.0138,0.0861 0.002,0.2032 -0.007,0.40675 0.008,0.60889 0.004,0.055 0.0716,0.11325 0.12347,0.15205 0.0155,0.012 0.0808,-0.0293 0.11466,-0.0568 0.0395,-0.0321 0.0695,-0.0751 0.10371,-0.11359 0.0441,0.0476 0.078,0.22754 0.14782,0.009 0.0116,-0.0378 0.0667,-0.0617 0.10195,-0.0924 0.0519,0.0215 0.10548,0.0434 0.15699,0.0646 0.0106,0.0526 0.0222,0.10971 0.0332,0.16193 0.1725,-0.0272 0.33619,-0.0526 0.49988,-0.079 0.0166,-0.003 0.0374,-0.0208 0.048,-0.0152 0.12277,0.0649 0.17816,-0.005 0.21626,-0.11712 0.085,0.0963 0.1337,0.0624 0.17427,-0.0314 0.0639,-0.14747 0.20567,-0.2339 0.35242,-0.22684 -0.0981,0.21343 -0.1972,0.43039 -0.29845,0.64594 -0.036,0.0772 -0.054,0.14463 0.0162,0.21766 0.0462,0.0483 0.0526,0.10266 -0.019,0.15663 -0.0293,0.0222 -0.0399,0.10478 -0.0236,0.1457 0.084,0.21343 0.29387,0.30445 0.50941,0.23036 0.0198,-0.007 0.0402,-0.0219 0.0515,-0.0392 0.0974,-0.14676 0.23143,-0.20426 0.40499,-0.17534 0.03,0.005 0.0621,-0.002 0.0889,-0.004 0,-0.12347 -0.0279,-0.25011 0.007,-0.35665 0.0483,-0.14923 0.20356,-0.0871 0.32773,-0.10125 0.031,-0.2854 0.26917,-0.0212 0.37959,-0.13758 0.0321,0.10301 0.0515,0.236 0.19579,0.0691 0.0476,-0.0547 0.15276,-0.0596 0.23213,-0.0857 0.0106,-0.003 0.0317,3.4e-4 0.036,0.007 0.0691,0.11994 0.1524,0.0748 0.25824,0.0487 0.12417,-0.0307 0.26352,0.007 0.39299,-0.0102 0.21661,-0.0293 0.44062,-0.0459 0.62301,-0.19368 0.025,-0.0197 0.0653,-0.0212 0.0984,-0.031 -0.0102,-0.008 -0.0198,-0.0169 -0.0293,-0.0258 0.0639,-0.0847 0.12735,-0.16969 0.19226,-0.254 0.0268,-0.0346 0.0624,-0.0635 0.0818,-0.1016 0.037,-0.0713 0.0734,-0.14499 0.0938,-0.2219 0.0159,-0.0607 0.007,-0.12771 0.0102,-0.19191 0.003,-0.078 0.009,-0.15558 0.01,-0.23354 0.002,-0.13123 3.4e-4,-0.26282 3.4e-4,-0.39441 0,-0.0579 0,-0.11571 0,-0.17356 0.0123,-0.003 0.025,-0.006 0.0378,-0.008 0.0437,0.12382 0.0748,0.25506 0.13582,0.36971 0.0508,0.0956 0.12947,0.18168 0.21308,0.25082 0.0233,0.019 0.13229,-0.0208 0.16263,-0.0624 0.11324,-0.15487 0.20461,-0.32596 0.31503,-0.48366 0.0967,-0.13829 0.20391,-0.27022 0.31327,-0.39899 0.17709,-0.20778 0.35842,-0.41204 0.54081,-0.61524 0.0406,-0.0448 0.0931,-0.079 0.14146,-0.11677 0.0205,-0.0169 0.0533,-0.0258 0.0642,-0.0466 0.11642,-0.22331 0.34678,-0.25506 0.54716,-0.34572 0.12241,-0.055 0.24977,-0.14817 0.31962,-0.25859 0.12206,-0.19332 0.31291,-0.24871 0.49847,-0.27269 0.27481,-0.0346 0.55668,-0.0205 0.83503,-0.0152 0.10301,0.002 0.15557,-0.0381 0.19226,-0.12453 0.0321,-0.0773 0.0586,-0.16052 0.10654,-0.22755 0.15099,-0.20955 0.22754,-0.45049 0.30691,-0.69109 0.01,-0.0296 0.0152,-0.0607 0.0187,-0.0914 0.018,-0.16862 0.0445,-0.3369 0.049,-0.50588 0.004,-0.11395 -0.0183,-0.22931 -0.0395,-0.34184 -0.0624,-0.33161 -0.0871,-0.66428 -0.0455,-1.00048 0.0141,-0.11359 0.024,-0.22789 0.0356,-0.34184 0.0236,-0.22719 0.1016,-0.28575 0.3295,-0.32632 0.33478,-0.06 0.60748,0.0988 0.895,0.21484 0.16862,0.0684 0.33655,0.10936 0.5274,0.0797 0.23213,-0.036 0.47096,-0.066 0.70132,0.0367 0.0399,0.0176 0.0995,0.0145 0.14182,-10e-4 0.19226,-0.0713 0.29739,-0.0473 0.43956,0.11994 -0.10654,0.0871 -0.14147,0.19862 -0.091,0.33197 0.005,0.0116 0.005,0.0282 7.9e-4,0.0399 -0.10866,0.26423 0.0716,0.41734 0.24553,0.53128 0.16264,0.10619 0.36336,0.15981 0.55281,0.21731 0.19191,0.0582 0.38946,0.10019 0.58737,0.13477 0.1076,0.019 0.22261,0.0236 0.3302,0.007 0.1076,-0.0159 0.17639,0.0106 0.21802,0.10583 0.0907,0.20496 0.21555,0.34396 0.46602,0.36442 0.21378,0.0173 0.37571,0.26035 0.37677,0.49495 7.9e-4,0.1651 0.008,0.3302 -2.7e-4,0.49459 -0.0134,0.24977 -0.036,0.49918 -0.0596,0.74859 -0.005,0.0526 -0.0254,0.10513 -0.0466,0.15417 -0.15099,0.35313 -0.27481,0.72213 -0.46567,1.05269 -0.16832,0.29034 -0.37787,0.56233 -0.64034,0.78952 -0.19508,0.16898 -0.4064,0.35419 -0.51364,0.57856 -0.091,0.1912 -0.27235,0.33725 -0.2914,0.57644 -0.006,0.0868 -0.14746,0.16545 -0.23213,0.242 -0.0353,0.0314 -0.085,0.0473 -0.14781,0.0804 0.0384,0.0455 0.0684,0.0815 0.0998,0.11853 2.6e-4,0 -0.006,0.013 -0.01,0.0127 -0.24062,-0.0561 -0.4851,-0.0981 -0.71828,-0.17533 -0.13617,-0.0448 -0.24765,-0.15805 -0.37994,-0.21908 -0.18204,-0.084 -0.37148,-0.15204 -0.56127,-0.21731 -0.14676,-0.0504 -0.30163,-0.079 -0.44803,-0.13053 -0.0995,-0.0353 -0.16263,7.2e-4 -0.22437,0.0677 -0.0815,0.0878 -0.16686,0.17145 -0.24588,0.26105 -0.0346,0.0392 -0.0526,0.0935 -0.0871,0.13265 -0.0603,0.0684 -0.11713,0.14887 -0.19368,0.19156 -0.0924,0.0515 -0.16263,0.0967 -0.1785,0.21272 -0.018,0.13018 -0.13053,0.15452 -0.2279,0.12418 -0.1591,-0.0501 -0.28152,-0.0356 -0.41839,0.0737 -0.072,0.0572 -0.20391,0.048 -0.30904,0.0519 -0.13405,0.005 -0.27411,-0.0317 -0.40181,-0.005 -0.12982,0.0272 -0.25188,0.10336 -0.37148,0.16827 -0.17215,0.0931 -0.32984,0.22155 -0.51152,0.28752 -0.19862,0.072 -0.41663,0.0931 -0.62689,0.13017 -0.2413,0.0423 -0.48472,0.0706 -0.7239,0.12241 -0.0466,0.0102 -0.11183,0.10478 -0.10724,0.15417 0.0317,0.31926 -0.33338,0.42968 -0.53764,0.34184 -0.0931,-0.0402 -0.23036,-0.097 -0.29633,-0.0586 -0.15593,0.0907 -0.35525,0.1404 -0.43321,0.34043 -0.0903,0.23319 -0.33973,0.32173 -0.55351,0.19156 -0.2219,-0.13512 -0.43815,-0.066 -0.62371,0.0399 -0.28752,0.16334 -0.27693,0.18203 -0.57291,0.12488 -0.0825,0.20003 -0.0825,0.19474 -0.31433,0.20285 -0.23565,0.008 -0.4452,0.0667 -0.59019,0.28469 -0.0575,0.0868 -0.16299,0.1524 -0.2593,0.20179 -0.16792,0.0854 -0.19932,0.16687 -0.10512,0.32844 0.12982,0.22331 0.26775,0.44309 0.37853,0.67557 0.072,0.15134 0.115,0.31679 0.0617,0.49565 -0.0356,0.11959 0.115,0.32808 0.24553,0.32068 0.23389,-0.013 0.43145,0.0854 0.64311,0.14675 0.3429,0.0991 0.47378,0.0374 0.62865,-0.27763 0.0621,-0.12736 0.11536,-0.25894 0.16757,-0.39088 0.0445,-0.11219 0.14394,-0.14782 0.30798,-0.0963 0.1023,0.0317 0.13829,0.0952 0.11112,0.20602 -0.0402,0.16369 -0.0183,0.31503 0.17004,0.4258 -0.18873,0.15381 -0.30339,0.39229 -0.5722,0.37536 -0.22931,-0.0148 -0.39864,0.10865 -0.56515,0.2159 -0.11995,0.0776 -0.22366,0.11818 -0.36725,0.0892 -0.0328,0.19332 -0.21131,0.21131 -0.34325,0.27905 -0.15981,0.0818 -0.21837,0.25929 -0.13017,0.41345 0.0399,0.0699 0.0688,0.15522 0.0709,0.2346 0.005,0.15169 -0.003,0.30586 -0.0268,0.45579 -0.013,0.0829 0.007,0.13229 0.0713,0.16721 0.10407,0.0561 0.10936,0.1397 0.0864,0.24166 -0.0123,0.0557 -0.007,0.11536 -0.0106,0.17039 -0.0205,0.0293 -0.0543,0.0642 -0.0713,0.10583 -0.0452,0.10936 -0.0677,0.23107 -0.12771,0.33091 -0.11783,0.19438 -0.12453,0.32244 0.0289,0.49706 0.16934,0.19262 0.23213,0.70662 0.0653,0.9084 -0.11042,0.13371 -0.2286,0.18486 -0.387,0.10725 -0.20461,-0.0998 -0.39228,-0.0423 -0.5789,0.0529 -0.0455,0.0229 -0.0967,0.0385 -0.14641,0.0476 -0.0621,0.0116 -0.12629,0.0134 -0.18415,0.0497 0.0462,-0.008 0.0924,-0.019 0.139,-0.0247 0.21272,-0.025 0.29598,0.14429 0.38206,0.28046 0.0705,0.11218 0.12382,0.2099 0.26211,0.26282 0.13794,0.0526 0.254,0.16122 0.38312,0.23883 0.0632,0.0377 0.13546,0.0603 0.18697,0.0825 0.0561,0.10054 0.12065,0.18979 0.15804,0.28892 0.0388,0.10337 0.0691,0.21555 0.073,0.32456 0.0102,0.26952 0.0155,0.54045 -3.4e-4,0.80927 -0.018,0.31256 -0.0476,0.62583 -0.0981,0.93451 -0.031,0.18909 -0.21555,0.22966 -0.37218,0.26247 -0.11677,0.0247 -0.24165,0.0187 -0.3623,0.012 -0.0416,-0.002 -0.0801,-0.0497 -0.12207,-0.0727 -0.0321,-0.0176 -0.0663,-0.0363 -0.10195,-0.0416 -0.15875,-0.0233 -0.3235,-0.0243 -0.4759,-0.0674 -0.1397,-0.0392 -0.26493,-0.12559 -0.39934,-0.18486 -0.0914,-0.0402 -0.18768,-0.0698 -0.26141,-0.0963 -0.0727,0.0984 -0.12559,0.17322 -0.18168,0.24554 -0.0413,0.0526 -0.0981,0.096 -0.12806,0.15381 -0.0663,0.12735 -0.17815,0.16686 -0.30268,0.15734 -0.12383,-0.009 -0.24095,-0.0649 -0.28469,-0.19333 -0.042,-0.12206 -0.0416,-0.248 0.0579,-0.35277 0.14252,-0.15029 0.27587,-0.30869 0.52211,-0.27129 0.0691,0.0106 0.14676,-0.0335 0.19579,-0.0462 -0.0776,-0.1517 -0.14499,-0.31186 -0.23707,-0.45685 -0.0882,-0.13899 -0.091,-0.28151 -0.0568,-0.42686 0.0617,-0.26494 0.11924,-0.53199 0.26635,-0.76941 0.048,-0.078 0.0868,-0.17109 0.012,-0.26141 -0.084,-0.10124 -0.19508,-0.15381 -0.32173,-0.1217 -0.11148,0.0282 -0.22825,0.0684 -0.31856,0.13582 -0.0649,0.0483 -0.12453,0.14851 -0.12771,0.22789 -0.0131,0.35913 -0.004,0.71931 -0.006,1.07915 -7.1e-4,0.16686 -0.20249,0.34642 -0.36512,0.32279 -0.121,-0.0176 -0.19756,-0.10972 -0.20708,-0.21731 -0.006,-0.0723 0.0409,-0.19227 0.0974,-0.21837 0.15769,-0.0723 0.16651,-0.20602 0.17427,-0.33549 0.012,-0.21026 0.002,-0.42228 0.002,-0.63324 -3.4e-4,-0.018 -0.001,-0.0367 -0.006,-0.0536 -0.0332,-0.1203 -0.39864,-0.42862 -0.52317,-0.4191 -0.0868,0.006 -0.17709,0.0455 -0.25294,0.0917 -0.0871,0.0526 -0.16016,0.12841 -0.23918,0.19473 -0.13088,0.11042 -0.2854,0.10901 -0.43392,0.0656 -0.061,-0.0176 -0.11818,-0.0889 -0.15275,-0.14957 -0.12136,-0.21485 -0.26882,-0.39018 -0.52564,-0.44592 -0.0455,-0.01 -0.0815,-0.0607 -0.12383,-0.09 -0.0529,-0.0367 -0.10759,-0.0709 -0.16651,-0.10936 -0.0254,0.0656 -0.0335,0.1457 -0.0628,0.15417 -0.12982,0.0377 -0.26599,0.0773 -0.39934,0.0748 -0.19121,-0.003 -0.38136,-0.0512 -0.57291,-0.0607 -0.0864,-0.004 -0.17498,0.0564 -0.26282,0.0564 -0.14817,-3.5e-4 -0.30551,0.002 -0.44203,-0.0459 -0.22155,-0.0769 -0.42228,-0.19332 -0.67557,-0.18274 -0.1524,0.006 -0.31292,-0.0624 -0.46179,-0.11783 -0.16263,-0.0607 -0.30939,-0.0289 -0.45367,0.0406 -0.0335,0.0162 -0.0565,0.0649 -0.0744,0.10301 -0.0473,0.1009 -0.0892,0.20426 -0.14146,0.32597 0.2039,0.13017 0.15134,0.36477 0.13935,0.58455 -0.008,0.14217 -0.0339,0.28293 -0.0462,0.38065 -0.16192,0.0861 -0.28963,0.15593 -0.41945,0.2219 -0.31574,0.16121 -0.51647,-0.0258 -0.70661,-0.23848 -0.0653,-0.0734 -0.23495,-0.10337 -0.35878,-0.03 -0.0691,0.0409 -0.16581,0.14922 -0.15099,0.19473 0.0497,0.15275 -0.0233,0.37571 0.25541,0.43568"
         style="fill:#940d16;fill-opacity:1;fill-rule:nonzero;stroke:none;stroke-width:0.03527778"
         id="path454"
         inkscape:connector-curvature="0" />
      <path
         d="m 162.7804,159.87738 c -0.0938,0.11042 -0.0631,0.1972 0.0445,0.27905 0.10513,0.0804 0.15593,0.18415 0.15416,0.32561 -0.005,0.30163 -0.0942,0.56233 -0.35454,0.72672 -0.1591,0.10019 -0.13405,0.22896 -0.12629,0.3743 0.0169,0.30798 0.27481,0.49107 0.37571,0.75459 0.28716,0.16898 0.49424,0.50095 0.89887,0.43357 0.0914,-0.0152 0.18874,-0.006 0.28258,0.001 0.16157,0.0127 0.22613,0.1397 0.14111,0.27904 -0.049,0.0801 -0.11853,0.14747 -0.16369,0.22931 -0.0395,0.0723 -0.0579,0.15628 -0.0864,0.2353 -0.0286,0.0787 -0.0427,0.16793 -0.0896,0.2346 -0.13864,0.19756 -0.12418,0.43286 -0.18133,0.65052 -0.0589,0.22472 -0.12347,0.44768 -0.19579,0.66816 -0.0152,0.0459 -0.0699,0.0917 -0.11677,0.11183 -0.22683,0.0967 -0.3108,0.22402 -0.31926,0.47908 -0.002,0.0561 -0.0265,0.12558 -0.0653,0.16474 -0.33726,0.34149 -0.69639,0.65899 -1.11478,0.89888 -0.20849,0.11959 -0.43321,0.21096 -0.64805,0.32032 -0.0952,0.048 -0.18239,0.11183 -0.27694,0.16158 -0.43532,0.23001 -0.80997,0.5207 -1.0354,0.97613 -0.0699,0.14111 -0.17956,0.26247 -0.24906,0.40358 -0.0603,0.12206 -0.0885,0.26 -0.13335,0.38982 -0.0279,0.0822 -0.0582,0.16369 -0.0914,0.24377 -0.0116,0.0286 -0.0473,0.0512 -0.0501,0.0787 -0.0194,0.18379 -0.18133,0.1337 -0.27799,0.14922 -0.0889,0.0141 -0.16087,-0.0543 -0.19191,-0.17427 -0.0586,-0.22684 -0.15663,-0.44309 -0.23213,-0.66604 -0.0236,-0.0713 -0.0229,-0.15064 -0.0427,-0.22331 -0.066,-0.24236 -0.17003,-0.44909 -0.39722,-0.59796 -0.19826,-0.13053 -0.36125,-0.31574 -0.5401,-0.47661 -0.003,-0.003 -0.007,-0.008 -0.0102,-0.008 -0.22825,-0.018 -0.41452,-0.16863 -0.635,-0.20284 -0.1584,-0.0243 -0.28646,-0.0808 -0.42475,-0.16757 -0.1965,-0.12277 -0.30833,-0.35419 -0.54963,-0.40958 -0.0388,-0.009 -0.0794,-0.0219 -0.11818,-0.018 -0.18168,0.0183 -0.36265,0.0437 -0.54469,0.0639 -0.12312,0.0134 -0.24729,0.0254 -0.37147,0.0325 -0.12912,0.007 -0.25929,0 -0.3877,0.0127 -0.12736,0.0124 -0.19333,0.13582 -0.14676,0.29422 0.14288,0.48718 -0.0441,0.88582 -0.34149,1.2446 -0.0734,0.0889 -0.21025,0.14358 -0.32808,0.17286 -0.16722,0.042 -0.34431,0.0614 -0.51717,0.061 -0.13441,-7.9e-4 -0.27905,-0.0233 -0.40041,-0.0783 -0.1718,-0.078 -0.33619,-0.0251 -0.50306,-0.0155 -0.0349,0.002 -0.0744,0.0593 -0.0974,0.0991 -0.11253,0.19332 -0.2159,0.39193 -0.33161,0.58279 -0.0296,0.0487 -0.0952,0.109 -0.14217,0.10724 -0.22684,-0.009 -0.45191,0.0688 -0.68368,-0.0483 -0.14817,-0.0748 -0.28222,-0.13687 -0.40252,-0.26141 -0.0868,-0.0903 -0.24201,-0.13934 -0.37324,-0.15663 -0.15205,-0.0198 -0.23354,-0.0931 -0.29386,-0.21766 -0.0734,-0.15064 -0.0892,-0.13653 -0.24483,-0.0959 -0.16122,0.042 -0.21167,0.14851 -0.28752,0.27657 -0.18168,0.30621 -0.3884,0.41169 -0.72601,0.21908 -0.11078,-0.0628 -0.17921,-0.16052 -0.17039,-0.29951 0.009,-0.12806 -0.0497,-0.20144 -0.18239,-0.21943 -0.0794,-0.0106 -0.15628,-0.0483 -0.2353,-0.0526 -0.0847,-0.005 -0.1711,0.0173 -0.25647,0.0261 -0.23284,0.0229 -0.47026,0.12841 -0.68192,-0.0829 -0.0949,-0.0945 -0.24412,-0.13193 -0.26706,-0.29633 -0.0155,-0.11007 -0.0261,-0.2039 0.072,-0.28998 0.0614,-0.054 0.10478,-0.13406 0.1397,-0.21026 0.0914,-0.19967 0.21449,-0.24694 0.42193,-0.2039 0.19861,0.0409 0.33902,0.1598 0.43638,0.31044 0.066,0.1016 0.0702,0.25082 0.0776,0.37994 0.004,0.0857 -0.0346,0.17392 -0.0565,0.27341 0.12947,0.0413 0.25682,0.0892 0.38841,0.121 0.072,0.0177 0.14817,0.0212 0.1718,-0.0914 0.0176,-0.0854 0.0582,-0.17004 0.10548,-0.24448 0.14923,-0.2346 0.51612,-0.25118 0.67522,-0.0261 0.0829,0.11713 0.13935,0.25294 0.22296,0.40958 0.0871,-0.0321 0.21202,-0.078 0.363,-0.1337 0.0557,-0.22437 0.24483,-0.33338 0.48649,-0.3736 0.0963,-0.0159 0.15063,-0.0667 0.17145,-0.16228 0.0416,-0.18979 0.18732,-0.28716 0.375,-0.34466 0.26458,-0.0815 0.48048,0.0681 0.71931,0.10266 0.012,0.002 0.025,0.0109 0.0346,0.0198 0.12312,0.11712 0.24659,0.23389 0.3683,0.35243 0.13582,0.13193 0.13829,0.30374 0.12171,0.51152 0.12876,-0.0243 0.2346,-0.0441 0.32949,-0.0621 0.008,-0.0349 0.0141,-0.0469 0.0106,-0.0515 -0.14675,-0.21166 -0.13652,-0.46249 -0.14358,-0.69779 -0.005,-0.19544 -0.0483,-0.37677 -0.0847,-0.56374 -0.0222,-0.11642 -2.6e-4,-0.22507 0.0893,-0.32385 0.0945,-0.10407 0.15805,-0.23636 0.25012,-0.3436 0.0656,-0.0769 0.16122,-0.12806 0.23354,-0.20038 0.0473,-0.0476 0.10689,-0.11395 0.10442,-0.16934 -10e-4,-0.043 -0.0868,-0.0885 -0.14111,-0.12276 -0.19191,-0.12171 -0.38911,-0.2353 -0.57855,-0.36019 -0.0452,-0.0296 -0.079,-0.0882 -0.0998,-0.1404 -0.1143,-0.28399 -0.19262,-0.5708 -0.19579,-0.88618 -0.002,-0.24553 -0.0131,-0.502 -0.16299,-0.73166 -0.12594,-0.19403 -0.13405,-0.43674 -0.0868,-0.65511 0.0674,-0.31256 0.16263,-0.6223 0.28011,-0.91969 0.0635,-0.16122 0.19121,-0.29986 0.30233,-0.4385 0.11218,-0.1397 0.23495,-0.27129 0.36265,-0.39758 0.048,-0.0476 0.11854,-0.0833 0.18486,-0.10055 0.18521,-0.0469 0.37253,-0.0861 0.56021,-0.11994 0.13123,-0.0236 0.26458,-0.0349 0.39758,-0.0494 0.17251,-0.0183 0.34573,-0.0346 0.51894,-0.0519 0.009,-7.1e-4 0.0183,-0.004 0.0268,-0.002 0.22437,0.0607 0.45261,0.10971 0.67028,0.18838 0.0945,0.0342 0.17039,0.0773 0.27657,0.0462 0.0635,-0.0183 0.14641,-0.0127 0.20814,0.0123 0.24483,0.10019 0.48543,0.17675 0.75424,0.084 0.0988,-0.0342 0.21449,-0.0176 0.31609,-0.0466 0.0783,-0.0226 0.15875,-0.0681 0.21696,-0.12523 0.10583,-0.10372 0.21872,-0.12806 0.35666,-0.0882 0.16721,0.0487 0.2741,-0.0385 0.25823,-0.20567 -0.0169,-0.17745 -0.0321,-0.35525 -0.0564,-0.53129 -0.006,-0.0409 -0.0462,-0.0765 -0.0695,-0.11571 -0.013,-0.0226 -0.0233,-0.0473 -0.0346,-0.0709 0.0148,-0.008 0.03,-0.0169 0.0448,-0.0254 0.0346,0.0547 0.0695,0.10972 0.10654,0.16863 0.0303,-0.0409 0.0674,-0.0811 0.0935,-0.127 0.13899,-0.24518 0.25047,-0.3048 0.52564,-0.2346 0.12735,0.0325 0.24765,0.10019 0.36265,0.16722 0.0787,0.0459 0.14711,0.40146 0.1016,0.49142 -0.0504,0.0998 -0.10971,0.19509 -0.16757,0.29069 -0.0494,0.0822 -0.11888,0.11853 -0.21942,0.13123 -0.0713,0.009 -0.14076,0.0674 -0.2025,0.11465 -0.0483,0.0377 -0.0832,0.0924 -0.11924,0.13335 0.17463,0.0656 0.34678,0.0593 0.51859,-0.0759 0.0698,-0.0543 0.18732,-0.0607 0.28433,-0.0656 0.3556,-0.0183 0.64312,-0.1658 0.87948,-0.42862 0.0353,-0.0392 0.11712,-0.0804 0.15487,-0.0653 0.14534,0.0582 0.22683,-0.0321 0.30092,-0.11642 0.16545,-0.18767 0.34396,-0.22436 0.52211,-0.0402 0.14711,0.1517 0.34925,0.15276 0.50835,0.25683 0.0219,0.0145 0.0667,0.0155 0.0903,0.003 0.13476,-0.0713 0.26564,-0.054 0.40429,-0.01 0.10195,0.0328 0.19085,0.037 0.22189,-0.11854 0.0444,-0.2226 0.32562,-0.45155 0.56339,-0.45684 0.16157,-0.003 0.2988,-0.0353 0.41769,-0.14253 l -0.003,-0.004"
         style="fill:#940d16;fill-opacity:1;fill-rule:nonzero;stroke:none;stroke-width:0.03527778"
         id="path456"
         inkscape:connector-curvature="0" />
      <path
         d="m 161.63775,151.60721 c 0.0363,-0.004 0.06,-0.003 0.0808,-0.01 0.1771,-0.0575 0.34925,-0.13652 0.54434,-0.11359 0.0166,0.002 0.0631,-0.0688 0.0557,-0.0811 -0.0385,-0.0635 -0.0864,-0.16404 -0.13829,-0.16828 -0.22648,-0.0201 -0.45861,-0.10301 -0.68086,-0.005 -0.0695,0.0307 -0.14076,0.11254 -0.15875,0.18451 -0.01,0.0395 0.0825,0.11676 0.14288,0.15698 0.0445,0.0296 0.11077,0.0268 0.15416,0.0356 z m 1.14583,8.27405 c -0.0102,-0.12947 -0.0233,-0.25858 -0.03,-0.38841 -0.009,-0.18238 0.0808,-0.31115 0.21837,-0.42333 0.0674,-0.0547 0.10865,-0.14182 0.16298,-0.21308 0.0293,-0.0381 0.06,-0.0759 0.0945,-0.10936 0.0215,-0.0208 0.0614,-0.0268 0.0759,-0.0505 0.12136,-0.19367 0.12559,-0.30445 -0.0942,-0.36477 -0.13229,-0.0363 -0.27905,-0.0519 -0.39194,-0.12136 -0.32596,-0.20214 -0.38241,-0.63394 -0.18309,-0.9398 0.0367,-0.0565 0.091,-0.10759 0.1076,-0.16933 0.0159,-0.0596 0.0166,-0.14605 -0.0155,-0.19226 -0.0974,-0.13688 -0.21978,-0.25012 -0.27869,-0.41875 -0.0286,-0.0825 -0.12947,-0.14534 -0.20744,-0.20391 -0.13723,-0.10265 -0.20355,-0.40216 -0.1083,-0.54116 0.0557,-0.0811 0.11642,-0.15945 0.17745,-0.23636 0.0825,-0.10442 0.0681,-0.15981 -0.0596,-0.20814 -0.0293,-0.0109 -0.0596,-0.0194 -0.0903,-0.0261 -0.19192,-0.043 -0.3175,-0.15063 -0.36407,-0.34889 -0.0194,-0.0808 -0.0642,-0.15558 -0.0878,-0.23566 -0.0349,-0.11783 -0.0723,-0.23707 -0.0868,-0.35807 -0.0102,-0.0847 -0.008,-0.14534 -0.12065,-0.14393 -0.0526,3.4e-4 -0.10513,-0.0452 -0.15981,-0.0632 -0.0794,-0.0257 -0.16722,-0.078 -0.23989,-0.0628 -0.28716,0.06 -0.49953,-0.0681 -0.7045,-0.23813 -0.0543,-0.0448 -0.11641,-0.0878 -0.18203,-0.11042 -0.19297,-0.0653 -0.29033,-0.23142 -0.41275,-0.37182 -0.008,-0.01 -0.0155,-0.0236 -0.0169,-0.0363 -0.0275,-0.25683 -0.22295,-0.40323 -0.38135,-0.57221 -0.1136,-0.121 -0.1263,-0.17886 -0.0508,-0.33549 0.0286,-0.0593 0.0515,-0.12171 0.0815,-0.19297 0.1845,-0.0123 0.31962,-0.11183 0.41522,-0.28116 0.0519,-0.0917 0.14393,-0.16228 0.18979,-0.25612 0.0889,-0.18203 -0.13053,-0.51753 -0.31997,-0.49777 -0.0353,0.004 -0.079,0.0437 -0.0963,0.0787 -0.0275,0.055 -0.0384,0.11924 -0.0519,0.18062 -0.0653,0.30233 -0.26952,0.43074 -0.57679,0.39864 -0.14993,-0.0155 -0.30656,0.0272 -0.45967,0.0427 -0.0385,0.004 -0.085,0.0187 -0.11536,0.004 -0.23706,-0.11783 -0.44732,-0.0215 -0.65264,0.0804 -0.15486,0.0773 -0.30127,0.17251 -0.45226,0.25788 -0.0268,0.0152 -0.0575,0.031 -0.0875,0.0332 -0.33443,0.0208 -0.67062,0.066 -1.004,0.0512 -0.35877,-0.0162 -0.70097,-0.12912 -1.00048,-0.34396 -0.0794,-0.0572 -0.17639,-0.0942 -0.24518,-0.16086 -0.13652,-0.13265 -0.26035,-0.27799 -0.387,-0.42051 -0.15028,-0.17004 -0.30409,-0.33761 -0.44485,-0.51541 -0.25153,-0.31891 -0.39017,-0.67346 -0.41945,-1.09079 -0.0198,-0.27905 0.0155,-0.55104 0.024,-0.82409 0.007,-0.20532 0.097,-0.41628 0.18485,-0.60854 0.1136,-0.24801 0.26212,-0.48013 0.40182,-0.73061 -0.0127,-0.006 0.004,-0.002 0.0141,0.007 0.0113,0.0106 0.0173,0.0268 0.0265,0.0409 0.22013,-0.23072 0.46319,-0.4378 0.75353,-0.53587 0.33655,-0.1136 0.68686,-0.22049 1.05939,-0.1136 0.13335,0.0381 0.2861,0.006 0.42827,0.0187 0.10407,0.01 0.20638,0.0395 0.30903,0.0628 0.13865,0.0314 0.28364,0.0476 0.41381,0.10055 0.33797,0.13829 0.6985,0.23742 0.98319,0.48048 0.0995,0.0854 0.17216,0.20214 0.26318,0.29845 0.14746,0.15593 0.29104,0.3175 0.45332,0.45685 0.15134,0.12982 0.21943,0.0991 0.29421,-0.0882 0.0646,-0.16016 0.15911,-0.28645 0.34961,-0.30903 0.15204,-0.0187 0.29421,-0.11183 0.45826,-0.0504 0.0332,0.0127 0.084,-0.0222 0.12664,-0.0356 0.0677,-0.0215 0.13441,-0.0515 0.20391,-0.0624 0.0938,-0.0148 0.15522,0.031 0.17392,0.127 10e-4,0.009 10e-4,0.018 0.002,0.0272 0.0152,0.0963 0.0684,0.21343 0.0325,0.28293 -0.0261,0.0497 -0.17322,0.0346 -0.266,0.0515 -0.42227,0.0773 -0.43462,0.32773 -0.27799,0.67168 0.0173,0.0385 0.0713,0.0677 0.11466,0.0861 0.21378,0.091 0.39334,0.22578 0.55597,0.39229 0.14888,0.15276 0.31433,0.28999 0.47872,0.42616 0.0945,0.0783 0.19015,0.0339 0.28611,-0.0194 0.0878,-0.049 0.18556,-0.0797 0.29068,-0.12347 0.0141,0.0603 0.0236,0.0819 0.0233,0.10266 -0.008,0.3048 0.12665,0.53798 0.35314,0.73307 0.17991,0.15557 0.27058,0.36371 0.29562,0.59866 0.0187,0.18203 0.0875,0.3295 0.23002,0.45473 0.0977,0.0857 0.1598,0.1972 0.30973,0.23072 0.0706,0.0159 0.11924,0.1404 0.17251,0.21907 0.10301,0.15346 0.19368,0.31609 0.30762,0.46073 0.0572,0.073 0.1009,0.13018 0.1076,0.23072 0.0162,0.24659 -0.0751,0.45931 -0.19226,0.66005 -0.042,0.0723 -0.13759,0.13017 -0.22084,0.15733 -0.11395,0.037 -0.18697,0.097 -0.23107,0.20426 -0.0204,0.049 -0.0427,0.10901 -0.0829,0.13476 -0.18768,0.12136 -0.16757,0.29493 -0.11712,0.46567 0.0455,0.15169 0.0494,0.28363 -0.0384,0.42369 -0.0677,0.10724 0.01,0.363 0.11923,0.45402 0.0275,0.0229 0.0575,0.043 0.0868,0.0639 0.18698,0.13229 0.26141,0.36125 0.18768,0.57926 -0.005,0.0169 -0.012,0.0353 -0.0236,0.048 -0.12876,0.14076 -0.25329,0.28646 -0.39052,0.4191 -0.14781,0.14288 -0.15805,0.24518 -0.019,0.38771 0.0427,0.0437 0.0801,0.0931 0.115,0.1344 0.14288,-0.0494 0.28046,-0.11782 0.42545,-0.14217 0.26953,-0.0455 0.60925,0.0614 0.76694,0.34467 0.10654,0.19191 0.0868,0.36089 0.03,0.54786 -0.0536,0.17463 -0.004,0.23107 0.17004,0.26529 0.20038,0.0395 0.41064,0.0755 0.5895,0.16651 0.29386,0.14923 0.41275,0.43215 0.4519,0.74965 0.003,0.0265 0.005,0.0572 -0.004,0.0801 -0.0667,0.15805 -0.14252,0.31221 -0.2039,0.47202 -0.0847,0.22225 -0.28187,0.31327 -0.46108,0.43392 -0.11325,0.0766 -0.19968,0.19297 -0.2981,0.29139 -0.12982,0.12947 -0.2346,0.11889 -0.35983,-0.0159 -0.0335,-0.036 -0.10831,-0.0476 -0.16334,-0.0462 -0.22154,0.004 -0.44768,0.0501 -0.66216,0.0166 -0.12912,-0.0201 -0.23989,-0.15804 -0.35878,-0.24306 l 0.003,0.004"
         style="fill:#940d16;fill-opacity:1;fill-rule:nonzero;stroke:none;stroke-width:0.03527778"
         id="path458"
         inkscape:connector-curvature="0" />
      <path
         d="m 138.70402,169.95695 c -0.0205,0.0797 -0.0272,0.12947 -0.0452,0.17462 -0.0469,0.11995 -0.15169,0.16651 -0.27199,0.12453 -0.0928,-0.0328 -0.1905,-0.0568 -0.27622,-0.10336 -0.0571,-0.0314 -0.1143,-0.0875 -0.14076,-0.1464 -0.0554,-0.12453 -0.1397,-0.1771 -0.27376,-0.20356 -0.15028,-0.0293 -0.29986,-0.0861 -0.43709,-0.15557 -0.18591,-0.0945 -0.36018,-0.21132 -0.53798,-0.32103 -0.0332,-0.0201 -0.0632,-0.0497 -0.0854,-0.0815 -0.0709,-0.1009 -0.15276,-0.17392 -0.28046,-0.21061 -0.0977,-0.0282 -0.18204,-0.10865 -0.26988,-0.16933 -0.16686,-0.11536 -0.34713,-0.21837 -0.42439,-0.42404 -0.005,-0.0124 -0.0116,-0.0293 -0.0219,-0.0332 -0.16051,-0.0642 -0.21908,-0.18451 -0.22119,-0.35243 -7.2e-4,-0.037 -0.0744,-0.0864 -0.12418,-0.10654 -0.19685,-0.0797 -0.36689,-0.17462 -0.44873,-0.39405 -0.0332,-0.0889 -0.13371,-0.1524 -0.2032,-0.22825 -0.091,-0.10019 -0.21837,-0.18661 -0.26565,-0.3048 -0.0949,-0.23918 -0.25294,-0.42404 -0.40498,-0.623 -0.17004,-0.2226 -0.37218,-0.40111 -0.5775,-0.58596 -0.18098,-0.16334 -0.32209,-0.37324 -0.5013,-0.5461 -0.11924,-0.11501 -0.21625,-0.25542 -0.31327,-0.39159 -0.11853,-0.16651 -0.248,-0.33055 -0.33478,-0.51364 -0.12841,-0.27058 -0.34361,-0.46355 -0.53517,-0.67945 -0.15522,-0.17463 -0.37747,-0.28117 -0.49424,-0.49601 -0.024,-0.0438 -0.0748,-0.0808 -0.12206,-0.1016 -0.12559,-0.055 -0.18168,-0.12947 -0.0935,-0.26423 -0.0914,-0.0656 -0.17851,-0.079 -0.28858,-0.0765 -0.11218,0.003 -0.24306,-0.036 -0.33514,-0.10054 -0.1845,-0.12841 -0.37994,-0.24942 -0.46213,-0.4879 -0.0861,-0.25117 -0.31927,-0.30762 -0.54822,-0.33161 -0.32103,-0.0342 -0.64417,-0.0476 -0.96661,-0.0667 -0.0332,-0.002 -0.0829,0.008 -0.0991,0.0314 -0.10689,0.15063 -0.25894,0.0635 -0.38947,0.0755 -0.1016,0.01 -0.16651,-0.0455 -0.19191,-0.16193 -0.0547,-0.25153 -0.18874,-0.45614 -0.39864,-0.61454 -0.0624,-0.0469 -0.0949,-0.1337 -0.14005,-0.2032 -0.0215,-0.0335 -0.0392,-0.0699 -0.0607,-0.10336 -0.14605,-0.2286 -0.30233,-0.4512 -0.43321,-0.68792 -0.0452,-0.0825 -0.0325,-0.20037 -0.0325,-0.30233 0,-0.0183 0.0713,-0.0589 0.1009,-0.0522 0.14711,0.0335 0.23389,0.13935 0.2928,0.2727 0.0688,0.15558 0.30798,0.28998 0.47273,0.25188 0.0455,-0.0106 0.0896,-0.0688 0.11535,-0.11606 0.0893,-0.16404 0.15734,-0.34114 0.25859,-0.49671 0.0741,-0.11395 0.43674,-0.17745 0.56444,-0.12629 0.19721,0.0783 0.40005,0.14499 0.58808,0.24094 0.0893,0.0452 0.15911,0.139 0.22155,0.22296 0.17992,0.24236 0.28257,0.52105 0.37112,0.80786 0.0318,0.10266 0.0952,0.19861 0.15875,0.28716 0.0565,0.0787 0.12982,0.1464 0.20179,0.21237 0.0332,0.03 0.0811,0.043 0.12241,0.0639 0.0155,-0.042 0.0335,-0.0836 0.0455,-0.12629 0.005,-0.0159 -0.012,-0.0384 -0.006,-0.0522 0.11995,-0.27411 -0.0448,-0.49354 -0.13017,-0.73131 -0.0392,-0.10971 -0.0356,-0.2346 -0.054,-0.36795 0.0829,0.0469 0.16687,0.0917 0.24765,0.14147 0.0247,0.0155 0.0501,0.0423 0.0586,0.0691 0.0515,0.15663 0.11042,0.3122 0.14253,0.47272 0.0275,0.13864 0.0314,0.28328 0.03,0.42545 -0.001,0.11112 -0.0441,0.22366 -0.0335,0.33231 0.006,0.067 0.0635,0.1517 0.12276,0.18733 0.19826,0.11959 0.41028,0.2159 0.61207,0.33055 0.12489,0.0706 0.25224,0.19756 0.17851,0.4184 0.0138,0.008 0.0279,0.0187 0.0437,0.0257 0.23354,0.10407 0.23919,0.10477 0.21096,0.35242 -0.0152,0.13194 0.0303,0.23425 0.12665,0.30727 0.1845,0.13899 0.37853,0.26635 0.57715,0.40499 0.0861,0.22119 0.17286,0.47272 0.28398,0.71296 0.0423,0.0921 0.16052,0.14746 0.20885,0.23813 0.11077,0.20778 0.33619,0.3362 0.39158,0.58032 0.006,0.0275 0.0332,0.0642 0.0579,0.0713 0.27375,0.0804 0.33513,0.31821 0.40251,0.5461 0.0586,0.19967 0.2085,0.31503 0.35666,0.4385 0.0706,0.0582 0.12206,0.13864 0.18944,0.20144 0.0896,0.0836 0.19227,0.15416 0.2794,0.24024 0.085,0.0833 0.15734,0.17886 0.23495,0.26882 0.0289,0.0339 0.0529,0.0737 0.0879,0.0998 0.14852,0.10971 0.30444,0.21061 0.44944,0.32526 0.0445,0.0349 0.0614,0.10371 0.0942,0.15487 0.0339,0.0529 0.0614,0.13299 0.11006,0.14993 0.19297,0.0684 0.29916,0.21943 0.40535,0.37535 0.0201,0.0289 0.0363,0.0649 0.0639,0.0843 0.34819,0.24483 0.6865,0.50765 1.10278,0.63571 0.0991,0.0307 0.18415,0.078 0.23777,0.18239 0.0233,0.0455 0.10725,0.0744 0.16757,0.0829 0.12171,0.0162 0.21237,0.0628 0.29739,0.15733 0.0593,0.0656 0.16122,0.1009 0.25083,0.12842 0.12347,0.0381 0.25576,0.0473 0.37853,0.0864 0.0688,0.0219 0.15557,0.0663 0.18203,0.12452 0.0529,0.11536 0.13441,0.12877 0.23742,0.12489 0.3048,-0.0113 0.57185,0.078 0.83785,0.23636 0.29951,0.1785 0.63288,0.29915 0.95356,0.44027 0.0275,0.012 0.0744,-0.001 0.10442,-0.0177 0.096,-0.0515 0.18168,-0.0413 0.28046,0.003 0.19367,0.0871 0.39405,0.15945 0.59231,0.23636 0.0247,0.01 0.054,0.008 0.0783,0.018 0.27552,0.11465 0.56056,0.14958 0.85654,0.11395 0.0384,-0.005 0.0843,-2.7e-4 0.11854,0.0166 0.1083,0.054 0.20531,0.0226 0.3108,-0.0109 0.0832,-0.0268 0.17603,-0.0286 0.26493,-0.0307 0.14852,-0.004 0.29739,0.002 0.44591,-8e-4 0.0374,-7.9e-4 0.0765,-0.0162 0.11113,-0.0328 0.0275,-0.013 0.0466,-0.043 0.0737,-0.0564 0.0557,-0.0275 0.53093,0.0815 0.57679,0.12489 0.0282,0.0268 0.0607,0.0593 0.0963,0.0667 0.14217,0.0293 0.28646,0.0501 0.42968,0.0741 0.018,0.003 0.0377,0.002 0.0526,0.0109 0.27834,0.15522 0.61878,0.19473 0.83785,0.46425 0.0765,0.0942 0.18168,0.1711 0.28716,0.23354 0.0713,0.0427 0.0974,0.0773 0.0748,0.15593 -0.0123,0.042 -0.007,0.0889 -0.0123,0.13299 -0.0444,0.3736 -0.3302,0.49707 -0.63394,0.27482 -0.0896,-0.0656 -0.3362,0.003 -0.43568,0.12065 -0.22437,-0.006 -0.42157,-0.0575 -0.55245,-0.26847 -0.0286,-0.0459 -0.12947,-0.0483 -0.19861,-0.0663 -0.0198,-0.005 -0.0452,0.009 -0.0656,0.005 -0.2667,-0.0557 -0.53129,-0.12805 -0.80046,-0.16615 -0.29316,-0.0413 -0.55068,-0.24977 -0.86607,-0.17922 -0.0159,0.004 -0.0384,-7.9e-4 -0.0511,-0.0102 -0.23742,-0.17498 -0.54645,-0.16968 -0.79445,-0.31679 -0.0952,-0.0572 -0.18345,-0.13441 -0.28575,-0.16863 -0.1136,-0.0377 -0.24236,-0.0286 -0.36054,-0.0564 -0.0744,-0.0173 -0.14358,-0.0624 -0.21167,-0.1009 -0.0582,-0.0332 -0.11042,-0.10477 -0.16757,-0.10689 -0.39158,-0.0155 -0.7179,-0.21696 -1.06574,-0.3556 -0.31185,-0.12417 -0.62159,-0.25364 -0.94192,-0.38488"
         style="fill:#940d16;fill-opacity:1;fill-rule:nonzero;stroke:none;stroke-width:0.03527778"
         id="path460"
         inkscape:connector-curvature="0" />
      <path
         d="m 144.50969,160.08693 c -0.0332,0.049 -0.0804,0.0864 -0.0811,0.12524 -0.005,0.22366 -0.15099,0.34219 -0.31927,0.44203 -0.13335,0.0794 -0.27022,0.1584 -0.43921,0.0988 -0.0356,-0.0127 -0.0836,-0.0116 -0.11994,7.1e-4 -0.20144,0.0688 -0.30903,-0.0572 -0.41557,-0.19085 -0.0614,-0.0765 -0.1136,-0.17039 -0.19227,-0.22155 -0.20355,-0.13299 -0.28786,-0.34501 -0.3884,-0.54539 -0.0515,-0.10266 -0.0815,-0.20426 0.0564,-0.2988 0.0776,-0.0529 0.10654,-0.18062 0.15099,-0.27729 0.0339,-0.0737 0.0776,-0.0829 0.14957,-0.0547 0.079,0.031 0.16369,0.0483 0.24518,0.0727 0.10936,0.0325 0.21731,0.0762 0.28575,-0.0716 0.0113,-0.0243 0.0702,-0.036 0.1076,-0.0377 0.27799,-0.0127 0.49883,0.11713 0.70273,0.28681 0.019,0.0159 0.0314,0.0441 0.0402,0.0684 0.0737,0.20179 0.14605,0.40429 0.21732,0.60325"
         style="fill:#940d16;fill-opacity:1;fill-rule:nonzero;stroke:none;stroke-width:0.03527778"
         id="path462"
         inkscape:connector-curvature="0" />
      <path
         d="m 145.55814,157.14547 c -0.0624,0.006 -0.12911,-3.4e-4 -0.18662,0.0208 -0.0744,0.0268 -0.16933,0.06 -0.2032,0.11959 -0.03,0.0526 0.006,0.14782 0.024,0.22084 0.0328,0.13265 0.0822,0.26141 0.10831,0.39476 0.007,0.0353 -0.037,0.10477 -0.073,0.11853 -0.0501,0.0198 -0.12877,0.0236 -0.1711,-0.004 -0.20602,-0.13017 -0.28787,-0.32702 -0.28434,-0.56903 0.003,-0.20002 0.043,-0.41381 -0.0938,-0.58596 -0.0995,-0.12453 -0.23142,-0.22225 -0.33796,-0.34149 -0.0628,-0.0705 -0.10478,-0.15946 -0.15522,-0.2406 -0.0399,-0.0642 -0.0705,-0.13617 -0.11924,-0.19261 -0.12418,-0.14499 -0.12206,-0.28822 -0.0332,-0.4505 0.0296,-0.054 0.006,-0.13406 0.0251,-0.1972 0.084,-0.28187 0.16227,-0.56692 0.26917,-0.84067 0.0409,-0.10442 0.1524,-0.18133 0.23459,-0.26847 0.0138,-0.0148 0.0402,-0.0247 0.0607,-0.0254 0.15064,-0.004 0.22896,0.10725 0.31292,0.20497 0.0677,0.0787 0.0963,0.18732 0.0219,0.25894 -0.2025,0.19438 -0.16228,0.43744 -0.17533,0.67662 -0.01,0.16828 -0.0547,0.33409 -0.0797,0.50165 -0.012,0.079 -0.0303,0.16193 -0.0176,0.23813 0.009,0.0529 0.0617,0.13688 0.10054,0.14041 0.20602,0.0176 0.26105,0.20566 0.37994,0.31714 0.10795,0.1016 0.19509,0.22543 0.2928,0.33867 0.0342,0.0399 0.0723,0.0769 0.10831,0.11536 -0.002,0.0162 -0.005,0.0328 -0.008,0.049"
         style="fill:#940d16;fill-opacity:1;fill-rule:nonzero;stroke:none;stroke-width:0.03527778"
         id="path464"
         inkscape:connector-curvature="0" />
      <path
         d="m 146.63553,166.01995 c 0.0141,0.17109 -0.0691,0.28152 -0.1651,0.41769 -0.13582,0.19261 -0.28575,0.20108 -0.47696,0.17321 -0.066,-0.01 -0.13441,-2.6e-4 -0.20179,-0.002 -0.17745,-0.005 -0.3743,-0.16475 -0.42122,-0.33831 -0.0452,-0.16546 -0.0931,-0.3302 -0.14216,-0.4946 -0.0279,-0.0938 -0.0247,-0.17497 0.0632,-0.23989 0.031,-0.0229 0.0642,-0.0572 0.0737,-0.0924 0.0437,-0.15945 0.14781,-0.23847 0.30656,-0.26811 0.35031,-0.0663 0.79128,0.17674 0.90734,0.51682 0.0353,0.10337 0.0388,0.21802 0.0564,0.32773"
         style="fill:#940d16;fill-opacity:1;fill-rule:nonzero;stroke:none;stroke-width:0.03527778"
         id="path466"
         inkscape:connector-curvature="0" />
      <path
         d="m 151.59523,158.83457 c -0.0222,0 -0.049,0.008 -0.0667,-0.001 -0.2787,-0.14111 -0.62795,-0.17992 -0.76059,-0.53446 -0.0557,-0.14852 0.004,-0.36406 0.11924,-0.47343 0.12488,-0.11782 0.25188,-0.18873 0.42968,-0.20425 0.15699,-0.0138 0.30904,-0.0857 0.46426,-0.12736 0.09,-0.0243 0.16086,-0.0335 0.20284,0.0945 0.043,0.13335 0.15205,0.24448 0.20215,0.37642 0.14569,0.38452 -0.15593,0.87841 -0.59091,0.86995"
         style="fill:#940d16;fill-opacity:1;fill-rule:nonzero;stroke:none;stroke-width:0.03527778"
         id="path468"
         inkscape:connector-curvature="0" />
      <path
         d="m 135.45035,164.36119 c -0.16298,-0.10231 -0.29809,-0.0289 -0.43991,0.009 -0.0519,0.0141 -0.12735,-0.006 -0.17462,-0.037 -0.25154,-0.16475 -0.41664,-0.35419 -0.27305,-0.70521 0.0208,-0.0512 0.009,-0.115 0.0145,-0.1725 0.004,-0.0399 -0.002,-0.10513 0.0173,-0.1143 0.12735,-0.06 0.26493,-0.15875 0.39087,-0.14782 0.23566,0.0205 0.47096,0.0914 0.69603,0.1718 0.16475,0.0589 0.31221,0.16616 0.46743,0.25295 0.0102,0.006 0.0183,0.0194 0.0229,0.0314 0.0303,0.072 -0.048,0.375 -0.11994,0.4131 -0.19897,0.10548 -0.40287,0.20073 -0.60149,0.29845"
         style="fill:#940d16;fill-opacity:1;fill-rule:nonzero;stroke:none;stroke-width:0.03527778"
         id="path470"
         inkscape:connector-curvature="0" />
      <path
         d="m 165.4093,168.25233 c 0.43215,-0.0243 0.67628,0.37076 0.66746,0.68474 -0.0113,0.38523 -0.29493,0.66498 -0.68263,0.66251 -0.39723,-0.003 -0.67239,-0.2861 -0.66604,-0.6858 0.006,-0.38629 0.29351,-0.66534 0.68121,-0.66145"
         style="fill:#940d16;fill-opacity:1;fill-rule:nonzero;stroke:none;stroke-width:0.03527778"
         id="path472"
         inkscape:connector-curvature="0" />
      <path
         d="m 145.97936,159.57717 c -0.16969,-0.0353 -0.28363,0.0822 -0.38665,0.17462 -0.12276,0.10936 -0.25258,0.1016 -0.38946,0.0914 -0.19509,-0.0138 -0.34996,-0.11077 -0.46426,-0.26599 -0.0385,-0.0515 -0.0716,-0.12065 -0.0737,-0.18309 -0.007,-0.16087 -0.01,-0.32385 0.012,-0.48296 0.0388,-0.28857 0.22437,-0.35771 0.45473,-0.39264 0.11748,-0.0176 0.23495,-0.036 0.35066,-0.0614 0.1143,-0.025 0.31362,0.11783 0.36125,0.27129 0.0145,0.0462 0.0219,0.097 0.0215,0.14534 -7.2e-4,0.17498 -0.007,0.34714 0.0854,0.50941 0.0303,0.0536 0.0183,0.13089 0.0257,0.19721 l 0.003,-0.003"
         style="fill:#940d16;fill-opacity:1;fill-rule:nonzero;stroke:none;stroke-width:0.03527778"
         id="path474"
         inkscape:connector-curvature="0" />
      <path
         d="m 155.49871,153.43284 c 0.26071,0 0.52176,-0.008 0.78176,0.004 0.11818,0.005 0.24024,0.0328 0.35101,0.0748 0.16228,0.0617 0.31609,0.14569 0.47414,0.21942 0.16933,0.079 0.25611,0.23637 0.34184,0.38488 0.073,0.12665 -0.0268,0.2727 -0.18203,0.28928 -0.18874,0.0205 -0.3676,0.009 -0.4946,-0.16651 -0.0473,-0.0646 -0.11077,-0.11783 -0.1711,-0.17145 -0.0367,-0.0321 -0.0801,-0.078 -0.12135,-0.0794 -0.23707,-0.007 -0.43321,-0.12453 -0.64065,-0.21449 -0.0384,-0.0166 -0.0882,-0.0116 -0.13299,-0.0116 -0.36407,-0.001 -0.72814,0 -1.0922,-0.001 -0.15487,-3.4e-4 -0.22119,-0.048 -0.22261,-0.15451 -0.002,-0.0967 0.0794,-0.16828 0.21837,-0.1704 0.29669,-0.005 0.59373,-0.002 0.89041,-0.002 0,0 0,-3.4e-4 0,-7.1e-4"
         style="fill:#940d16;fill-opacity:1;fill-rule:nonzero;stroke:none;stroke-width:0.03527778"
         id="path476"
         inkscape:connector-curvature="0" />
      <path
         d="m 136.94225,157.96744 c 0.0162,-0.0692 0.0205,-0.14428 0.0508,-0.20637 0.1016,-0.20779 0.20673,-0.41416 0.32209,-0.61454 0.0646,-0.11183 0.17251,-0.10407 0.29104,-0.055 0.22719,0.0938 0.29527,0.29033 0.36971,0.49177 0.0293,0.079 0.0857,0.14958 0.1076,0.23001 0.0815,0.2988 -0.11042,0.6216 -0.41064,0.70767 -0.0427,0.0123 -0.0808,0.0399 -0.12347,0.0501 -0.0505,0.012 -0.10901,0.0293 -0.15416,0.0148 -0.20073,-0.0646 -0.44133,-0.40781 -0.45297,-0.61842"
         style="fill:#940d16;fill-opacity:1;fill-rule:nonzero;stroke:none;stroke-width:0.03527778"
         id="path478"
         inkscape:connector-curvature="0" />
      <path
         d="m 127.0172,143.48733 c 0.13653,0.11289 0.21696,0.0226 0.30692,-0.0501 0.0702,-0.0568 0.14922,-0.0646 0.18062,0.0385 0.0275,0.0903 0.0582,0.19296 0.0399,0.28045 -0.0236,0.11571 -0.005,0.20461 0.0702,0.28223 0.11853,0.12241 0.24518,0.23706 0.36618,0.35736 0.14217,0.14111 0.28293,0.28363 0.42333,0.42651 0.0533,0.0547 0.10231,0.11324 0.15346,0.16933 0.1711,0.18662 0.33902,0.37571 0.51435,0.55739 0.10936,0.11289 0.22754,0.21414 0.40041,0.2219 0.0487,0.002 0.10442,0.0325 0.14181,0.0663 0.21273,0.19191 0.43709,0.375 0.62195,0.5909 0.0744,0.0871 0.0596,0.25153 0.0815,0.381 0.001,0.0109 -0.0328,0.0413 -0.0427,0.0385 -0.0254,-0.008 -0.0497,-0.0265 -0.0684,-0.0462 -0.0505,-0.0529 -0.0935,-0.11359 -0.14782,-0.16192 -0.0699,-0.0621 -0.15593,-0.1076 -0.22084,-0.17392 -0.1277,-0.13053 -0.27093,-0.22084 -0.44273,-0.2921 -0.1196,-0.0498 -0.20356,-0.18768 -0.30128,-0.28858 -0.0208,-0.0215 -0.0272,-0.0564 -0.0473,-0.0797 -0.1397,-0.16475 -0.27975,-0.3295 -0.42439,-0.49001 -0.031,-0.0346 -0.0815,-0.0744 -0.12312,-0.0741 -0.26458,0.002 -0.3817,-0.2106 -0.514,-0.37253 -0.19367,-0.23671 -0.3503,-0.50377 -0.51858,-0.76059 -0.0847,-0.12841 -0.17533,-0.23918 -0.31397,-0.32138 -0.0765,-0.0455 -0.10689,-0.16863 -0.15805,-0.25682 0.007,-0.0141 0.0152,-0.0282 0.0226,-0.0423"
         style="fill:#940d16;fill-opacity:1;fill-rule:nonzero;stroke:none;stroke-width:0.03527778"
         id="path480"
         inkscape:connector-curvature="0" />
      <path
         d="m 127.02461,139.56585 c 0.0769,0.0705 0.14358,0.16192 0.23354,0.20637 0.1337,0.0667 0.18944,0.16404 0.23001,0.30022 0.0427,0.14287 0.12241,0.27446 0.19509,0.43144 -0.0466,-0.002 -0.0931,0.008 -0.10654,-0.008 -0.0981,-0.11888 -0.18027,-0.25294 -0.28681,-0.36265 -0.0783,-0.0804 -0.14111,-0.22119 -0.31891,-0.14535 0.01,0.10196 0.0198,0.21414 0.0296,0.32138 -0.20002,-0.0938 -0.39723,-0.18626 -0.60254,-0.28257 -0.019,0.0282 -0.0402,0.06 -0.0836,0.12418 -0.11254,-0.11642 -0.21943,-0.22719 -0.32667,-0.33761 0.007,-0.0109 0.0131,-0.0219 0.0194,-0.0328 0.0554,0.0169 0.10936,0.0402 0.16616,0.0497 0.0945,0.0155 0.1845,0.002 0.21484,-0.10689 0.0286,-0.10407 0.004,-0.19191 -0.0829,-0.26917 -0.084,-0.0751 -0.14641,-0.17321 -0.22719,-0.25259 -0.14464,-0.14287 -0.17639,-0.33584 -0.24377,-0.51364 -0.018,-0.0469 -0.0533,-0.0878 -0.0871,-0.14288 0.0734,-0.007 0.17886,0.0762 0.2032,-0.0811 0.0342,0.0688 0.078,0.13512 0.1009,0.20779 0.0219,0.0713 0.0346,0.10266 0.11112,0.048 0.0928,-0.0667 0.14923,-0.0342 0.16087,0.0808 0.0152,0.15099 0.0462,0.1771 0.13864,0.15487 0.11042,0.10125 0.21167,0.18662 0.30339,0.28081 0.0945,0.097 0.17991,0.2032 0.26917,0.30551 -0.004,0.008 -0.007,0.0159 -0.01,0.024"
         style="fill:#940d16;fill-opacity:1;fill-rule:nonzero;stroke:none;stroke-width:0.03527778"
         id="path482"
         inkscape:connector-curvature="0" />
      <path
         d="m 130.30721,141.39888 c 0.0198,0.004 0.054,0.008 0.0854,0.0205 0.0762,0.0296 0.14781,0.10689 0.23495,0.0296 0.0861,-0.0769 0.20743,-0.12594 0.1845,-0.28433 -0.006,-0.0423 0.0617,-0.0991 0.10195,-0.14358 0.0282,-0.0307 0.0674,-0.0519 0.10196,-0.0773 0.004,-0.0162 0.008,-0.0325 0.0113,-0.0487 0.0705,0.0625 0.13723,0.12983 0.21272,0.18627 0.0505,0.0381 0.11324,0.0603 0.17075,0.09 0.0385,-0.079 0.16263,-0.11677 0.1016,-0.24448 -0.0318,-0.0674 -0.0356,-0.14816 -0.054,-0.23071 0.0579,0.0247 0.11607,0.0377 0.15699,0.0713 0.0325,0.0272 0.0466,0.0787 0.0635,0.12135 0.0116,0.0293 0.006,0.0833 0.0222,0.0903 0.15064,0.0624 0.0945,0.20673 0.0596,0.26953 -0.0857,0.15487 0.0325,0.1524 0.10866,0.19226 -0.0318,0.18591 -0.0318,0.18591 0.13652,0.22754 0.0127,0.003 0.0268,0.006 0.037,0.0131 0.0653,0.0483 0.16687,0.32421 0.15805,0.43322 -0.14605,-0.004 -0.22472,-0.12065 -0.28716,-0.21485 -0.0914,-0.13829 -0.20179,-0.2286 -0.3549,-0.26917 -0.0889,-0.0236 -0.18168,-0.0363 -0.2734,-0.0413 -0.10442,-0.006 -0.14393,0.0515 -0.11818,0.1531 0.0162,0.0642 0.0392,0.12665 0.049,0.19156 0.007,0.0437 -0.005,0.0907 -0.008,0.13618 -0.0543,-0.007 -0.10972,-0.0109 -0.16264,-0.0236 -0.0226,-0.006 -0.0416,-0.0293 -0.0617,-0.0455 -0.13687,-0.11359 -0.29492,-0.18909 -0.45649,-0.26105 -0.0469,-0.0208 -0.0699,-0.0974 -0.10266,-0.14923 -0.0342,-0.0547 -0.0677,-0.11042 -0.11747,-0.19191"
         style="fill:#940d16;fill-opacity:1;fill-rule:nonzero;stroke:none;stroke-width:0.03527778"
         id="path484"
         inkscape:connector-curvature="0" />
      <path
         d="m 146.22525,160.25556 c 0.0575,0.0935 0.13229,0.18133 0.16686,0.28293 0.0289,0.0854 -0.004,0.19014 0.018,0.27975 0.0236,0.0991 0.0801,0.18979 0.11994,0.2854 0.0233,0.0564 0.0674,0.12276 0.0536,0.17039 -0.0127,0.043 -0.0924,0.0935 -0.14146,0.0928 -0.084,-7.2e-4 -0.16827,-0.0346 -0.24977,-0.0628 -0.16051,-0.0547 -0.3309,-0.096 -0.4773,-0.1778 -0.31433,-0.17498 -0.60819,-0.381 -0.78282,-0.71261 -0.007,-0.0145 -0.008,-0.0328 -0.0127,-0.054 0.21132,-0.078 0.37465,0.0279 0.52494,0.13476 0.22083,0.15698 0.45896,0.30057 0.57432,0.57467 0.11253,-0.15451 0.066,-0.4833 -0.0466,-0.6417 -0.0861,-0.12065 -0.14429,-0.26317 -0.20144,-0.40146 -0.0303,-0.0741 3.5e-4,-0.14958 0.0871,-0.16757 0.0794,-0.0166 0.15381,0.003 0.17674,0.10054 0.0134,0.0565 0.0427,0.11254 0.0416,0.16863 -0.005,0.21872 0.14923,0.33091 0.27905,0.46073 0.0134,-0.007 0.0268,-0.0148 0.0399,-0.0219 -0.0565,-0.10372 -0.11289,-0.20779 -0.16933,-0.31221 3.4e-4,-7.2e-4 -7.2e-4,0.001 -7.2e-4,0.001"
         style="fill:#940d16;fill-opacity:1;fill-rule:nonzero;stroke:none;stroke-width:0.03527778"
         id="path486"
         inkscape:connector-curvature="0" />
      <path
         d="m 126.94629,162.02756 c -0.18767,0.12206 -0.35383,0.23001 -0.52034,0.33796 -0.0141,0.01 -0.0275,0.0254 -0.0427,0.0279 -0.23354,0.0381 -0.47166,-0.14252 -0.55457,-0.35983 -0.0758,-0.19791 -0.10336,-0.3623 0.0684,-0.51576 0.0155,-0.0134 0.0198,-0.0399 0.0275,-0.061 0.0773,-0.21026 0.18133,-0.26423 0.36971,-0.15769 0.30586,0.17321 0.52317,0.43074 0.65193,0.72848"
         style="fill:#940d16;fill-opacity:1;fill-rule:nonzero;stroke:none;stroke-width:0.03527778"
         id="path488"
         inkscape:connector-curvature="0" />
      <path
         d="m 144.16396,162.95643 c 0.0656,0.004 0.0998,0.0173 0.12065,0.006 0.0543,-0.0296 0.1069,-0.0653 0.15276,-0.10725 0.20179,-0.1838 0.39299,-0.16334 0.53975,0.0663 0.085,0.13229 0.20602,0.24694 0.18873,0.43004 -0.0205,0.21413 -0.13793,0.33337 -0.34889,0.36442 -0.18133,0.0265 -0.35701,0.0586 -0.49989,-0.0953 -0.0293,-0.0314 -0.0557,-0.0688 -0.0723,-0.10795 -0.0314,-0.073 -0.0688,-0.14782 -0.0776,-0.22508 -0.013,-0.1143 -0.003,-0.23107 -0.003,-0.3309"
         style="fill:#940d16;fill-opacity:1;fill-rule:nonzero;stroke:none;stroke-width:0.03527778"
         id="path490"
         inkscape:connector-curvature="0" />
      <path
         d="m 138.94568,165.85732 c -0.004,0.242 -0.22613,0.45191 -0.4752,0.44802 -0.36477,-0.005 -0.51152,-0.15557 -0.51364,-0.52669 -0.001,-0.17568 0.23848,-0.40887 0.41346,-0.40287 0.33302,0.0116 0.57926,0.21801 0.57538,0.48154"
         style="fill:#940d16;fill-opacity:1;fill-rule:nonzero;stroke:none;stroke-width:0.03527778"
         id="path492"
         inkscape:connector-curvature="0" />
      <path
         d="m 136.74434,171.17262 c 0.0787,-0.20179 0.0409,-0.40958 0.22155,-0.52458 0.0416,-0.0261 0.10371,-0.0582 0.14111,-0.0448 0.1651,0.06 0.33937,0.11536 0.48225,0.21308 0.0903,0.0621 0.13264,0.19544 0.19261,0.29915 0.008,0.0145 0.001,0.0473 -0.0109,0.0631 -0.0734,0.0977 -0.14958,0.19333 -0.22754,0.28787 -0.008,0.0102 -0.0339,0.0138 -0.0494,0.0102 -0.19438,-0.043 -0.39299,-0.0769 -0.58173,-0.139 -0.0699,-0.0229 -0.11747,-0.11324 -0.16792,-0.1651"
         style="fill:#940d16;fill-opacity:1;fill-rule:nonzero;stroke:none;stroke-width:0.03527778"
         id="path494"
         inkscape:connector-curvature="0" />
      <path
         d="m 137.22941,159.5934 c -7.1e-4,0.22683 -0.16721,0.43356 -0.3556,0.42192 -0.17674,-0.0109 -0.42827,-0.19862 -0.41028,-0.4505 0.0152,-0.21766 0.17569,-0.40358 0.38982,-0.375 0.23354,0.031 0.41134,0.12664 0.37606,0.40358"
         style="fill:#940d16;fill-opacity:1;fill-rule:nonzero;stroke:none;stroke-width:0.03527778"
         id="path496"
         inkscape:connector-curvature="0" />
      <path
         d="m 137.61535,162.72959 c -0.0924,-0.0152 -0.15875,-0.0162 -0.21766,-0.0374 -0.12065,-0.0438 -0.23672,-0.0995 -0.3556,-0.14781 -0.1263,-0.0512 -0.15276,-0.15487 -0.14217,-0.27411 0.0109,-0.12277 0.11959,-0.24483 0.21978,-0.25683 0.17074,-0.0198 0.27905,0.0642 0.3235,0.2339 0.0272,0.10477 0.0744,0.20461 0.11183,0.30656 0.0176,0.048 0.0332,0.0967 0.0603,0.17568"
         style="fill:#940d16;fill-opacity:1;fill-rule:nonzero;stroke:none;stroke-width:0.03527778"
         id="path498"
         inkscape:connector-curvature="0" />
      <path
         d="m 148.3278,159.9557 c 0.0236,-0.0709 0.0399,-0.14535 0.0716,-0.21202 0.0427,-0.0885 0.11536,-0.1203 0.21237,-0.0825 0.0374,0.0145 0.0769,0.0268 0.11607,0.0317 0.11042,0.0141 0.19014,0.0684 0.20602,0.17992 0.0159,0.11359 0.0286,0.22789 -0.0931,0.31256 -0.1083,0.0759 -0.21308,0.14217 -0.34466,0.0787 -0.12418,-0.06 -0.16052,-0.17286 -0.16828,-0.30833"
         style="fill:#940d16;fill-opacity:1;fill-rule:nonzero;stroke:none;stroke-width:0.03527778"
         id="path500"
         inkscape:connector-curvature="0" />
      <path
         d="m 132.93611,141.90759 c -0.0921,-0.14323 -0.16722,-0.25965 -0.22331,-0.34678 0.10654,0 0.24941,0 0.42898,0 -0.0268,-0.0995 -0.0536,-0.18274 -0.0706,-0.26811 -0.0127,-0.0646 -0.0123,-0.13159 -0.018,-0.19968 0.15205,0.0233 0.17286,0.13865 0.17215,0.22543 -0.001,0.27023 0.10725,0.50835 0.18415,0.75671 0.009,0.0282 0.009,0.0593 0.0106,0.073 -0.0533,0 -0.10266,0.01 -0.14641,-0.002 -0.0522,-0.0152 -0.12982,-0.0378 -0.14322,-0.0762 -0.0427,-0.12065 -0.12453,-0.16298 -0.19438,-0.16192"
         style="fill:#940d16;fill-opacity:1;fill-rule:nonzero;stroke:none;stroke-width:0.03527778"
         id="path502"
         inkscape:connector-curvature="0" />
      <path
         d="m 157.88808,143.15783 c -0.004,0.16616 -0.17286,0.34678 -0.32138,0.34184 -0.13864,-0.004 -0.29316,-0.19508 -0.28999,-0.35771 0.002,-0.14394 0.13829,-0.22931 0.35384,-0.22296 0.14393,0.005 0.26,0.11254 0.25753,0.23883"
         style="fill:#940d16;fill-opacity:1;fill-rule:nonzero;stroke:none;stroke-width:0.03527778"
         id="path504"
         inkscape:connector-curvature="0" />
      <path
         d="m 132.1032,160.4316 c 0.0113,0.121 -0.0688,0.18767 -0.17957,0.2226 -0.12523,0.0392 -0.26317,0.0773 -0.35983,-0.0437 -0.0349,-0.043 -0.0413,-0.15205 -0.0109,-0.1965 0.0787,-0.11501 0.18909,-0.20355 0.34537,-0.19932 0.14111,0.004 0.20425,0.0663 0.20496,0.21696"
         style="fill:#940d16;fill-opacity:1;fill-rule:nonzero;stroke:none;stroke-width:0.03527778"
         id="path506"
         inkscape:connector-curvature="0" />
      <path
         d="m 138.86912,160.23192 c 0.15346,-0.001 0.24659,0.0868 0.24977,0.23813 0.003,0.12665 -0.14393,0.28151 -0.27023,0.28504 -0.10654,0.003 -0.19685,-0.12841 -0.20143,-0.29245 -0.004,-0.14217 0.0801,-0.22931 0.22189,-0.23072"
         style="fill:#940d16;fill-opacity:1;fill-rule:nonzero;stroke:none;stroke-width:0.03527778"
         id="path508"
         inkscape:connector-curvature="0" />
      <path
         d="m 143.85352,149.46479 c -7.1e-4,-0.14569 0.10301,-0.24412 0.25541,-0.242 0.12947,0.002 0.23566,0.10901 0.23707,0.23812 0.001,0.10619 -0.15134,0.23919 -0.28011,0.24412 -0.11465,0.005 -0.21202,-0.10583 -0.21237,-0.24024"
         style="fill:#940d16;fill-opacity:1;fill-rule:nonzero;stroke:none;stroke-width:0.03527778"
         id="path510"
         inkscape:connector-curvature="0" />
      <path
         d="m 132.58827,159.34045 c 0.002,0.14041 -0.12206,0.25894 -0.25788,0.24271 -0.0254,-0.003 -0.0512,-0.0279 -0.0699,-0.049 -0.0346,-0.0388 -0.0741,-0.078 -0.0931,-0.12453 -0.0264,-0.0642 -0.0649,-0.14534 -0.0451,-0.20037 0.0194,-0.0529 0.1023,-0.11007 0.16263,-0.11642 0.19614,-0.0215 0.30127,0.0741 0.30339,0.24765"
         style="fill:#940d16;fill-opacity:1;fill-rule:nonzero;stroke:none;stroke-width:0.03527778"
         id="path512"
         inkscape:connector-curvature="0" />
      <path
         d="m 147.21408,159.27872 c 0.002,0.12876 -0.073,0.20038 -0.21131,0.20355 -0.13229,0.003 -0.27693,-0.1524 -0.27482,-0.29527 0.001,-0.10019 0.0903,-0.15558 0.25365,-0.1577 0.14499,-0.002 0.23072,0.09 0.23248,0.24942"
         style="fill:#940d16;fill-opacity:1;fill-rule:nonzero;stroke:none;stroke-width:0.03527778"
         id="path514"
         inkscape:connector-curvature="0" />
      <path
         d="m 150.42718,160.40549 c -0.031,0.20038 -0.16122,0.2981 -0.32702,0.24941 -0.13865,-0.0406 -0.16122,-0.11042 -0.073,-0.2233 0.0215,-0.0279 0.0448,-0.0565 0.0593,-0.0882 0.0395,-0.0882 0.11677,-0.12912 0.19508,-0.0956 0.06,0.0257 0.0977,0.10336 0.1457,0.15769"
         style="fill:#940d16;fill-opacity:1;fill-rule:nonzero;stroke:none;stroke-width:0.03527778"
         id="path516"
         inkscape:connector-curvature="0" />
      <path
         d="m 138.91992,162.28227 c -0.10689,-0.26882 -0.0903,-0.36619 0.0684,-0.41522 0.0917,-0.0286 0.19862,0.0377 0.22508,0.14005 0.0318,0.12312 -0.0843,0.2353 -0.29352,0.27517"
         style="fill:#940d16;fill-opacity:1;fill-rule:nonzero;stroke:none;stroke-width:0.03527778"
         id="path518"
         inkscape:connector-curvature="0" />
      <path
         d="m 143.60093,156.92851 c -0.13547,0.004 -0.2667,-0.0847 -0.24306,-0.15134 0.0229,-0.0628 0.091,-0.14041 0.15134,-0.1524 0.12241,-0.0251 0.13794,0.0956 0.14887,0.17886 0.006,0.0434 -0.042,0.0942 -0.0572,0.12488"
         style="fill:#940d16;fill-opacity:1;fill-rule:nonzero;stroke:none;stroke-width:0.03527778"
         id="path520"
         inkscape:connector-curvature="0" />
      <path
         d="m 162.8178,146.11199 c -0.0759,-0.0713 -0.15029,-0.10759 -0.1584,-0.15522 -0.0183,-0.10936 0.0628,-0.19332 0.15734,-0.18874 0.0871,0.004 0.15839,0.0515 0.14181,0.139 -0.012,0.0632 -0.0773,0.11642 -0.14075,0.20496"
         style="fill:#940d16;fill-opacity:1;fill-rule:nonzero;stroke:none;stroke-width:0.03527778"
         id="path522"
         inkscape:connector-curvature="0" />
      <path
         d="m 163.39212,141.55869 c 0.0226,0.031 0.0787,0.0769 0.0914,0.13264 0.0187,0.0804 -0.085,0.18768 -0.16334,0.18098 -0.0931,-0.008 -0.13017,-0.0737 -0.12629,-0.15981 0.004,-0.0952 0.0561,-0.14781 0.19826,-0.15381"
         style="fill:#940d16;fill-opacity:1;fill-rule:nonzero;stroke:none;stroke-width:0.03527778"
         id="path524"
         inkscape:connector-curvature="0" />
      <path
         d="m 139.53446,144.89703 c 0.0547,-0.008 0.11289,-0.0159 0.18697,-0.0265 -0.01,0.0727 -0.0293,0.16475 -0.031,0.25717 -7.1e-4,0.0243 0.0526,0.0505 0.0822,0.0744 0.0279,0.0222 0.0575,0.043 0.0864,0.0649 -0.006,0.012 -0.0134,0.024 -0.0198,0.0363 -0.0469,0 -0.0938,0 -0.12735,0 -0.0617,-0.14147 -0.12171,-0.2787 -0.17745,-0.4064"
         style="fill:#940d16;fill-opacity:1;fill-rule:nonzero;stroke:none;stroke-width:0.03527778"
         id="path526"
         inkscape:connector-curvature="0" />
      <path
         d="m 132.30675,141.69239 c 0,-0.0642 -0.0226,-0.16862 0.005,-0.18379 0.0529,-0.0296 0.13406,-0.009 0.21237,-0.009 -0.067,0.0766 -0.12206,0.13934 -0.17709,0.20214 -0.0134,-0.003 -0.0268,-0.006 -0.0399,-0.01"
         style="fill:#940d16;fill-opacity:1;fill-rule:nonzero;stroke:none;stroke-width:0.03527778"
         id="path528"
         inkscape:connector-curvature="0" />
      <path
         d="m 145.97654,159.58034 c 0.0243,0.0321 0.042,0.0734 0.0734,0.0952 0.21096,0.14782 0.20672,0.35878 0.17603,0.57926 -7.1e-4,7.2e-4 3.5e-4,-10e-4 0,-7.1e-4 -10e-4,-0.0258 -0.007,-0.0533 -0.002,-0.0787 0.0289,-0.18344 -0.0353,-0.3235 -0.17886,-0.44027 -0.0392,-0.0314 -0.0448,-0.10371 -0.0656,-0.15769 3.5e-4,-3.4e-4 -0.002,0.003 -0.002,0.003"
         style="fill:#940d16;fill-opacity:1;fill-rule:nonzero;stroke:none;stroke-width:0.03527778"
         id="path530"
         inkscape:connector-curvature="0" />
      <path
         d="m 139.40393,144.82118 c -0.0448,0 -0.0794,0 -0.121,0 0,-0.0744 0,-0.14499 0,-0.21484 0.11571,0.0258 0.13194,0.0522 0.121,0.21484"
         style="fill:#940d16;fill-opacity:1;fill-rule:nonzero;stroke:none;stroke-width:0.03527778"
         id="path532"
         inkscape:connector-curvature="0" />
      <path
         d="m 141.90054,144.38373 c -0.03,-0.15275 0.0794,-0.18203 0.16687,-0.22965 -3.5e-4,0.11571 -0.0363,0.20461 -0.16687,0.22965"
         style="fill:#940d16;fill-opacity:1;fill-rule:nonzero;stroke:none;stroke-width:0.03527778"
         id="path534"
         inkscape:connector-curvature="0" />
    </g>
  </g>
</svg>
