<?xml version="1.0" encoding="UTF-8"?>
<svg width="198.55" height="228.74" version="1.1" viewBox="0 0 198.54678 228.73514" xmlns="http://www.w3.org/2000/svg">
<defs>
    <linearGradient id="gradient1" x1="0%" y1="0%" x2="100%" y2="0%">
      <stop offset="0%" style="stop-color:#333333;stop-opacity:0.3" />
      <stop offset="100%" style="stop-color:#cccccc;stop-opacity:0.5" />
    </linearGradient>
<style>
  .death-svg {
    fill: url(#gradient1);
    filter: blur(2px)
  }
</style>
</defs>


 <path class="death-svg" d="m114.04 228.72c-0.51831-0.0248-6.6911-1.057-14.063-1.5051-12.081-0.73436-17.065-1.2991-29.402-3.3311-4.7814-0.78755-8.4124-3.4483-7.6138-5.5792 0.32212-0.85951 1.5833-1.5627 2.8026-1.5627s2.5306-0.32398 2.9141-0.71995c0.38344-0.39597 2.612-1.1519 4.9525-1.6799 4.1446-0.93496 4.3166-1.1223 6.6093-7.1995 3.0982-8.2122 8.3691-29.337 9.5805-38.397 0.52945-3.9597 2.4127-13.895 4.185-22.079 1.7723-8.1834 4.1125-21.694 5.2004-30.023 1.0879-8.3294 2.2024-15.743 2.4765-16.474 0.36113-0.96358-0.97016-1.6665-4.8323-2.5515-10.272-2.3537-10.46-5.5323-1.2988-21.986 0.73486-1.3199 1.5808-2.6158 1.88-2.8798s1.1404-1.8839 1.8695-3.5998c1.7361-2.9778 2.2252-5.3489 3.8788-7.7386 0.88955-0.91083-0.18753-2.566-4.9661-7.6315-3.3561-3.5576-10.906-11.624-16.778-17.925-6.854-7.355-11.458-11.542-12.86-11.695-3.9934-0.43595-19.806 16.52-31.438 33.711-11.432 16.895-24.31 42.379-32.698 64.704l-4.1133 10.947-0.27854-9.5074c-0.86571-29.549 11.786-59.313 43.478-102.29 5.373-7.2856 9.7691-13.601 9.7691-14.035 0-0.43364 1.582-2.3429 3.5156-4.2429l3.5156-3.4545 7.9688 9.0239c14.881 16.851 36.812 40.692 37.433 40.692 0.33979 0 1.1123-2.4141 1.7167-5.3646 0.76561-3.7374 2.5374-7.4497 5.8415-12.239 2.6084-3.781 6.4262-9.5992 8.484-12.929 4.5137-7.3046 8.1766-9.3146 15.554-8.5351 7.1369 0.75422 9.5546 2.3383 18.985 12.439l4.1072 4.3993-2.8408 6.216c-1.5624 3.4188-4.5029 8.7782-6.5344 11.91l-3.6936 5.6938 2.799 10.964c2.3337 9.1412 2.8706 13.388 3.2291 25.542l0.43001 14.578 22.399 24.299c12.319 13.365 22.376 24.515 22.349 24.779-0.0271 0.26398-1.2801 1.4751-2.7845 2.6913l-2.7352 2.2113-8.7397-9.4108c-4.8068-5.176-13.361-14.394-19.01-20.484l-10.27-11.074-0.28112 3.9981c-0.15461 2.1989 0.34385 6.7573 1.1077 10.13 3.3548 14.812 3.054 26.802-1.8196 72.529-1.7427 16.351-1.7566 16.107 0.99301 17.39 2.4462 1.1412 5.5754 3.4258 3.7764 4.5643-4.0529 2.5648-40.584 4.908-44.749 4.7086z"/>
</svg>
