<svg viewbox="0 0 100.68 100.76" xmlns="http://www.w3.org/2000/svg" xmlns:undefined="http://www.inkscape.org/namespaces/inkscape" version="1.1" xml:space="preserve">
 <defs id="defs6">
  <clipPath id="clipPath18">
   <path  d="m79.59529,23.12053c-1.071,-5.219 -2.934,-9.367 -5.586,-12.445c-2.789,-3.196 -6.727,-5.555 -11.809,-7.075c-5.058,-1.515 -11.695,-2.324 -19.91,-2.425c-16.172,-0.184 -27.262,2.738 -33.269,8.769c-3.059,3.055 -5.274,7.156 -6.649,12.293c-1.273,4.758 -1.953,10.899 -2.035,18.43c-0.16,13.699 3.684,24.129 11.535,31.293c7.004,6.418 16.484,9.683 28.445,9.805c11.938,0.144 21.438,-2.915 28.5,-9.165c7.895,-6.964 11.911,-17.304 12.051,-31.023c0.082,-7.691 -0.344,-13.844 -1.273,-18.457z" id="path20"/>
  </clipPath>
  <clipPath id="clipPath26">
   <path  d="m-0.00845,-0.66428l133.42,0l0,133.42l-133.42,0l0,-133.42z" id="path28"/>
  </clipPath>
  <mask id="mask38">
   <g id="g40">
    <g clip-path="url(#clipPath26)" id="g42">
     <path fill="url(#radialGradient30)"  d="m-0.00845,-0.66428l133.42,0l0,133.42l-133.42,0l0,-133.42z" id="path44"/>
    </g>
   </g>
  </mask>
  <clipPath id="clipPath62">
   <path  d="m6,6.6063l69,0l0,68l-69,0l0,-68z" id="path64"/>
  </clipPath>
  <mask id="mask66">
   <g id="g68">
    <g clip-path="url(#clipPath62)" id="g70">
     <path fill="#000000" fill-opacity="0.6016"  d="m6,6.6063l69,0l0,68l-69,0l0,-68z" id="path72"/>
    </g>
   </g>
  </mask>
  <clipPath id="clipPath78">
   <path  d="m6.33329,7.77283l69,0l0,68l-69,0l0,-68z" id="path80"/>
  </clipPath>
  <clipPath id="clipPath82">
   <path  d="m6.33329,7.77287l69,0l0,68l-69,0l0,-68z" id="path84"/>
  </clipPath>
  <radialGradient r="66.361" cx="66.329" cy="66.377" gradientUnits="userSpaceOnUse" id="radialGradient30">
   <stop stop-color="#ffffff" offset="0" id="stop32"/>
   <stop stop-color="#ffffff" stop-opacity="0.28629" offset="0.8824" id="stop34"/>
   <stop stop-color="#ffffff" stop-opacity="0" offset="1" id="stop36"/>
  </radialGradient>
  <linearGradient x1="-0.00003" y1="0.49412" x2="0.99976" y2="0.50567" id="linearGradient90">
   <stop stop-color="#665736" offset="0" id="stop92"/>
   <stop stop-color="#ffffff" offset="1" id="stop94"/>
  </linearGradient>
 </defs>
 <metadata>image/svg+xmlOpenclipart</metadata>
 <g>
  <title>Layer 1</title>
  <g transform="matrix(1.25, 0, 0, -1.25, 0, 100.76)" id="g10">
   <g id="g12">
    <g id="g14">
     <g clip-path="url(#clipPath18)" id="g16"/>
    </g>
    <path fill-rule="evenodd" fill="#23322e"  d="m74.49729,41.57753c0.078,-6.375 -0.285,-11.484 -1.094,-15.328c-0.89,-4.332 -2.461,-7.774 -4.707,-10.32c-4.492,-5.122 -13.386,-7.75 -26.679,-7.895c-13.602,-0.16 -22.942,2.258 -28.02,7.258c-4.715,4.652 -7.144,13.152 -7.285,25.496c-0.121,11.375 3.117,20.035 9.715,25.984c5.886,5.325 13.871,8.043 23.949,8.164c10.039,0.125 18.031,-2.418 23.98,-7.617c6.637,-5.769 10.02,-14.347 10.141,-25.742z" id="path56"/>
    <g id="g58">
     <g mask="url(#mask66)" id="g74">
      <g id="g96">
       <g clip-path="url(#clipPath78)" id="g98">
        <g id="g100">
         <g id="g104">
          <g clip-path="url(#clipPath82)" id="g106">
           <g id="g108">
            <g id="g110">
             <g id="g112">
              <g id="g114">
               <path fill-rule="evenodd" fill="url(#linearGradient90)"  d="m68.88429,15.83487c-4.492,-5.117 -13.387,-7.75 -26.684,-7.89c-13.597,-0.164 -22.937,2.254 -28.015,7.254c-4.715,4.656 -7.145,13.156 -7.286,25.5c-0.121,11.371 3.114,20.035 9.711,25.984c5.891,5.32 13.875,8.043 23.953,8.164c10.036,0.121 18.032,-2.418 23.981,-7.617c6.637,-5.769 10.019,-14.348 10.141,-25.742c0.078,-6.375 -0.286,-11.485 -1.094,-15.332c-0.891,-4.328 -2.461,-7.77 -4.707,-10.321z" id="path116"/>
              </g>
             </g>
            </g>
           </g>
          </g>
         </g>
        </g>
       </g>
      </g>
     </g>
    </g>
    <path fill-rule="evenodd" fill="#1e2520"  d="m71.06729,58.45253c2.286,-4.777 3.469,-10.453 3.551,-17.031c0.082,-6.371 -0.285,-11.485 -1.094,-15.328c-0.89,-4.332 -2.457,-7.77 -4.703,-10.321c-4.496,-5.121 -13.39,-7.75 -26.683,-7.894c-7.367,-0.102 -13.36,0.496 -17.973,1.793c-4.633,1.293 -8.258,3.398 -10.867,6.312c2.691,-1.66 6.062,-2.863 10.109,-3.613c4.008,-0.746 8.864,-1.09 14.571,-1.031c13.296,0.14 22.199,2.773 26.714,7.894c2.246,2.551 3.813,5.989 4.703,10.321c0.809,3.843 1.176,8.953 1.094,15.328c-0.121,10.402 -2.996,18.5 -8.621,24.285c3.988,-2.692 7.055,-6.262 9.199,-10.715z" id="path118"/>
   </g>
  </g>
 </g>
</svg>