<svg version="1.1" xmlns="http://www.w3.org/2000/svg" viewBox="0 0 131.154052734375 270.91241455078125" width="131.154052734375" height="270.91241455078125">
  <!-- svg-source:excalidraw -->
  <def>
    <style>
      .hanging-rack {fill: #000}
      .hangman-head {fill: var(--hangman-head-colour)}
      .hangman-body {fill: var(--hangman-body-colour)}
      .hangman-leftarm {fill: var(--hangman-leftarm-colour)}
      .hangman-rightarm {fill: var(--hangman-rightarm-colour)}
      .hangman-leftleg {fill: var(--hangman-leftleg-colour)}
      .hangman-rightleg {fill: var(--hangman-rightleg-colour)}
      g,path {
        transition: fill 1s ease;
      }
      rect {
        transition: fill 0.3s ease-out;
      }
    </style>
  </def>
 
  <rect x="0" y="0" width="131.154052734375" height="270.91241455078125" fill=var(--background)></rect><g transform="translate(101.7333984375 12.3369140625) rotate(0 -33.09619140625 123.06817626953125)" stroke="none" class="hanging-rack"><path d="M -3.36,2.63 Q -3.36,2.63 -6.72,3.15 -10.07,3.66 -14.14,4.35 -18.20,5.05 -22.41,5.66 -26.62,6.28 -30.45,6.68 -34.28,7.09 -38.41,7.26 -42.53,7.43 -46.30,7.49 -50.06,7.56 -52.82,7.59 -55.57,7.61 -56.91,7.68 -58.24,7.74 -58.29,9.54 -58.34,11.33 -58.45,13.73 -58.57,16.14 -58.64,18.75 -58.71,21.36 -58.93,25.18 -59.15,29.00 -59.80,34.43 -60.44,39.87 -61.28,46.38 -62.11,52.89 -63.01,59.43 -63.92,65.98 -64.47,71.20 -65.02,76.41 -65.26,79.98 -65.49,83.55 -65.60,87.75 -65.70,91.95 -65.75,96.20 -65.79,100.46 -65.81,106.04 -65.83,111.62 -65.84,115.99 -65.85,120.36 -65.86,126.46 -65.86,132.55 -65.75,136.27 -65.63,139.99 -65.36,142.24 -65.08,144.49 -64.64,145.99 -64.21,147.49 -64.05,149.64 -63.89,151.78 -63.85,154.05 -63.81,156.32 -63.74,158.22 -63.68,160.11 -63.47,161.64 -63.25,163.17 -63.10,164.58 -62.94,166.00 -62.83,167.14 -62.71,168.29 -62.59,169.60 -62.47,170.92 -62.41,172.12 -62.35,173.32 -62.34,174.40 -62.33,175.49 -62.57,177.11 -62.82,178.73 -62.96,180.07 -63.09,181.41 -63.08,182.83 -63.08,184.25 -63.04,185.40 -63.00,186.56 -63.05,187.97 -63.10,189.37 -63.31,191.77 -63.51,194.18 -63.67,197.87 -63.84,201.57 -63.96,205.42 -64.08,209.26 -64.17,212.26 -64.26,215.26 -64.33,217.48 -64.40,219.69 -64.39,221.56 -64.38,223.44 -64.30,224.73 -64.21,226.03 -64.06,227.42 -63.91,228.81 -62.75,230.74 -61.59,232.66 -61.32,234.74 -61.04,236.82 -60.85,238.72 -60.65,240.62 -60.48,241.70 -60.31,242.78 -59.84,243.89 -59.37,245.00 -59.29,245.39 -59.21,245.79 -59.26,246.19 -59.32,246.59 -59.49,246.95 -59.67,247.31 -59.95,247.59 -60.23,247.88 -60.59,248.06 -60.95,248.24 -61.35,248.29 -61.75,248.35 -62.14,248.28 -62.54,248.20 -62.89,248.01 -63.24,247.81 -63.51,247.51 -63.78,247.22 -63.94,246.85 -64.10,246.48 -64.13,246.08 -64.17,245.68 -64.07,245.29 -63.98,244.90 -63.76,244.56 -63.55,244.22 -63.24,243.97 -62.93,243.71 -62.55,243.57 -62.17,243.43 -61.77,243.42 -61.37,243.41 -60.99,243.52 -60.60,243.64 -60.27,243.87 -59.95,244.10 -59.71,244.43 -59.47,244.75 -59.35,245.14 -59.23,245.52 -59.24,245.92 -59.25,246.32 -59.39,246.70 -59.53,247.08 -59.78,247.39 -60.03,247.71 -60.36,247.93 -60.70,248.14 -61.09,248.24 -61.48,248.34 -61.88,248.31 -62.28,248.28 -62.65,248.12 -63.02,247.97 -63.32,247.70 -63.62,247.43 -63.82,247.08 -64.02,246.74 -64.24,246.00 -64.45,245.27 -64.67,243.23 -64.89,241.19 -65.19,239.37 -65.50,237.55 -66.05,234.99 -66.61,232.44 -67.43,230.64 -68.25,228.85 -68.10,227.44 -67.95,226.03 -67.87,224.73 -67.78,223.44 -67.77,221.56 -67.76,219.69 -67.83,217.48 -67.90,215.26 -67.99,212.26 -68.08,209.26 -68.20,205.42 -68.33,201.57 -68.49,197.87 -68.65,194.17 -68.85,191.77 -69.05,189.37 -69.10,187.95 -69.15,186.52 -69.09,185.32 -69.03,184.12 -68.90,182.21 -68.77,180.29 -68.53,179.13 -68.29,177.97 -68.14,176.72 -67.98,175.48 -67.97,174.40 -67.96,173.32 -67.90,172.12 -67.84,170.92 -67.72,169.61 -67.59,168.29 -67.48,167.15 -67.37,166.00 -67.22,164.60 -67.07,163.20 -66.89,161.68 -66.71,160.16 -66.70,158.28 -66.69,156.40 -66.78,154.20 -66.86,152.00 -67.01,150.07 -67.15,148.14 -67.42,146.48 -67.69,144.81 -67.98,142.45 -68.27,140.08 -68.39,136.31 -68.50,132.55 -68.50,126.45 -68.50,120.36 -68.50,115.99 -68.49,111.61 -68.47,106.02 -68.46,100.43 -68.42,96.16 -68.38,91.89 -68.29,87.63 -68.20,83.37 -67.97,79.75 -67.74,76.13 -67.21,70.87 -66.67,65.61 -65.80,59.07 -64.92,52.54 -64.13,46.04 -63.34,39.54 -62.76,34.20 -62.17,28.86 -62.03,25.09 -61.89,21.33 -61.92,18.70 -61.95,16.07 -61.97,13.60 -61.99,11.13 -61.83,8.75 -61.67,6.37 -59.89,5.47 -58.12,4.56 -56.86,4.73 -55.60,4.91 -52.86,4.87 -50.12,4.83 -46.39,4.74 -42.65,4.65 -38.62,4.46 -34.60,4.28 -30.83,3.84 -27.06,3.40 -22.90,2.74 -18.73,2.08 -14.66,1.31 -10.59,0.54 -7.41,-0.03 -4.23,-0.61 -2.13,-1.14 -0.03,-1.68 0.17,-1.66 0.37,-1.64 0.56,-1.57 0.75,-1.50 0.92,-1.39 1.09,-1.27 1.22,-1.13 1.36,-0.98 1.46,-0.80 1.56,-0.62 1.61,-0.42 1.66,-0.23 1.66,-0.03 1.67,0.17 1.62,0.36 1.58,0.56 1.49,0.74 1.40,0.92 1.27,1.08 1.13,1.23 0.97,1.35 0.80,1.47 0.62,1.54 0.43,1.62 -1.46,2.13 L -3.36,2.63 Z"></path></g><g transform="translate(10 259.66802978515625) rotate(0 30.6236572265625 -0.77557373046875)" stroke="none"  class="hanging-rack"><path d="M 6.82,-2.59 Q 6.82,-2.59 11.45,-3.08 16.08,-3.57 21.21,-3.76 26.35,-3.96 31.21,-4.03 36.07,-4.10 40.71,-3.29 45.36,-2.48 48.84,-2.00 52.31,-1.53 54.62,-1.18 56.93,-0.83 58.16,-0.81 59.38,-0.79 60.31,-0.69 61.25,-0.58 61.52,-0.48 61.79,-0.37 62.01,-0.18 62.23,-0.00 62.38,0.24 62.53,0.49 62.60,0.77 62.66,1.05 62.63,1.34 62.60,1.63 62.48,1.89 62.36,2.16 62.16,2.37 61.96,2.58 61.71,2.72 61.45,2.86 61.17,2.90 60.88,2.95 60.60,2.91 60.31,2.86 60.05,2.73 59.79,2.59 59.59,2.38 59.39,2.17 59.27,1.91 59.15,1.65 59.11,1.36 59.08,1.07 59.14,0.79 59.20,0.50 59.35,0.26 59.50,0.01 59.72,-0.17 59.94,-0.36 60.21,-0.47 60.48,-0.58 60.77,-0.60 61.06,-0.61 61.34,-0.54 61.62,-0.46 61.86,-0.30 62.10,-0.14 62.28,0.08 62.45,0.31 62.55,0.59 62.64,0.86 62.64,1.15 62.64,1.44 62.55,1.72 62.46,1.99 62.29,2.22 62.11,2.46 61.87,2.62 61.63,2.78 61.35,2.86 61.08,2.94 60.79,2.93 60.50,2.91 59.75,2.66 59.01,2.40 57.77,2.13 56.54,1.87 54.24,1.54 51.94,1.22 48.41,0.76 44.88,0.30 40.50,-0.44 36.11,-1.19 31.30,-1.06 26.48,-0.94 21.46,-0.68 16.44,-0.41 11.85,0.17 7.25,0.76 3.53,1.21 -0.18,1.67 -0.38,1.63 -0.58,1.58 -0.76,1.49 -0.94,1.39 -1.10,1.26 -1.25,1.13 -1.37,0.96 -1.48,0.79 -1.56,0.60 -1.63,0.41 -1.66,0.21 -1.68,0.01 -1.66,-0.18 -1.64,-0.39 -1.57,-0.58 -1.50,-0.77 -1.38,-0.94 -1.27,-1.10 -1.12,-1.24 -0.97,-1.38 -0.79,-1.47 -0.61,-1.57 -0.41,-1.62 -0.21,-1.67 3.30,-2.13 L 6.82,-2.59 Z"></path></g><g transform="translate(105.92236328125 10) rotate(0 -0.7144775390625 18.487701416015625)" stroke="none" class="hanging-rack"><path d="M 1.96,3.61 Q 1.96,3.61 1.89,7.07 1.81,10.53 1.42,14.74 1.03,18.95 0.67,22.94 0.32,26.94 0.01,29.81 -0.30,32.67 -0.38,34.00 -0.47,35.33 -0.54,35.87 -0.62,36.41 -0.71,36.67 -0.79,36.94 -0.95,37.16 -1.11,37.38 -1.34,37.54 -1.56,37.70 -1.83,37.78 -2.09,37.86 -2.37,37.85 -2.64,37.84 -2.90,37.74 -3.16,37.64 -3.37,37.47 -3.58,37.29 -3.73,37.06 -3.88,36.83 -3.94,36.56 -4.01,36.29 -3.98,36.02 -3.96,35.74 -3.85,35.49 -3.73,35.24 -3.55,35.03 -3.36,34.83 -3.12,34.70 -2.88,34.56 -2.61,34.51 -2.34,34.46 -2.07,34.50 -1.79,34.54 -1.55,34.67 -1.30,34.79 -1.11,34.99 -0.92,35.19 -0.80,35.43 -0.68,35.68 -0.64,35.95 -0.61,36.23 -0.66,36.50 -0.71,36.77 -0.85,37.01 -0.99,37.25 -1.20,37.43 -1.40,37.61 -1.66,37.72 -1.91,37.82 -2.19,37.84 -2.46,37.86 -2.73,37.79 -2.99,37.73 -3.22,37.58 -3.46,37.43 -3.63,37.21 -3.80,36.99 -3.89,36.73 -3.98,36.47 -3.99,36.20 -3.99,35.92 -3.91,35.38 -3.84,34.84 -3.55,33.61 -3.26,32.38 -3.01,29.54 -2.77,26.70 -2.50,22.70 -2.24,18.69 -1.98,14.61 -1.71,10.53 -1.80,7.09 -1.89,3.65 -1.88,1.60 -1.88,-0.44 -1.80,-0.66 -1.71,-0.88 -1.58,-1.07 -1.45,-1.26 -1.28,-1.42 -1.11,-1.57 -0.90,-1.68 -0.70,-1.79 -0.47,-1.85 -0.25,-1.91 -0.01,-1.91 0.21,-1.92 0.44,-1.86 0.66,-1.81 0.87,-1.70 1.08,-1.60 1.25,-1.44 1.43,-1.29 1.56,-1.10 1.70,-0.91 1.78,-0.69 1.87,-0.48 1.90,-0.24 1.93,-0.01 1.95,1.79 L 1.96,3.61 Z"></path></g><g transform="translate(118.38555908203125 52.80438232421875) rotate(0 -20.249664306640625 12.27215576171875)" stroke="none" class="hangman-head"><path d="M -3.51,0.88 Q -3.51,0.88 -6.62,-0.26 -9.73,-1.42 -15.26,-2.96 -20.80,-4.50 -24.54,-5.61 -28.29,-6.72 -30.26,-7.28 -32.22,-7.83 -33.81,-8.16 -35.39,-8.50 -35.68,-6.77 -35.97,-5.03 -36.63,-3.55 -37.28,-2.06 -37.78,-0.57 -38.27,0.92 -38.64,2.72 -39.02,4.52 -39.16,6.19 -39.30,7.87 -39.30,10.09 -39.30,12.31 -38.82,14.51 -38.34,16.70 -37.21,19.00 -36.08,21.29 -34.38,23.36 -32.68,25.42 -30.78,27.12 -28.89,28.82 -27.05,29.76 -25.20,30.70 -23.62,31.39 -22.04,32.07 -21.01,32.35 -19.98,32.63 -18.79,32.80 -17.61,32.96 -15.20,31.09 -12.78,29.22 -11.50,28.20 -10.21,27.18 -9.71,26.23 -9.20,25.29 -8.92,23.59 -8.63,21.89 -8.42,19.30 -8.21,16.71 -8.37,14.09 -8.54,11.48 -8.74,8.96 -8.94,6.44 -9.38,4.76 -9.81,3.07 -10.25,1.76 -10.69,0.44 -11.35,-0.82 -12.00,-2.09 -12.12,-2.32 -12.23,-2.55 -12.32,-2.88 -12.42,-3.21 -12.41,-3.55 -12.39,-3.89 -12.27,-4.22 -12.15,-4.54 -11.93,-4.80 -11.71,-5.07 -11.42,-5.25 -11.13,-5.43 -10.80,-5.51 -10.47,-5.59 -10.12,-5.55 -9.78,-5.52 -9.47,-5.38 -9.16,-5.25 -8.90,-5.01 -8.65,-4.78 -8.48,-4.48 -8.32,-4.18 -8.26,-3.84 -8.20,-3.51 -8.25,-3.17 -8.30,-2.83 -8.45,-2.52 -8.61,-2.22 -8.85,-1.98 -9.10,-1.74 -9.41,-1.59 -9.72,-1.44 -10.06,-1.40 -10.40,-1.35 -10.73,-1.42 -11.07,-1.49 -11.37,-1.66 -11.66,-1.83 -11.89,-2.09 -12.12,-2.35 -12.25,-2.67 -12.38,-2.98 -12.40,-3.33 -12.43,-3.67 -12.34,-4.00 -12.25,-4.33 -12.07,-4.62 -11.88,-4.91 -11.61,-5.12 -11.34,-5.33 -11.02,-5.44 -10.69,-5.56 -10.35,-5.56 -10.01,-5.57 -9.68,-5.46 -9.35,-5.36 -9.08,-5.16 -8.80,-4.95 -8.60,-4.67 -8.41,-4.39 -8.30,-4.16 -8.19,-3.93 -7.71,-2.20 -7.24,-0.47 -6.96,0.93 -6.67,2.33 -6.26,4.23 -5.85,6.13 -5.56,8.67 -5.27,11.20 -4.98,14.04 -4.69,16.88 -4.75,19.68 -4.82,22.47 -5.17,24.96 -5.53,27.44 -6.55,28.89 -7.57,30.34 -9.07,31.58 -10.57,32.81 -12.05,33.79 -13.53,34.77 -15.94,35.91 -18.36,37.04 -19.80,36.48 -21.24,35.92 -22.31,35.39 -23.38,34.86 -24.93,34.04 -26.49,33.22 -28.64,32.11 -30.80,31.01 -32.89,29.18 -34.98,27.35 -36.93,25.04 -38.88,22.73 -40.23,20.12 -41.58,17.51 -42.25,14.99 -42.91,12.46 -43.09,10.01 -43.26,7.55 -43.12,5.70 -42.97,3.84 -42.67,1.71 -42.37,-0.40 -41.83,-2.09 -41.28,-3.79 -40.59,-5.41 -39.91,-7.03 -39.07,-8.66 -38.23,-10.28 -36.12,-11.23 -34.02,-12.18 -32.70,-11.56 -31.39,-10.94 -29.40,-10.43 -27.40,-9.93 -23.64,-8.95 -19.88,-7.97 -14.19,-6.57 -8.49,-5.16 -5.13,-4.16 -1.76,-3.16 -0.21,-2.46 1.33,-1.75 1.52,-1.57 1.71,-1.38 1.85,-1.16 1.99,-0.93 2.07,-0.68 2.16,-0.43 2.18,-0.16 2.20,0.09 2.15,0.36 2.11,0.62 2.01,0.86 1.90,1.11 1.74,1.32 1.58,1.53 1.37,1.70 1.17,1.86 0.93,1.98 0.68,2.09 0.42,2.14 0.16,2.19 -0.09,2.18 -0.36,2.17 -0.61,2.10 -0.87,2.02 -2.19,1.45 L -3.51,0.88 Z"></path></g><g transform="translate(100.6873779296875 90.0511474609375) rotate(0 1.6514892578125 34.3603515625)" stroke="none" class="hangman-body"><path d="M 3.03,9.64 Q 3.03,9.64 3.17,14.69 3.32,19.75 3.43,22.80 3.55,25.85 3.74,27.51 3.92,29.16 4.04,30.77 4.15,32.37 4.26,33.65 4.36,34.93 4.50,36.05 4.64,37.17 4.75,38.29 4.86,39.40 4.96,40.54 5.07,41.67 5.15,42.85 5.24,44.03 5.05,46.12 4.87,48.22 4.89,49.49 4.91,50.77 4.99,52.21 5.07,53.66 5.41,55.35 5.74,57.04 6.02,58.85 6.29,60.65 6.24,62.27 6.18,63.89 6.23,65.66 6.27,67.43 6.30,67.95 6.32,68.47 6.24,68.96 6.17,69.44 5.94,69.87 5.71,70.31 5.36,70.64 5.00,70.98 4.56,71.19 4.12,71.40 3.63,71.45 3.14,71.50 2.67,71.40 2.19,71.30 1.77,71.05 1.35,70.80 1.03,70.42 0.71,70.05 0.53,69.60 0.35,69.15 0.32,68.66 0.29,68.17 0.42,67.70 0.55,67.23 0.82,66.82 1.09,66.41 1.48,66.12 1.87,65.82 2.33,65.66 2.80,65.50 3.29,65.50 3.78,65.50 4.24,65.65 4.70,65.81 5.09,66.10 5.48,66.40 5.76,66.80 6.04,67.21 6.17,67.68 6.30,68.15 6.28,68.64 6.25,69.12 6.07,69.58 5.89,70.03 5.58,70.41 5.26,70.78 4.84,71.04 4.43,71.29 3.95,71.40 3.47,71.50 2.98,71.45 2.50,71.40 2.05,71.20 1.61,70.99 1.25,70.66 0.90,70.32 0.67,69.89 0.44,69.46 0.35,68.98 0.27,68.50 0.29,67.97 0.32,67.45 0.34,65.71 0.36,63.96 0.27,62.45 0.18,60.94 0.09,59.78 0.00,58.62 0.02,57.41 0.05,56.19 -0.12,54.93 -0.30,53.66 -0.21,52.21 -0.13,50.77 -0.11,49.49 -0.09,48.22 -0.28,46.12 -0.46,44.03 -0.37,42.85 -0.29,41.68 -0.19,40.54 -0.08,39.41 0.01,38.32 0.11,37.22 0.22,36.12 0.33,35.01 0.38,33.76 0.43,32.51 0.43,30.99 0.42,29.46 0.32,27.75 0.23,26.05 -0.01,22.98 -0.26,19.92 -0.57,14.99 -0.88,10.06 -1.42,4.90 -1.95,-0.26 -1.89,-0.49 -1.83,-0.72 -1.72,-0.93 -1.60,-1.14 -1.44,-1.31 -1.28,-1.49 -1.09,-1.62 -0.89,-1.75 -0.67,-1.83 -0.44,-1.92 -0.21,-1.94 0.02,-1.97 0.26,-1.94 0.49,-1.90 0.71,-1.82 0.93,-1.73 1.13,-1.59 1.32,-1.45 1.48,-1.27 1.63,-1.09 1.74,-0.88 1.85,-0.67 1.90,-0.44 1.96,-0.21 2.49,4.71 L 3.03,9.64 Z"></path></g><g transform="translate(103.5330810546875 159.00042724609375) rotate(0 -11.14007568359375 10.061660766601562)" stroke="none" class="hangman-leftleg"><path d="M -0.61,2.87 Q -0.61,2.87 -1.70,3.65 -2.78,4.43 -4.08,5.47 -5.38,6.51 -7.59,8.28 -9.81,10.05 -12.87,12.84 -15.93,15.63 -17.62,17.14 -19.32,18.66 -20.08,19.70 -20.84,20.73 -21.87,19.26 -22.90,17.79 -22.54,17.83 -22.18,17.87 -21.86,18.02 -21.53,18.17 -21.27,18.42 -21.01,18.67 -20.84,18.99 -20.67,19.31 -20.61,19.67 -20.56,20.03 -20.62,20.38 -20.68,20.74 -20.85,21.06 -21.02,21.38 -21.28,21.62 -21.55,21.87 -21.87,22.02 -22.20,22.17 -22.56,22.21 -22.92,22.25 -23.27,22.17 -23.63,22.09 -23.94,21.90 -24.24,21.71 -24.48,21.44 -24.71,21.16 -24.84,20.82 -24.97,20.49 -24.99,20.13 -25.01,19.76 -24.91,19.42 -24.81,19.07 -24.61,18.77 -24.40,18.47 -24.12,18.26 -23.83,18.04 -23.48,17.92 -23.14,17.81 -22.78,17.81 -22.42,17.81 -22.08,17.93 -21.74,18.05 -21.45,18.27 -21.16,18.49 -20.96,18.79 -20.76,19.09 -20.66,19.44 -20.57,19.79 -20.59,20.15 -20.61,20.51 -20.75,20.84 -20.88,21.18 -21.12,21.45 -21.35,21.73 -21.66,21.91 -21.97,22.09 -22.33,22.17 -22.68,22.25 -23.80,20.78 -24.91,19.31 -24.26,18.32 -23.61,17.33 -22.79,16.64 -21.97,15.95 -20.42,14.28 -18.87,12.61 -15.93,9.56 -13.00,6.50 -10.77,4.36 -8.54,2.21 -7.06,1.24 -5.57,0.27 -4.14,-0.44 -2.70,-1.15 -1.61,-1.68 -0.53,-2.20 -0.25,-2.23 0.01,-2.27 0.28,-2.23 0.55,-2.20 0.81,-2.10 1.06,-2.00 1.29,-1.84 1.51,-1.69 1.69,-1.48 1.87,-1.27 2.00,-1.03 2.12,-0.79 2.19,-0.52 2.25,-0.26 2.25,0.01 2.25,0.28 2.18,0.55 2.11,0.81 1.99,1.05 1.86,1.30 1.67,1.50 1.49,1.70 1.27,1.86 1.04,2.01 0.21,2.44 L -0.61,2.87 Z"></path></g><g transform="translate(104.0601806640625 160.80728149414062) rotate(0 7.13824462890625 11.409896850585938)" stroke="none" class="hangman-rightleg"><path d="M 3.30,0.28 Q 3.30,0.28 4.23,1.72 5.17,3.16 6.34,5.63 7.51,8.11 9.39,11.43 11.28,14.76 12.39,16.70 13.51,18.64 14.50,19.82 15.49,21.00 15.66,21.25 15.83,21.50 15.95,21.80 16.07,22.11 16.08,22.44 16.10,22.77 16.01,23.08 15.92,23.40 15.74,23.67 15.55,23.94 15.29,24.14 15.02,24.34 14.71,24.44 14.40,24.55 14.07,24.55 13.74,24.54 13.43,24.44 13.12,24.33 12.86,24.13 12.60,23.93 12.41,23.66 12.23,23.38 12.14,23.07 12.06,22.75 12.08,22.42 12.09,22.09 12.22,21.79 12.34,21.48 12.55,21.23 12.77,20.98 13.05,20.81 13.33,20.65 13.66,20.58 13.98,20.51 14.30,20.54 14.63,20.58 14.93,20.72 15.23,20.86 15.46,21.09 15.70,21.31 15.86,21.61 16.01,21.90 16.06,22.22 16.11,22.55 16.06,22.87 16.00,23.20 15.85,23.49 15.69,23.78 15.45,24.00 15.21,24.23 14.91,24.36 14.61,24.50 14.29,24.53 13.96,24.57 13.64,24.50 13.32,24.42 13.04,24.25 12.76,24.08 12.54,23.83 12.33,23.58 11.97,22.94 11.62,22.31 11.13,21.36 10.63,20.41 9.39,18.52 8.14,16.63 6.05,13.31 3.96,9.99 2.65,7.77 1.34,5.55 0.67,4.43 0.00,3.30 -0.98,2.18 -1.96,1.07 -2.06,0.82 -2.16,0.57 -2.19,0.30 -2.23,0.03 -2.20,-0.23 -2.18,-0.50 -2.08,-0.75 -1.99,-1.00 -1.84,-1.23 -1.69,-1.45 -1.49,-1.63 -1.29,-1.82 -1.06,-1.94 -0.82,-2.07 -0.56,-2.14 -0.30,-2.21 -0.03,-2.22 0.23,-2.22 0.49,-2.16 0.75,-2.10 1.00,-1.98 1.24,-1.86 1.44,-1.68 1.65,-1.50 2.47,-0.61 L 3.30,0.28 Z"></path></g><g transform="translate(103.93560791015625 116.96539306640625) rotate(0 -9.908477783203125 7.848785400390625)" stroke="none" class="hangman-leftarm"><path d="M -1.16,3.55 Q -1.16,3.55 -2.76,4.86 -4.36,6.17 -5.73,7.44 -7.10,8.71 -10.21,10.93 -13.32,13.15 -14.85,14.28 -16.38,15.41 -17.56,16.38 -18.74,17.36 -19.34,17.63 -19.95,17.90 -20.29,17.96 -20.64,18.01 -20.98,17.95 -21.32,17.89 -21.63,17.73 -21.94,17.56 -22.17,17.31 -22.41,17.05 -22.56,16.74 -22.70,16.42 -22.74,16.07 -22.77,15.73 -22.69,15.39 -22.62,15.05 -22.44,14.75 -22.25,14.45 -21.99,14.23 -21.72,14.01 -21.40,13.88 -21.07,13.75 -20.72,13.74 -20.38,13.72 -20.04,13.82 -19.71,13.91 -19.42,14.11 -19.13,14.31 -18.92,14.59 -18.72,14.86 -18.61,15.19 -18.50,15.53 -18.50,15.87 -18.50,16.22 -18.62,16.55 -18.73,16.88 -18.94,17.16 -19.15,17.43 -19.44,17.62 -19.73,17.82 -20.07,17.91 -20.41,18.00 -20.75,17.98 -21.10,17.96 -21.42,17.83 -21.75,17.70 -22.01,17.47 -22.27,17.24 -22.45,16.94 -22.63,16.64 -22.70,16.30 -22.77,15.96 -22.73,15.61 -22.69,15.27 -22.54,14.95 -22.40,14.64 -22.15,14.39 -21.91,14.14 -21.60,13.98 -21.30,13.82 -21.05,13.81 -20.80,13.80 -19.62,13.21 -18.45,12.62 -16.92,11.49 -15.40,10.35 -12.56,8.15 -9.72,5.96 -8.36,4.62 -7.00,3.28 -5.37,1.65 -3.74,0.01 -2.28,-1.00 -0.82,-2.02 -0.57,-2.09 -0.31,-2.16 -0.05,-2.17 0.20,-2.17 0.46,-2.12 0.72,-2.06 0.95,-1.94 1.19,-1.83 1.39,-1.66 1.59,-1.49 1.75,-1.27 1.90,-1.06 2.00,-0.82 2.10,-0.57 2.14,-0.31 2.18,-0.05 2.16,0.20 2.13,0.46 2.04,0.71 1.96,0.96 1.81,1.18 1.67,1.40 1.48,1.58 1.28,1.76 0.06,2.66 L -1.16,3.55 Z"></path></g><g transform="translate(98.37066650390625 120.420654296875) rotate(0 11.391693115234375 4.26434326171875)" stroke="none" class="hangman-rightarm"><path d="M 1.50,-2.55 Q 1.50,-2.55 3.72,-2.27 5.95,-1.98 7.85,-1.19 9.74,-0.40 11.86,0.55 13.98,1.52 15.39,2.18 16.79,2.84 18.19,3.59 19.60,4.34 20.74,4.97 21.89,5.61 22.75,6.03 23.61,6.46 23.91,6.70 24.21,6.95 24.42,7.28 24.62,7.61 24.71,7.99 24.80,8.37 24.77,8.75 24.73,9.14 24.58,9.50 24.42,9.85 24.16,10.14 23.89,10.42 23.55,10.61 23.21,10.80 22.83,10.87 22.45,10.94 22.06,10.88 21.68,10.83 21.33,10.65 20.99,10.47 20.71,10.20 20.44,9.92 20.27,9.57 20.10,9.22 20.05,8.83 20.01,8.45 20.08,8.07 20.16,7.69 20.35,7.35 20.55,7.01 20.84,6.76 21.13,6.50 21.49,6.35 21.85,6.20 22.24,6.17 22.62,6.14 23.00,6.24 23.38,6.34 23.70,6.55 24.03,6.76 24.27,7.07 24.51,7.38 24.64,7.74 24.77,8.11 24.78,8.50 24.78,8.89 24.67,9.26 24.55,9.63 24.32,9.94 24.09,10.25 23.77,10.48 23.45,10.70 23.08,10.81 22.71,10.92 22.32,10.91 21.93,10.89 21.57,10.75 21.20,10.62 20.37,10.07 19.54,9.52 18.52,8.85 17.50,8.18 16.17,7.45 14.84,6.71 13.66,6.07 12.47,5.43 10.31,4.75 8.14,4.06 6.40,3.55 4.65,3.04 3.26,2.67 1.87,2.29 0.73,2.34 -0.40,2.40 -0.68,2.31 -0.96,2.23 -1.21,2.08 -1.47,1.93 -1.68,1.73 -1.89,1.53 -2.04,1.28 -2.20,1.03 -2.29,0.75 -2.38,0.47 -2.40,0.18 -2.43,-0.10 -2.38,-0.39 -2.33,-0.68 -2.21,-0.95 -2.10,-1.22 -1.92,-1.46 -1.74,-1.69 -1.51,-1.87 -1.29,-2.06 -1.02,-2.18 -0.76,-2.31 -0.47,-2.36 -0.18,-2.42 0.65,-2.49 L 1.50,-2.55 Z"></path></g></svg>
