<svg version="1.1"
    xmlns="http://www.w3.org/2000/svg" viewBox="0 0 111.72174700698378 110.55211936488621" width="111.72174700698378" height="110.55211936488621">
    <!-- svg-source:excalidraw -->
    <defs>
        <style>
        .heart0,.heart1,.heart2,.heart3,.heart4 {
          opacity: var(--hearts-init-opacity);
          animation: blink 1s cubic-bezier(.93,-0.7,.06,1.69) infinite;
          stroke: var(--red-heart-colour);
          animation-play-state: var(--heart-animation-state);
        }
        .heart1 {
          animation-delay: 250ms;
        }
        .heart2 {
          animation-delay: 500ms;
        }
        .heart3 {
          animation-delay: 750ms;
        }
        .heart4 {
          animation-delay: 1000ms;
        }

        @keyframes blink {
          0% {
            opacity: 0;
          }
          50% {
            opacity: 1;
          }
          100% {
            opacity: 0;
          }
        }
        
        
        </style>
    </defs>
    <g stroke-linecap="round" class="heart0">
        <g transform="translate(50.67016852603561 43.27752657846332) rotate(0 6.495607497323732 13.10736530050039)" fill-rule="evenodd">
            <path d="M-29.76 -16.6 C-29.76 -16.6, -29.76 -16.6, -29.76 -16.6 M-29.76 -16.6 C-29.76 -16.6, -29.76 -16.6, -29.76 -16.6 M-31.29 -6.56 C-29.7 -12.75, -21.3 -24.58, -17.65 -23.6 M-31.71 -9.24 C-27.48 -14.32, -21.43 -19.52, -15.49 -25.98 M-30.12 -1.91 C-26.74 -11.29, -15.37 -15.02, -10.01 -24.93 M-33.75 -2.02 C-28.1 -6.73, -20.76 -14.22, -11.58 -27.77 M-30.76 7.94 C-28.74 -0.19, -22.35 -5.2, -10.82 -23.83 M-35.16 5.57 C-30.37 0.01, -23.36 -5.69, -10.03 -23.47 M-31.69 12.7 C-26.01 4.83, -18.96 -9.58, -3.31 -21.52 M-36.66 13.01 C-29.5 6.86, -22.07 -2.31, -4.12 -19.41 M-33.08 15.47 C-31.16 13.39, -24.33 2.07, -0.32 -12.49 M-34.48 19.86 C-24.34 7.5, -12.56 -7.21, -4.47 -16.62 M-30.77 23.56 C-26.79 15.38, -19.93 1.35, 0.12 -10.34 M-33.28 21.39 C-24.98 11.53, -17.32 3.93, -1.51 -11.82 M-27.08 22.96 C-15.62 13.62, -11.47 6.99, 0.09 -4.71 M-27.8 24.01 C-23.2 18.74, -15.48 7.6, 0.99 -5.5 M-25.56 32.85 C-18.12 24.24, -14.3 15.14, 2.38 -5.58 M-28.46 28.57 C-15.88 20.17, -8.22 7.98, -0.39 -1.29 M-20.39 35.05 C-15.57 26.16, -8.27 14.87, -0.25 3.27 M-25.73 32.78 C-14.73 24.27, -8.33 14.31, 1.63 1.4 M-19.81 33.84 C-10.97 19.16, -1.09 10.23, 29.03 -21.96 M-20.31 35.83 C-12.53 22.92, -1.95 7.37, 28.35 -21.95 M-21.56 34.67 C-8.86 18.86, 8.62 8.77, 37.98 -25.39 M-17.53 37.97 C0.93 17.92, 19.63 -2.59, 38.98 -28.36 M-16.87 37.18 C-0.12 20.76, 12.53 6.98, 38.45 -27.62 M-14.19 38.47 C1.15 20.15, 19.26 2.7, 40.97 -26.68 M-12.67 44.43 C2.4 27.6, 18.41 8.36, 44.06 -25.49 M-11.63 41.66 C5.5 24.09, 22.51 2.75, 44.84 -24.46 M-6.91 42.65 C5.36 28.48, 21.13 13.07, 44.73 -19.13 M-9.99 45.63 C7.67 24.47, 23.85 4.59, 47.76 -18.11 M-3.36 44.27 C16.24 20.03, 37.09 -3.16, 45.05 -16.03 M-5.77 46.03 C4.04 32.31, 17.21 21.46, 49.12 -16.11 M-4.33 52.14 C15.56 31.14, 32.17 13.8, 49.75 -10.96 M-3.53 49.26 C18.58 25.8, 37.41 2.19, 49.09 -10.06 M-1.47 54.53 C16.76 34.47, 34.94 15.94, 47.47 -6.51 M2.5 52.29 C15.9 30.63, 33.88 14.85, 49.5 -2.34 M1.57 52.17 C12.04 42.26, 25.05 29.64, 49.99 7.12 M2.82 54.6 C14.61 42.53, 24.53 30.87, 46.26 3.01 M6.26 52.17 C22.52 36.41, 35.84 18.78, 48.28 13.19 M10.98 52.97 C19.64 42.54, 29.82 29.47, 46.42 10.17 M15.89 52.36 C23.13 50.21, 26.83 43.86, 37.19 29.25 M17.36 50.69 C24.09 47.03, 29.1 39.27, 34.12 33.28 M-22.3 34.8 C-22.3 34.8, -22.3 34.8, -22.3 34.8 M-22.3 34.8 C-22.3 34.8, -22.3 34.8, -22.3 34.8 M0.62 53.68 C-9.15 42.59, -20.78 33.27, -29.72 19.01 M5.61 50.63 C-8.92 40.44, -19.88 31.2, -34.95 21.02 M11.59 50.34 C-0.05 45.14, -9.82 36.75, -36.07 9.77 M10.76 54.12 C3.04 42.37, -9.87 34.38, -35.86 14.11 M19.41 51.85 C3.02 44.01, -5 30.01, -35.94 6.92 M15.09 50.91 C-1.23 36.65, -16.18 25.31, -34.38 8.13 M16.09 51.73 C-2.27 28.55, -24.05 16.2, -35.54 2.13 M17.66 48.04 C2.51 35.37, -19.25 18.59, -36.87 2.81 M23.62 48.9 C-2.53 24.75, -24.36 4.68, -36.67 1.37 M21.29 47.05 C9.71 35.24, -2.94 23.52, -33.34 -2.91 M21.9 46.63 C6.21 30.01, -11.56 13.12, -31.15 -4.43 M25.61 43.7 C7.31 31.09, -10.26 15.79, -34.87 -7.3 M22.78 43.17 C8.78 28.77, 1.65 18.56, -31.88 -8.54 M26.23 39.56 C6.92 26.75, -10.3 12.32, -31.42 -10.23 M25.34 40.52 C12.32 23.15, -6 2.36, -33.79 -16.44 M27.08 35.6 C9.82 23.53, -4.2 8.57, -31.72 -16.16 M30.54 33.23 C10.51 18.04, -9.82 -2.71, -24.61 -18.31 M32.32 33.89 C15.31 17.03, -4.35 4, -28.94 -17.89 M33.85 29.76 C13.94 13.02, 5.8 -1.15, -26.66 -17.65 M31.95 27.8 C16.82 15.86, -3.27 0.52, -25.29 -20.21 M34.16 27.24 C27.23 21.25, 21.83 12.75, 4.11 -0.2 M35.93 25.71 C23.52 16.62, 9.29 6.02, 2.04 -4 M-0.29 1.06 C-4.66 -13.39, -15.46 -21.93, -25.78 -22.47 M1.23 -2.59 C-4.76 -6.97, -12.64 -16.05, -21.92 -21.87 M33.39 23.23 C27.36 16.33, 12.15 2.66, 9.3 -3.51 M38.22 21.32 C29.05 17.46, 18.17 8.29, 3.87 -5.05 M-1.91 -11.3 C-8.41 -14.28, -14.77 -18.11, -17.27 -23.18 M1.17 -8.24 C-4.99 -15.29, -9.36 -18.68, -17.78 -24.77 M41.13 16.74 C29.96 12.15, 20.35 4.18, 11.54 -5.09 M37.8 21.15 C30.77 11.4, 23.3 4.46, 6.75 -6.36 M-6.13 -15.74 C-5.31 -17.28, -10.47 -23.82, -14.26 -29.23 M-2.82 -17.37 C-6.37 -21.37, -12.47 -24.26, -15.42 -29.03 M40.5 15.23 C33.67 12.27, 21.87 -1.51, 10.05 -6.93 M39.83 14.29 C32.62 8.62, 24.94 -0.43, 9.83 -11.73 M46.26 10.65 C31.23 4.29, 20.64 -4.18, 12.34 -15.02 M42.68 14.14 C33.7 6.86, 27.58 -2.51, 15.98 -14.87 M42.64 11.98 C37.87 0.76, 30.15 -8.75, 15.51 -17.12 M45.79 8.31 C35.13 0.86, 27.05 -7.7, 18.05 -16.33 M46.55 4.87 C39.72 -2.45, 24.63 -9.99, 21.69 -21.31 M48.43 5.67 C40.15 0.69, 34.77 -5.36, 19.35 -20.46 M50.3 -0.77 C36.16 -10.09, 31.82 -12.44, 21.24 -22.17 M49.08 2.41 C39.4 -6.44, 35.44 -12.67, 25.3 -19.14 M50.7 -1.54 C38.22 -7.58, 35.81 -14.96, 29.96 -21.17 M47.58 -3.85 C43.86 -7.91, 38.95 -14.8, 25.79 -23.39 M52.74 -6.3 C43.26 -15.19, 38.43 -20.05, 26.33 -28.75 M49.95 -6.98 C40.52 -16.31, 33.48 -22.2, 29.53 -24.53 M51.83 -16.83 C45.89 -15.9, 38.29 -23.52, 30.29 -27.49 M51.83 -12.12 C43.73 -15.91, 38.72 -23.06, 31.98 -28.46 M47.49 -22.97 C48.02 -22.4, 41.92 -27.76, 36.84 -27.07 M48.6 -19.67 C44.85 -23.1, 41.32 -26.38, 37.6 -28.82" stroke-width="0.5" fill="none"></path>
            <path d="M-1.51 -0.14 C-3.54 -4.56, -8.41 -23.64, -13.45 -25.73 C-18.49 -27.82, -28.05 -20.35, -31.75 -12.66 C-35.44 -4.98, -39.35 10.8, -35.6 20.37 C-31.84 29.94, -18.03 39.12, -9.21 44.74 C-0.4 50.37, 7.88 60.64, 17.3 54.13 C26.72 47.61, 42.7 19.12, 47.32 5.65 C51.95 -7.83, 48.88 -21.53, 45.04 -26.73 C41.21 -31.92, 32.16 -30.18, 24.32 -25.51 C16.48 -20.83, 2.46 -2.96, -2 1.34 M2.86 -2.68 C1.89 -7.99, -1.97 -28.54, -7.81 -29.93 C-13.64 -31.32, -27.52 -19.8, -32.17 -11.03 C-36.81 -2.27, -40.24 13.22, -35.67 22.64 C-31.09 32.06, -12.84 40.49, -4.71 45.5 C3.41 50.51, 4.11 58.66, 13.1 52.7 C22.09 46.74, 44.25 21.88, 49.21 9.73 C54.17 -2.41, 46.49 -15.04, 42.87 -20.15 C39.25 -25.26, 34.85 -24.47, 27.49 -20.95 C20.14 -17.42, 3.82 -2.96, -1.28 1" stroke="#000000" stroke-width="1" fill="none"></path>
        </g>
    </g>
    <g stroke-linecap="round" class="heart1">
        <g transform="translate(50.47622931705121 42.380447110689886) rotate(0 6.304788207129235 14.249313183528187)" fill-rule="evenodd">
            <path d="M-29.76 -16.6 C-29.76 -16.6, -29.76 -16.6, -29.76 -16.6 M-29.76 -16.6 C-29.76 -16.6, -29.76 -16.6, -29.76 -16.6 M-32.45 -9.32 C-24.61 -16.13, -26.08 -19.28, -20.01 -28.38 M-32.27 -8.34 C-28.35 -12.11, -25.67 -17.51, -18.13 -23.41 M-36.74 0.62 C-27.15 -5.1, -21.11 -18.71, -10.57 -29.78 M-33.7 0.45 C-28.44 -9.13, -19.57 -15.95, -11.74 -26.36 M-37.29 8.37 C-30.61 0.2, -19.65 -4.57, -12.08 -22.46 M-35.98 7.72 C-29.18 -1.57, -19.63 -5.96, -6.94 -21.65 M-36.91 17.64 C-24.9 1.35, -15.39 -11.73, -6.7 -19.25 M-36.58 14.9 C-30.88 4.87, -21.59 0.02, -5.79 -21.47 M-37.08 16.33 C-26.11 7.03, -9.54 -7.08, -1.77 -16.95 M-32.36 18.47 C-29.12 13.75, -21.23 5.77, -4.35 -16.99 M-34.5 25.8 C-24.5 9.64, -8.93 3.49, -3.77 -11.71 M-31.21 24.43 C-23.64 12.52, -12.13 -1.55, -1.82 -12.54 M-26.34 29.86 C-19.12 15.47, -11.38 6.25, -3.65 -9.47 M-28.44 26.35 C-21.11 15.28, -16.76 9.41, -0.88 -7.01 M-23.51 31.77 C-17.16 19.59, -10.51 8.83, -2.6 -3.73 M-27.23 27.51 C-18.66 18.71, -8.82 8.55, -0.72 -2.44 M-26.6 34.2 C-17.53 16.34, -4.72 9.85, -1.42 1.46 M-25.6 30.03 C-12.68 21.09, -4.24 10.85, 2.56 2.12 M-19.74 37.55 C-7.29 24.37, 4.68 4.39, 27.19 -20.18 M-21.45 34.24 C-8.83 21.34, 3.55 4.41, 28.5 -24.02 M-20.59 37.15 C0.1 20.12, 16.52 -6.52, 34.92 -27 M-17.68 37.07 C-4.06 20.61, 5.63 7.76, 37.43 -27.8 M-14.83 42.79 C3.73 17.92, 20.57 -3.92, 40.55 -27.06 M-15.8 40.66 C4.59 18.45, 24.07 -6.59, 42.07 -24.99 M-12.83 42.43 C4.94 19.85, 28.08 1.1, 49.11 -23.4 M-11.68 41.24 C7.37 19.67, 25.06 -2.86, 43.58 -24.34 M-11.52 40.5 C11.34 23.51, 29.2 1.19, 47.91 -22.6 M-8.62 44.5 C2.89 32.12, 14.72 17.33, 48.41 -18.96 M-3.63 47.36 C14.12 23.95, 34.34 1.41, 50.41 -12.29 M-5.66 48.23 C14.51 26.33, 32.01 1.55, 49.12 -14.76 M-4.99 46.06 C16.77 29.51, 36.22 7.31, 47.21 -10.65 M-4.03 50.19 C17.15 28.39, 37.82 7.47, 48.14 -10.82 M0.24 53.87 C17.65 33.98, 33.64 9.36, 51.29 -4.4 M0.52 50.7 C15.24 34.06, 31.05 20.4, 48.01 -4.22 M2.39 55.74 C15.39 37.69, 30.41 20.66, 46.76 1.88 M5.38 55.32 C13.93 44.54, 24.06 31.81, 48.93 1.76 M12.88 56.8 C23.06 41.19, 34.81 27.91, 46.41 13.37 M8.57 52.44 C24.93 37.54, 39.52 22.84, 47.14 10.32 M18.43 53.13 C19.75 44.7, 26.7 40.67, 33.88 36.25 M15.86 53.15 C19.69 49.42, 25.25 43.83, 34.12 31.6 M-22.3 34.8 C-22.3 34.8, -22.3 34.8, -22.3 34.8 M-22.3 34.8 C-22.3 34.8, -22.3 34.8, -22.3 34.8 M7.57 49.45 C-9.24 42.12, -16.9 38.41, -37.2 23.4 M2.99 52.88 C-6.12 41.94, -16.21 35.21, -33.3 19.53 M6.82 49.33 C-4.22 42.32, -10.71 32.99, -32.25 14.37 M10.52 50.79 C-7.66 38.51, -26.09 21.16, -35.27 12.35 M19.66 54.9 C-5.65 36.41, -22.73 21.5, -32.57 5.46 M14.45 50.98 C1.89 40.48, -10.39 33, -38.01 7.84 M19.43 48.78 C6.23 35.91, -4.29 26.08, -34.17 0.33 M18.38 50.81 C8.1 41.47, -2.75 31.04, -35.13 3.95 M23.99 50.26 C2.34 31.95, -24.08 8.57, -36.63 -1.31 M20.06 46.82 C5.1 31.99, -15.42 15.51, -34.3 -0.67 M21.07 44.73 C-1.75 25.76, -18.1 6.43, -32.1 -6.49 M25.67 45.32 C12.37 31.6, -5.49 18.46, -33.32 -4.36 M23.82 40.84 C8.67 20.56, -18.21 -1.07, -30.78 -11.7 M26.26 40.64 C3.35 19.14, -17.89 -0.2, -32.77 -12 M31.62 33.76 C6.36 21.03, -12.58 3.51, -32.45 -12.37 M27.34 35.49 C16.26 22.66, -0.35 14, -30.63 -15.41 M34.23 36.47 C11.54 19.67, -5.29 1.74, -31.72 -20.85 M30.02 33.46 C10.76 14.79, -8.58 -0.83, -26.64 -18.17 M33.87 31.61 C13.8 17.54, 0.1 -2.24, -22.26 -20.56 M33.89 27.92 C13.86 11.41, -8.26 -3.49, -25.74 -20.67 M35.67 28.78 C22.14 12.28, 12.06 8.67, 5.59 -4.4 M36.39 28.46 C23.82 16.91, 14.4 6.91, 1.3 -1.37 M3.14 0.6 C-10.92 -11.21, -18.76 -18.59, -21.57 -20.75 M1.08 -1.89 C-4.41 -6.09, -7.67 -10.44, -23.71 -21.72 M36.87 19.55 C27.99 13.61, 23.25 11.95, 5.99 -2.79 M37.34 23.27 C27.09 14.23, 18.2 5.88, 4.74 -6.29 M-2.55 -13.14 C-7.17 -18.1, -16.67 -18.96, -20.8 -24.24 M0.03 -8.29 C-8.23 -16.79, -14.03 -22.97, -17.24 -25.44 M43.4 20.31 C30.63 15.47, 22.08 2.4, 7.64 -3.77 M40.4 21.56 C28.05 8.77, 17.22 2.15, 7.4 -6.61 M-4.23 -17.47 C-5.89 -23.1, -10.68 -24.79, -13.77 -30.81 M-4.44 -17.36 C-7.84 -20.08, -10.63 -24.19, -15.37 -27.71 M38.85 18.75 C34.64 6.93, 24.98 -5.26, 11.08 -7.94 M41.8 15.49 C34.09 7.37, 24.13 0.96, 12.05 -10.57 M41.07 13.58 C37.9 7.34, 33.35 0.43, 16.19 -10.59 M44.96 13.06 C33.3 5.23, 26.4 -4.97, 12.46 -11.26 M42.54 8.64 C35.11 -0.86, 25.92 -11.1, 20.06 -17.79 M44.2 7.63 C36.36 1.33, 24.42 -9.28, 17.36 -13.96 M45.27 2.92 C41.29 -5.84, 29.85 -9.53, 22.81 -17.4 M47.48 8.26 C42.89 2.04, 35.43 -5.04, 18.93 -18.92 M49.19 2.95 C44.35 -6.95, 35.24 -9.61, 20.74 -17.97 M48.31 0.03 C38.34 -8.39, 28 -16.21, 25.1 -20.43 M46.66 -5.48 C41.27 -9.34, 35.77 -11.82, 25.09 -26.71 M49.22 -3.03 C39.91 -12.01, 32.11 -17.34, 27.11 -23.71 M47.74 -4.59 C41.88 -14.98, 30.64 -23.18, 28.76 -25.04 M51.79 -8.16 C43.05 -16.29, 36.08 -18.38, 31.2 -27.23 M51.9 -10.75 C47.56 -14.89, 37.94 -21.08, 34.62 -25.21 M49.38 -12.86 C45.81 -15.16, 45.34 -17.72, 31.71 -26.34 M49.89 -20.47 C45.04 -21.07, 44.94 -25.06, 40.54 -26.91 M47.19 -21.29 C45.34 -23.86, 41.23 -26.14, 38.28 -28.04" stroke-width="0.5" fill="none"></path>
            <path d="M-2.39 -2.45 C-4.15 -6.8, -7.61 -23.27, -13.07 -24.65 C-18.52 -26.04, -31.68 -18.41, -35.13 -10.78 C-38.57 -3.15, -37.95 11.42, -33.75 21.12 C-29.54 30.81, -17.92 41.81, -9.9 47.39 C-1.87 52.98, 4.9 61.01, 14.41 54.64 C23.91 48.27, 42.53 22.08, 47.14 9.15 C51.75 -3.78, 45.52 -17.04, 42.07 -22.93 C38.62 -28.81, 33.52 -30.16, 26.42 -26.15 C19.32 -22.13, 3.51 -3.06, -0.52 1.18 M1.5 2.4 C-0.49 -2.82, -9.37 -26.52, -15.85 -28.27 C-22.33 -30.03, -34.56 -16.81, -37.38 -8.13 C-40.21 0.55, -38.08 15.61, -32.81 23.79 C-27.54 31.97, -14.11 36, -5.77 40.95 C2.58 45.9, 8.16 59.24, 17.27 53.49 C26.39 47.75, 43.99 19.23, 48.93 6.49 C53.87 -6.24, 49.95 -18.19, 46.92 -22.93 C43.89 -27.67, 38.39 -25.88, 30.74 -21.93 C23.08 -17.99, 5.43 -3.11, 1.01 0.76" stroke="#000000" stroke-width="1" fill="none"></path>
        </g>
    </g>
    <g stroke-linecap="round" class="heart2">
        <g transform="translate(49.22787726626993 42.53778048471332) rotate(0 6.115043031657933 11.749550783097732)" fill-rule="evenodd">
            <path d="M-29.76 -16.6 C-29.76 -16.6, -29.76 -16.6, -29.76 -16.6 M-29.76 -16.6 C-29.76 -16.6, -29.76 -16.6, -29.76 -16.6 M-33.38 -4.49 C-31.26 -14.89, -25.51 -21.11, -19.99 -26.77 M-32.39 -7.94 C-25.67 -16.01, -20.58 -22.77, -15.02 -24.4 M-32.92 -1.71 C-23.36 -10.26, -21.75 -13.69, -13.94 -26.66 M-33.09 -1.18 C-25.84 -9.42, -15.85 -21.9, -10.52 -27.78 M-33.24 4.5 C-28.09 2.54, -19.59 -10.67, -7.64 -24.81 M-33.89 5.89 C-26.66 -0.91, -14.6 -11.22, -6.83 -21.82 M-32.04 13.8 C-26.91 2.39, -18.54 -7.37, -4.03 -24 M-34.78 12.64 C-27.53 4.45, -15.09 -8.88, -6.26 -19.17 M-37.19 15.73 C-26.27 13.16, -20.23 4.64, -4.16 -19.78 M-35.04 18.27 C-20.92 6.08, -10.12 -8.08, -4.2 -15.48 M-28.73 20.57 C-21.65 13.12, -4.64 -4.99, -2.75 -10.26 M-30.1 21.46 C-20.8 11.39, -13.58 -0.31, -3.58 -10.31 M-25.68 25.76 C-21.31 14.8, -11.8 6.62, -2.95 -9.15 M-29.2 27.77 C-20.48 11.3, -6.5 -0.85, -0.48 -7.26 M-24.8 30.42 C-20.87 20.72, -15.49 10.58, 0.36 -1.98 M-29.05 28.94 C-17.22 18.08, -6.76 4.8, 1.66 -1.32 M-21.97 28.83 C-18.09 20.24, -2.81 5.95, 1.72 4.44 M-26.14 33.34 C-18.26 25.96, -11.73 19.79, 2.38 0.51 M-19.63 38.23 C-2.13 18.19, 8.64 -5.51, 31.27 -24.25 M-22.95 34.53 C-7.38 18.38, 4.06 4.98, 27.43 -22.14 M-18.23 37.52 C5.77 13.55, 20.05 -9.71, 37.54 -30.21 M-18.31 38.94 C-4.76 17.68, 12.48 -0.15, 36.74 -26.4 M-12.19 40.29 C3.25 16.79, 21.67 -4.55, 40.69 -23.59 M-14.33 39.73 C6.34 16.91, 24.1 -4.26, 42.76 -25.46 M-12.16 40.05 C-0.59 29.95, 14.92 16.26, 46.15 -22.29 M-13.35 42.88 C8.33 17.06, 28.94 -6.73, 45.21 -23.48 M-12.29 45.99 C7.18 28.63, 21.25 10.22, 43.12 -22.96 M-8.29 43.86 C6.07 28.5, 18.14 14.06, 46.76 -17.72 M-5.03 45.99 C7.69 30.59, 21.26 17.99, 51 -13.16 M-4.16 47.5 C7.71 32.11, 16.82 19, 48.53 -13.77 M-5.93 50.86 C17.79 30.59, 35.93 4.63, 48.81 -7.2 M-1.81 49.07 C10.75 37.35, 24.11 21.31, 48.64 -8.56 M3.68 49.31 C15 35.32, 21.63 29.58, 46.98 -2.71 M0.5 50.2 C11.21 39.64, 24.82 26.75, 47.17 -2.09 M5.94 51.03 C22.33 31.81, 39.64 13.81, 46.61 -0.45 M5.52 54.77 C17.84 40.71, 28.2 24.66, 46.48 3.76 M11.63 56.59 C24.01 39.47, 38.64 20.19, 51.43 12.82 M7.27 55.71 C21.01 42.33, 34.91 26.35, 48.38 11.05 M16.82 49.75 C19.78 45.39, 27.13 42.97, 36.62 29.07 M16.84 52.2 C20.9 49.95, 23.14 44.7, 31.97 31.59 M-22.3 34.8 C-22.3 34.8, -22.3 34.8, -22.3 34.8 M-22.3 34.8 C-22.3 34.8, -22.3 34.8, -22.3 34.8 M1.04 49.63 C-10.85 42.27, -17.94 27.53, -29.84 18.54 M4.48 52.64 C-12.4 39.46, -25.11 26.66, -33.71 19.4 M7.05 50.26 C-0.43 44.83, -11.19 33.97, -33.92 16.22 M8.52 52.4 C-0.26 42.69, -12.92 33.79, -35.93 13.18 M18.67 48 C2.76 37.74, -10.46 32.87, -37.58 4.11 M14.75 50.77 C-4.29 34.33, -19.2 18.25, -35.2 5.27 M18.19 48.79 C0.66 37.86, -13.39 24.53, -37.27 -1.17 M20.22 49.43 C6.45 38.8, -6.9 26.88, -33.64 3.81 M25.41 48.51 C4.82 25.89, -20.73 9.6, -33.46 -0.19 M21.98 48.3 C10.22 35.67, -1.49 24.74, -32.82 -0.11 M25.52 39.89 C9.32 30.15, -7.62 13.74, -33.19 -8.08 M26.12 45.31 C11.04 32.26, -1.53 22.89, -31.06 -4.89 M27.18 43.13 C14.83 26.5, -0.28 19.53, -33.05 -7.65 M26.98 39.93 C8.09 26.58, -8.65 9.57, -33.36 -10.72 M25.74 34.69 C6.64 16.45, -16.49 -3.24, -28.18 -17.43 M27.48 38.76 C7.1 18.24, -8.97 1.79, -31.22 -14.68 M34 32.07 C19.42 21.02, 1.79 3.36, -31.02 -16.14 M30.99 33.28 C13.52 19.86, -0.5 6.33, -28.34 -18.41 M34.68 27.17 C16.06 13.04, -9.16 -0.64, -25.09 -19.33 M30.99 30.02 C15.81 16.24, 4.08 5.61, -25.19 -19.8 M37.5 25.09 C22.87 19.49, 21 15.17, -0.02 -0.29 M37.18 26.23 C28.77 22.87, 22.03 14.22, 3.01 -1.1 M4.97 -6.32 C-7.13 -12.76, -15.5 -16.58, -19.54 -26.58 M2.49 -3.63 C-3.29 -7.46, -9.51 -15.41, -20.5 -24.51 M33.81 21.87 C21.15 14, 13.78 1.92, 7.32 -3.79 M37.53 23.26 C27.69 15.45, 17.62 3.8, 3.83 -3.1 M-3.82 -9.91 C-6.92 -15.91, -5.48 -18.59, -17.28 -21.83 M1.03 -10.65 C-5.42 -12.47, -9.18 -14.98, -18.49 -26.23 M40.21 19.56 C32.33 11.19, 16.37 1.88, 11.99 -5.85 M41.46 18.98 C29.87 11.85, 24.17 4.4, 9.15 -9.55 M-3.19 -17.84 C-8.76 -22.4, -10.81 -20.48, -18.11 -28.96 M-3.09 -18.73 C-6.91 -22.1, -12.39 -25.11, -15.01 -27.32 M44.19 19.24 C34.19 13.79, 24.37 3.73, 13.56 -10.84 M40.94 16.67 C33.04 9.66, 27.56 5.64, 10.93 -12.04 M44.67 12.84 C35.81 6.46, 25.63 -0.12, 16.56 -12.56 M44.15 11.39 C37.58 7.74, 28.19 -1.11, 15.88 -12.53 M45.27 7.83 C36.2 0.44, 25.96 -2.64, 15.1 -13.22 M44.26 10.1 C37.97 -0.41, 26.76 -7.61, 18.93 -13.58 M45.2 10.32 C37.16 2.23, 34.7 -6.25, 21.13 -19.96 M50.54 8.32 C40.84 -0.22, 30.81 -11.55, 19.61 -19.13 M50.57 3.17 C41.49 -3.66, 39.5 -10.43, 26.3 -17.88 M47.66 0.65 C37.47 -8.62, 28.42 -13.72, 23.84 -20.93 M47.49 -4.75 C41.8 -9.89, 38.15 -17.31, 23.2 -22.52 M49.94 -5.16 C41.06 -11.78, 34.96 -15.65, 26.21 -22.1 M53.72 -8.36 C42.9 -18.01, 34.54 -21.63, 30.62 -25.87 M50.15 -9.08 C42.72 -14.14, 40.59 -15.92, 28.42 -26.3 M53.01 -10.98 C47.28 -20.29, 39.9 -21.56, 36.29 -31.55 M50.91 -14.58 C48.21 -14.88, 45.14 -21.36, 35.15 -28.04 M48.25 -20.72 C47.2 -20.66, 42.44 -23.94, 40.52 -28.82 M47.43 -20.33 C44 -24.39, 41.11 -26.39, 39.39 -29.47" stroke-width="0.5" fill="none"></path>
            <path d="M-2.45 -1.01 C-4.28 -5.29, -4.04 -26.67, -9.49 -28.05 C-14.94 -29.42, -31.01 -17.14, -35.14 -9.29 C-39.27 -1.44, -39.19 10.17, -34.27 19.08 C-29.36 27.99, -14.29 38.58, -5.64 44.19 C3.02 49.79, 8.8 59.14, 17.68 52.72 C26.55 46.3, 42.88 18.63, 47.61 5.66 C52.35 -7.31, 49.84 -20.07, 46.07 -25.1 C42.3 -30.13, 32.46 -29.08, 24.97 -24.53 C17.49 -19.97, 5.46 -1.61, 1.18 2.23 M1.42 -4.03 C-0.68 -7.68, -3.87 -24.57, -10.34 -24.87 C-16.81 -25.16, -33.52 -13.41, -37.4 -5.83 C-41.28 1.76, -38.55 12.24, -33.62 20.65 C-28.7 29.06, -15.72 39.66, -7.83 44.64 C0.05 49.62, 4.1 56.34, 13.68 50.53 C23.26 44.72, 44.53 22.56, 49.65 9.76 C54.78 -3.05, 47.98 -19.98, 44.45 -26.28 C40.93 -32.59, 35.31 -32.85, 28.51 -28.07 C21.7 -23.3, 8.44 -2.32, 3.64 2.38" stroke="#000000" stroke-width="1" fill="none"></path>
        </g>
    </g>
    <g stroke-linecap="round" class="heart3">
        <g transform="translate(51.09285224185595 41.0881650061977) rotate(0 3.745116568087326 12.290458104535332)" fill-rule="evenodd">
            <path d="M-29.76 -16.6 C-29.76 -16.6, -29.76 -16.6, -29.76 -16.6 M-29.76 -16.6 C-29.76 -16.6, -29.76 -16.6, -29.76 -16.6 M-28.55 -11.93 C-30.87 -13.96, -29.01 -17.88, -18.38 -21.57 M-32 -7.48 C-28.4 -13.82, -23.5 -17.12, -16.01 -25.97 M-35.25 3.65 C-31.61 -6.8, -22.9 -15.19, -10.82 -22.73 M-34.71 -1.53 C-26.59 -7.56, -22.71 -13.82, -11.94 -27.7 M-37.1 6.91 C-25.63 1.87, -25.46 -6.74, -9.99 -21.79 M-35.71 5.68 C-26.99 2.61, -21.83 -4.15, -6.99 -23.19 M-35.88 14.14 C-26.95 1.52, -16.43 -8.27, -8.79 -19.22 M-37.04 12.35 C-23.88 3.33, -15.92 -9.54, -3.95 -21.73 M-37.78 19.58 C-24.47 10.21, -17.17 1.77, -6.99 -13.76 M-35.25 20.86 C-27.66 12.64, -21.95 2.66, -2.69 -14.48 M-33.96 20.67 C-22.02 18.7, -20.8 7.89, -1.3 -9.71 M-33.07 24.22 C-20.06 7.57, -8.65 -5.53, -1.36 -12.62 M-29.79 27.07 C-25.24 20.33, -17.84 5.66, -2.63 -3.43 M-27.78 24.15 C-20.23 14.01, -8.31 0.97, -0.73 -8.77 M-26.15 29.61 C-18.93 17.14, -12.07 6.11, 2.12 -1.08 M-27.62 29.19 C-19.64 21.68, -14.08 13.42, 2.78 -1.58 M-27.34 28.3 C-15.89 23.5, -10.19 11.66, 4.7 -1.62 M-22.83 31.86 C-17.39 26.05, -10.81 18.47, 0.77 2.42 M-18.95 38.64 C-2.5 12.22, 10.38 -2.12, 27.19 -24.49 M-22.65 36.02 C-12.01 21.33, 1.43 7.37, 29.31 -21.81 M-17.86 40.78 C-6.25 20.57, 5.96 7.21, 34.32 -27.47 M-16.44 35.22 C0.23 14.03, 20.38 -8.51, 38.14 -26.44 M-14.7 39.09 C-1.79 20.8, 13.28 3.33, 44.16 -24.28 M-15.26 41.4 C-0.96 22.3, 14.95 6.18, 42.29 -27.36 M-14.54 41.89 C11.51 20.05, 33.94 -5.71, 47.27 -21.87 M-11.71 41.67 C-0.63 27.05, 12.52 11.7, 46.08 -24.28 M-6.8 43.67 C8.16 26.84, 21.93 9.43, 42.76 -20.98 M-8.92 45.73 C11.89 20.6, 33.61 -1.95, 48 -20.17 M-6.4 46.64 C8.76 29.15, 26.79 14.11, 50.13 -17.66 M-4.89 48.54 C14.49 21.02, 36.12 -0.38, 49.53 -13.69 M-1.14 51.45 C18.22 31.11, 31.79 8.86, 52.26 -12.75 M-2.93 50.1 C12.52 35.92, 23.53 18.24, 50.89 -11.5 M-0.88 54.68 C13.11 32.07, 35.33 13.68, 48.67 -5.9 M0.01 50.13 C13.32 40.13, 24.25 23.89, 49.3 -1.18 M1.24 54.37 C11.74 42.69, 23.4 28.92, 44.28 3.18 M4.97 54.74 C18.68 36.66, 30.48 21.75, 48.48 4.65 M11.42 54.49 C18.31 45.4, 23.15 38.72, 50.88 10.22 M10.54 53.92 C21.26 44.76, 29.35 31.88, 49.12 8.95 M13.44 51.72 C18.99 48.98, 26.51 44.42, 29.44 29.77 M15.89 53.57 C23.8 45.24, 28.69 37.81, 31.96 34.76 M-22.3 34.8 C-22.3 34.8, -22.3 34.8, -22.3 34.8 M-22.3 34.8 C-22.3 34.8, -22.3 34.8, -22.3 34.8 M1.23 50.4 C-11.08 42.69, -29.43 30.2, -34.7 23.63 M4.23 50.45 C-6.82 42.97, -18.01 32.89, -33.84 19.31 M7.99 53.67 C3.33 44.65, -8.18 34.01, -32.07 10.08 M10.13 53.74 C-7.21 36.75, -23.37 22.1, -35.11 11.64 M11.76 52.31 C-1.66 42.11, -7.79 28.52, -38.93 8.58 M14.53 50.51 C-3.55 36.94, -22.56 20.23, -37.77 6.25 M18.2 46.27 C2.37 31.99, -15.35 16.85, -38.76 -0.09 M18.84 50.49 C-0.85 33.37, -21.84 16.49, -33.78 3.62 M23.66 49.91 C0.35 30.72, -15.47 18.58, -32.34 -5.41 M23.45 47.77 C1.65 29.58, -20.22 10.97, -32.26 -1.97 M20.68 45.47 C11.41 31.9, -6.31 15.54, -34.78 -9.81 M26.11 43.27 C-0.18 24.36, -21.4 7.56, -31.6 -8.07 M29.47 40.2 C11.08 25.68, 1.01 15.67, -29 -11.46 M26.27 39.11 C10.33 24.8, -9.25 8.87, -32.07 -9.69 M26.67 37.58 C6.65 18.81, -13.29 3.98, -33.24 -13.7 M30.74 34.91 C10.89 21.9, -6.62 3.93, -30.49 -15.6 M29.59 36.69 C17.74 24.81, 1.18 9.48, -26.31 -19.03 M30.81 32.24 C13.45 18.17, -4.82 0.62, -28.58 -17.27 M30.25 32.01 C17.25 13.72, 5.4 4.35, -23.85 -23.3 M33.09 27.65 C7.76 9.58, -13.03 -10, -24.33 -21.78 M33.81 22.71 C26.02 21.52, 19.65 8.25, 4.08 -6.06 M34.95 26.99 C26.58 18.83, 13.62 10.28, 3.27 -1.23 M-1.95 -3.25 C-6.57 -7.36, -8.32 -8.78, -25.36 -24.62 M0.75 -1.33 C-3.46 -6.56, -12.21 -11.79, -23.29 -21.54 M36.13 19.71 C26.84 13.55, 13.28 3, 6.33 -3.31 M37.51 23.62 C31.74 18.16, 22.26 9.12, 7.01 -6.64 M-0.59 -12.36 C-9.69 -13.29, -15.8 -20.31, -14.87 -29.26 M-1.32 -10.75 C-6.51 -16.01, -12.17 -20.64, -19.27 -25.11 M39.46 22.92 C29.18 8.87, 19.05 6.66, 9.91 -8.83 M38.89 18.47 C30.09 14.33, 21.37 6.24, 6.21 -9.5 M-3.56 -20.68 C-8.26 -22.35, -6.62 -24.64, -16.26 -26.43 M-4.46 -17.08 C-6.68 -20.8, -8.89 -22.18, -14.62 -29.3 M44.69 15.72 C35.27 3.82, 20.48 0.31, 10.66 -13.54 M42.12 14.37 C29.64 5.61, 20.27 -3.58, 9.46 -10.4 M43.93 13.01 C38.59 5.12, 32.18 3.02, 14.58 -15.28 M42.48 13.7 C36.99 4.86, 26.72 1.27, 14.61 -13.39 M44.46 7.56 C37.66 -1.12, 34.2 -6, 19.67 -14.25 M46.73 10.53 C38.48 2.19, 32.51 -1.73, 19.31 -15.46 M52.6 3.73 C42.94 0.7, 31.98 -10.31, 18.57 -17.22 M50.6 8.32 C40.96 -0.4, 27.87 -10.9, 19.4 -20.35 M50.8 -0.9 C41.26 -3.73, 31.81 -8.15, 26.39 -17.91 M48.27 -0.33 C38.59 -8.09, 32.69 -14.34, 23.34 -20.7 M48.22 -3.68 C41.13 -8.02, 31.14 -21.93, 27.39 -22.95 M47.81 -4.76 C43.17 -7.26, 41.17 -11.4, 27.82 -22.95 M49.96 -8.24 C39.96 -15.13, 35.61 -18.85, 29.78 -27.4 M49.24 -10.43 C44.07 -10.57, 42.94 -16.65, 29.35 -25.7 M52.78 -10.63 C41.98 -17.6, 39.38 -20.82, 29.95 -31.45 M49.19 -11.93 C47.71 -15.56, 39.56 -19.73, 33.45 -27.25 M47.99 -18.39 C48.58 -21.69, 46.05 -22.04, 38.61 -28.24 M48.39 -21.38 C43.84 -24.3, 41.04 -25.89, 37.97 -28.32" stroke-width="0.5" fill="none"></path>
            <path d="M-1.01 2.56 C-2.76 -1.71, -7.44 -25.99, -12.88 -28.06 C-18.32 -30.12, -29.74 -18.38, -33.64 -9.82 C-37.55 -1.25, -40.44 13.79, -36.31 23.34 C-32.18 32.89, -17.52 42.48, -8.84 47.46 C-0.17 52.43, 6.93 59.49, 15.76 53.19 C24.59 46.89, 39.44 22.95, 44.13 9.66 C48.82 -3.62, 46.82 -21.13, 43.9 -26.55 C40.97 -31.96, 33.54 -27.13, 26.6 -22.82 C19.65 -18.51, 6.91 -4.57, 2.23 -0.7 M3.63 1.49 C1.65 -2.15, -9.11 -23.53, -15.57 -24.88 C-22.02 -26.24, -31.56 -13.88, -35.1 -6.64 C-38.63 0.6, -41.92 10.63, -36.76 18.58 C-31.6 26.53, -13.5 35.6, -4.14 41.05 C5.21 46.5, 11.29 56.88, 19.36 51.26 C27.43 45.63, 40.65 20.59, 44.28 7.29 C47.9 -6, 43.31 -23.06, 41.1 -28.52 C38.88 -33.97, 38.42 -29.84, 31.01 -25.44 C23.59 -21.05, 2.03 -6.87, -3.38 -2.14" stroke="#000000" stroke-width="1" fill="none"></path>
        </g>
    </g>
    <g stroke-linecap="round" class="heart4">
        <g transform="translate(47.183001167637144 43.55545016244764) rotate(0 8.281547035630922 12.887805271517038)" fill-rule="evenodd">
            <path d="M-29.76 -16.6 C-29.76 -16.6, -29.76 -16.6, -29.76 -16.6 M-29.76 -16.6 C-29.76 -16.6, -29.76 -16.6, -29.76 -16.6 M-35.99 -9.88 C-30.16 -16.31, -26.26 -19.69, -13.18 -24.48 M-31.54 -9.23 C-27.99 -14.13, -21.41 -16.97, -17.58 -26.85 M-29.88 -3.59 C-29.4 -5.64, -26.85 -11.71, -6.89 -28.02 M-35.07 0.93 C-27.49 -8.66, -20.13 -16.61, -11.86 -27.71 M-34.7 9.34 C-26.58 -3.31, -22 -8.16, -6.97 -26.76 M-35.93 8.72 C-26.85 1.95, -21.44 -4.9, -8.37 -22.37 M-35.54 12.37 C-28.7 3.76, -18.95 -7.44, -4.01 -19.43 M-37.33 15.57 C-27.81 5.83, -22.11 -0.69, -6.52 -21.6 M-33.94 21.09 C-27.5 13.22, -20.2 -0.22, -0.97 -19.27 M-32.65 19.59 C-20.5 4.44, -10.15 -8.07, -1.69 -18.22 M-33.86 26.05 C-21.96 13.47, -18.83 7.89, -0.76 -7.87 M-30.31 23.26 C-23.84 12, -13.73 0.95, -3.67 -12.15 M-28.48 23.24 C-15.52 10.36, -10.4 -1.31, 3.09 -4.16 M-31.4 24.8 C-18.64 13.35, -8.76 1.57, -2.25 -6.43 M-26.96 28.57 C-17.23 12.81, -6.02 4.75, 3.02 -4.61 M-27.38 29.5 C-17.75 17.94, -8.94 11.65, 2.52 -2.63 M-27.87 31.36 C-16.54 21.63, -12.2 20.47, -1.36 -0.77 M-24.31 32.14 C-16.78 25.1, -11.09 16.29, 2.68 2.53 M-18.55 38.15 C-7.44 12.57, 15.82 -7.98, 26.95 -25.43 M-21.17 33.58 C-5.89 16.86, 10.03 -1.03, 29.64 -24.14 M-14.6 35.34 C-6.43 19.02, 8.59 3, 37.06 -24.97 M-20.16 36.42 C-0.7 15.13, 17.41 -5.07, 38.09 -27.73 M-15.89 38.35 C0.53 18.04, 17.9 1.36, 43.47 -27.51 M-13.58 38.85 C-0.38 22.32, 15.89 4.84, 40.39 -24.53 M-12.7 44.71 C6.18 27.82, 21.15 7.15, 47.68 -26.64 M-12.92 40.79 C6.83 18.61, 25.75 -0.45, 45.27 -24.88 M-9.12 45.9 C2.79 30.89, 13.95 11.51, 44.74 -16.5 M-7.05 44.48 C7.13 27.7, 23.91 8.66, 45.55 -19.39 M-5.75 46.34 C13.04 27.84, 34.32 6.13, 45.63 -11.85 M-3.85 46.42 C7.56 29.41, 25.2 11.83, 49.6 -14.09 M-0.55 51.63 C12.02 32.93, 22.54 23.87, 46.7 -11.94 M-1.9 50.44 C10.45 35.36, 19.36 24.91, 47.95 -9.52 M4.48 47.53 C12.65 39.76, 25.12 22.16, 45.49 -5.15 M-0.06 51.58 C15.8 37.13, 25.38 23.99, 50.21 -4.35 M4.57 51.01 C15.57 40.43, 24.54 25.11, 47.9 3.34 M4.94 56.01 C17.47 36.39, 33.27 17.89, 49.37 1.67 M9.32 56.16 C24.66 35.02, 42.48 22.07, 48.29 8.52 M8.75 55.83 C21.91 41.19, 31.24 31.26, 47.01 9.68 M15.41 50.57 C24.44 46.37, 31.66 34.94, 30.14 34.43 M17.26 54.26 C20.41 47.85, 24.48 40.11, 35.13 31.37 M-22.3 34.8 C-22.3 34.8, -22.3 34.8, -22.3 34.8 M-22.3 34.8 C-22.3 34.8, -22.3 34.8, -22.3 34.8 M2 52.24 C-7.02 34.99, -21.73 24.75, -29.61 19.84 M2.05 52.31 C-6.18 43.81, -16.47 34.79, -33.93 18.89 M11.4 56.25 C3.51 46.86, -7.31 38.33, -38.21 15.12 M11.47 52.22 C-4.13 40.22, -18.76 27.56, -36.65 11.44 M16.08 48.66 C-4.76 36.71, -27.56 12.35, -34.46 9.02 M14.27 50.7 C5.65 39.04, -7.11 28.65, -36.79 7.16 M15.68 50.46 C-0.99 34.75, -18.61 14.96, -37.69 5.43 M19.9 49.88 C2.37 35.31, -13.07 22.68, -33.98 2.5 M25.06 42.82 C-1.06 27.32, -18.24 14.33, -37.56 1.31 M22.92 46.97 C11.01 36.9, -1.1 28.5, -34.12 -2.29 M26.27 45.98 C13.72 32.58, -1.01 19.08, -36.52 -2.65 M24.07 42.07 C1.86 26.06, -16.37 9.62, -34.77 -7.57 M26.54 37.97 C9.47 30.45, -2.58 19.99, -32.82 -11.25 M25.45 41.67 C8.03 24.4, -10.2 9.74, -31.04 -10.59 M29.56 35.25 C7.84 15.43, -11.69 -4.46, -29.51 -14.72 M26.89 36.31 C17.97 26.56, 2.53 15.14, -31.41 -16.67 M34.22 33.64 C8.66 9.48, -18.55 -4.92, -29.2 -17.24 M29.77 34.26 C16.17 21.24, -0.64 5.81, -27.43 -18.77 M35.08 29.57 C9.52 15.36, -5.99 -2.97, -27.82 -17.57 M30.72 27.71 C12.73 11.2, -8.54 -5.76, -26.3 -21.22 M31.42 26.91 C27.51 20.87, 12.21 10.39, -1.68 -1.96 M35.7 28.47 C23.41 15.37, 11.92 7.03, 3.14 -3.87 M1.13 -5.43 C-6.88 -9.15, -11.52 -19.82, -23.4 -24.69 M3.04 -1.61 C-2.9 -9.54, -8.63 -14.43, -20.32 -21.62 M33.97 24.77 C30.09 15.17, 20.84 7.41, 6.81 -7.79 M37.87 24.6 C28.44 13.73, 15.67 7.42, 3.48 -3.38 M-3.03 -12.53 C-2.22 -15.98, -8.04 -14.02, -22.3 -23.41 M-1.42 -9.27 C-7.65 -13.82, -12.69 -21.09, -18.16 -25.46 M42.83 19.68 C24.82 8.6, 18.79 0.07, 6.93 -8.65 M38.37 19.15 C30.27 9.74, 19.23 -0.64, 6.26 -9.59 M-6.4 -20.11 C-9.18 -18.84, -12.57 -24.16, -13.73 -30.05 M-2.8 -18.24 C-6.83 -20.14, -8.45 -21.78, -16.6 -27.26 M41.17 20.04 C30.75 10.22, 29.46 3.74, 7.96 -7.57 M39.82 15.2 C31.6 8.81, 22.58 -1.91, 11.1 -11.24 M44.09 14.4 C35.76 9.44, 33.34 2.03, 11.86 -14.67 M44.79 13.96 C32.68 2.2, 25.78 -4.47, 13.75 -13.88 M44.19 8.07 C36.19 6.61, 31.77 0.95, 18.64 -17.7 M47.17 8.37 C40.01 4.47, 36.3 1.31, 17.42 -14.51 M46 10.2 C46.45 4.43, 37.98 -5.13, 21.3 -16.5 M50.6 8.4 C42.8 -0.06, 34.19 -5.53, 18.18 -18.8 M46.73 0.94 C42.11 -7.75, 36.27 -8.85, 26.36 -18.63 M47.29 -0.09 C41.43 -2.91, 36.4 -10.5, 23.57 -19.31 M49.3 -3.32 C47.65 -9.32, 36.01 -11.7, 26.96 -27.85 M48.21 -5.16 C42.81 -8.72, 35.99 -13.88, 26.96 -23.14 M50.08 -11.68 C43.34 -13.56, 40.53 -16.94, 28.25 -30.1 M47.89 -9.75 C43.08 -13.93, 32.45 -22.86, 29.96 -25.01 M53.13 -15.45 C45.63 -16.52, 42.22 -26.09, 30.04 -28.71 M51.83 -11.41 C48.57 -18.36, 44.77 -19.99, 34.24 -29.65 M50.33 -17.93 C45.29 -21.48, 43.21 -26.5, 39.2 -27.26 M47.34 -21.42 C45.64 -22.46, 45.03 -24.64, 39.11 -28.86" stroke-width="0.5" fill="none"></path>
            <path d="M2.56 -0.83 C0.82 -5.09, -6.77 -24.73, -12.89 -26.56 C-19.01 -28.4, -30.98 -19.64, -34.17 -11.85 C-37.37 -4.07, -36.82 10.57, -32.05 20.13 C-27.28 29.7, -13.62 40.61, -5.57 45.54 C2.48 50.47, 7.28 56.04, 16.23 49.7 C25.18 43.36, 43.76 19.93, 48.13 7.49 C52.5 -4.95, 45.75 -20.05, 42.45 -24.93 C39.15 -29.8, 35.49 -25.68, 28.3 -21.77 C21.11 -17.86, 3.95 -4.78, -0.7 -1.45 M0.51 -3.75 C-1.46 -8.81, -9.52 -30.22, -15.59 -31.22 C-21.66 -32.23, -33.48 -18.7, -35.91 -9.78 C-38.35 -0.87, -34.89 12.85, -30.19 22.27 C-25.5 31.69, -14.67 41.35, -7.73 46.73 C-0.79 52.1, 1.75 61.65, 11.44 54.52 C21.14 47.39, 44.44 17.36, 50.45 3.93 C56.46 -9.49, 51.75 -21.39, 47.51 -26.01 C43.26 -30.64, 32.79 -27.61, 25 -23.82 C17.2 -20.04, 4.68 -7.2, 0.74 -3.31" stroke="#000000" stroke-width="1" fill="none"></path>
        </g>
    </g>
</svg>