<?xml version="1.0" encoding="utf-8"?>
<!-- Svg Vector Icons : http://www.onlinewebfonts.com/icon -->
<!DOCTYPE svg PUBLIC "-//W3C//DTD SVG 1.1//EN" "http://www.w3.org/Graphics/SVG/1.1/DTD/svg11.dtd">
<svg version="1.1" xmlns="http://www.w3.org/2000/svg" xmlns:xlink="http://www.w3.org/1999/xlink" x="0px" y="0px" viewBox="0 0 1000 1000" enable-background="new 0 0 1000 1000" xml:space="preserve">
<metadata> Svg Vector Icons : http://www.onlinewebfonts.com/icon </metadata>
<g fill="inherit" transform="translate(0.000000,512.000000) scale(0.100000,-0.100000)"><path d="M4368.8,4930.9c-74.8-49.8-141.8-93.9-147.6-99.7c-5.8-5.7,38.3-69,93.9-139.9c320.1-398.7,421.7-732.2,408.3-1341.8c-1.9-174.4-13.4-324-21.1-331.6c-7.7-7.7-138,0-287.5,17.2c-964.2,118.8-1819.1,72.9-2304-120.8C1317.2,2596.2,801.6,2140,479.5,1469.1C207.3,903.6,100,340,100-526.4c0-582.7,21.1-791.7,132.3-1228.7c243.4-958.4,764.8-1627.4,1786.5-2296.4c565.5-369.9,1265.1-588.5,2235-695.8c414-44.1,1234.4-46,1604.4,0c398.7,47.9,824.2,120.8,1029.3,176.4c425.6,113.1,923.9,341.2,1230.6,559.7c226.2,162.9,550.1,471.5,808.9,774.4c749.5,870.3,1004.4,1598.7,969.9,2777.5c-38.3,1276.6-320.1,2112.4-912.4,2704.7c-509.9,509.9-1171.2,774.4-1995.4,797.4c-295.2,9.6-385.3,3.8-724.6-42.2c-212.8-28.8-391.1-49.8-396.8-44.1c-3.9,3.8-38.3,111.2-74.8,237.7c-134.2,454.3-356.5,943.1-548.2,1198c-126.5,168.7-385.3,412.1-565.5,532.9c-80.5,53.7-153.3,97.8-159.1,95.8C4512.6,5021,4445.5,4978.8,4368.8,4930.9z M3057.7,880.6c260.7-258.8,527.1-475.4,847.2-686.2c166.8-111.2,220.4-155.3,195.5-162.9c-74.8-23-513.7-86.3-743.7-109.3c-291.4-26.8-651.7-13.4-791.7,30.7c-128.4,40.3-235.8,136.1-293.3,264.5c-40.3,86.3-46,128.4-44.1,310.5c1.9,249.2,51.7,440.9,195.5,745.7l88.2,187.8l162.9-178.3C2762.5,1183.5,2936.9,1003.3,3057.7,880.6z M7535.4,1281.2c141.9-300.9,187.8-485,189.8-753.3c1.9-195.5-3.8-243.4-38.3-318.2c-59.5-126.5-161-220.4-279.9-256.9c-254.9-76.7-929.7-46-1485.5,69L5819.9,41L6046,190.5c122.7,82.4,306.7,212.8,406.4,289.4c207,161,623,561.6,839.6,808.9c80.5,93.9,149.5,168.7,153.3,168.7C7449.2,1457.6,7489.4,1377.1,7535.4,1281.2z M5325.3-865.7c176.3-266.4,318.2-485,316.3-488.8c-3.8-1.9-92,13.4-195.5,36.4c-264.6,55.6-636.4,55.6-900.9,0c-103.5-23-191.7-38.3-195.5-36.4c-5.7,7.7,634.5,969.9,646,969.9C5001.3-384.5,5149-601.1,5325.3-865.7z M1930.6-1580.6c233.8-143.8,713.1-329.7,1083-419.8l136.1-32.6l44.1-147.6c51.8-170.6,138-348.9,189.8-394.9c40.3-36.4,249.2-76.7,492.6-95.9l155.3-11.5l-7.7,224.3c-3.8,124.6,0,237.7,9.6,251.1c15.3,21.1,74.8,23,331.6,5.8c486.9-32.6,1075.3-23,1608.2,23c44.1,3.8,47.9-3.8,61.3-101.6c7.7-57.5,5.8-170.6-1.9-249.2c-9.6-78.6-13.4-147.6-9.6-151.4c13.4-15.3,538.6,36.4,601.9,57.5c86.3,30.7,153.3,145.7,231.9,398.7l65.2,210.9l95.8,23c320.1,76.7,820.4,272.2,1044.7,412.1c76.7,46,143.8,82.4,147.6,76.7c15.4-13.4-101.6-264.5-193.6-421.7c-281.8-477.3-726.5-885.6-1240.2-1144.3c-331.6-164.9-803.2-304.8-1200-350.8c-97.8-11.5-101.6-11.5-111.2,40.3c-5.8,28.8-47.9,164.8-92,300.9l-80.5,245.4h-210.8c-115,0-251.1-1.9-299-1.9l-88.2-1.9l-59.4-176.3c-32.6-97.8-69-231.9-82.4-299l-24.9-120.8l-107.3,11.5c-191.7,23-561.6,103.5-747.6,162.9c-249.2,80.5-615.3,260.7-828.1,406.4c-425.5,291.4-828.1,770.6-1014,1207.6c-55.6,128.4-63.3,149.5-47.9,149.5C1786.8-1494.4,1853.9-1532.7,1930.6-1580.6z"/></g>
</svg>