<svg xmlns="http://www.w3.org/2000/svg" xmlns:xlink="http://www.w3.org/1999/xlink" version="1.1" x="0px" y="0px" viewBox="-1 0 38 101" preserveAspectRatio="xMidYMid meet">
<!-- 
   https://thenounproject.com/search/?q=noose&i=1987506
   Noose by Kaleo from the Noun Project 
-->


<path stroke="inherit" fill="inherit" d="m 18,-34.699 c -1.1,0 -2,0.9 -2,2 v 67.898219 c -1.8,-2.2 -4.399609,-4 -8.0996094,-4 H 7.6992188 c -1.1000001,0 -2,0.9 -2,2 0,1.1 0.8999999,2 2,2 h 0.1015624 c 4.9999998,0 7.1984378,5.900781 7.8984378,8.300781 l -3.09961,0.400391 c -1.1,0.1 -1.899218,1.099218 -1.699218,2.199218 0.1,1 1,1.800782 2,1.800782 h 0.298828 L 16,47.5 v 1.900391 l -3.300781,0.40039 C 11.599219,49.900781 10.8,50.9 11,52 c 0.1,1 1,1.800781 2,1.800781 h 0.300781 l 2.798828,-0.40039 v 1.90039 l -3.298828,0.398438 c -1.1,0.1 -1.901172,1.101172 -1.701172,2.201172 0.1,1 1,1.798828 2,1.798828 h 0.300782 l 0.5,-0.09961 c -3.2,1.2 -6.2007816,3.59961 -8.8007816,7.09961 -3.2,4.5 -5.0996094,10.1 -5.0996094,15 C 0,91.799219 8.2007812,100 18.300781,100 c 10.1,0 18.298828,-8.200781 18.298828,-18.300781 -0.3,-4.8 -2.2,-10.398438 -5.5,-14.898438 C 27.899609,62.400781 24.1,59.699609 20,59.099609 V 58.900391 L 23.300781,58.5 C 24.400781,58.4 25.2,57.400781 25,56.300781 c -0.1,-1.1 -1.099219,-1.901172 -2.199219,-1.701172 L 20,54.900391 V 53 l 3.300781,-0.400391 c 1.1,-0.1 1.899219,-1.099218 1.699219,-2.199218 -0.1,-1.1 -1.099219,-1.901172 -2.199219,-1.701172 L 20,49 v -1.900391 l 3.300781,-0.40039 C 24.400781,46.599219 25.2,45.6 25,44.5 24.9,43.4 23.900781,42.600781 22.800781,42.800781 L 20,43.099414 V -32.699 c 0,-1.1 -0.9,-2 -2,-2 z m 0,97.599391 c 7.6,0 14.300781,10.60039 14.300781,18.90039 0,7.9 -6.400781,14.298828 -14.300781,14.298828 -7.9,0 -14.3007813,-6.398828 -14.3007812,-14.298828 0,-8.3 6.7007812,-18.90039 14.3007812,-18.90039 z"></path></svg>