<?xml version="1.0" encoding="UTF-8" standalone="no"?>
<!-- Created with Inkscape (http://www.inkscape.org/) -->

<svg
   xmlns:dc="http://purl.org/dc/elements/1.1/"
   xmlns:cc="http://creativecommons.org/ns#"
   xmlns:rdf="http://www.w3.org/1999/02/22-rdf-syntax-ns#"
   xmlns:svg="http://www.w3.org/2000/svg"
   xmlns="http://www.w3.org/2000/svg"
   xmlns:sodipodi="http://sodipodi.sourceforge.net/DTD/sodipodi-0.dtd"
   xmlns:inkscape="http://www.inkscape.org/namespaces/inkscape"
   width="28.824635mm"
   height="47.679653mm"
   viewBox="0 0 28.824635 47.679653"
   version="1.1"
   id="svg6529"
   inkscape:version="0.92.5 (2060ec1f9f, 2020-04-08)"
   sodipodi:docname="pumpkin-background.svg">
  <defs
     id="defs6523">
    <clipPath
       clipPathUnits="userSpaceOnUse"
       id="clipPath2676-0">
      <rect
         style="opacity:0.42900002;fill:#9a6322;fill-opacity:1;stroke:#000000;stroke-width:0.22371015;stroke-opacity:1"
         id="rect2678-6"
         width="28.97504"
         height="47.679653"
         x="-24.757669"
         y="145.29399" />
    </clipPath>
  </defs>
  <sodipodi:namedview
     id="base"
     pagecolor="#ffffff"
     bordercolor="#666666"
     borderopacity="1.0"
     inkscape:pageopacity="0.0"
     inkscape:pageshadow="2"
     inkscape:zoom="1.6337891"
     inkscape:cx="-169.23179"
     inkscape:cy="-91.118476"
     inkscape:document-units="mm"
     inkscape:current-layer="layer1"
     showgrid="false"
     fit-margin-top="0"
     fit-margin-left="0"
     fit-margin-right="0"
     fit-margin-bottom="0"
     inkscape:window-width="2560"
     inkscape:window-height="1462"
     inkscape:window-x="0"
     inkscape:window-y="0"
     inkscape:window-maximized="1" />
  <metadata
     id="metadata6526">
    <rdf:RDF>
      <cc:Work
         rdf:about="">
        <dc:format>image/svg+xml</dc:format>
        <dc:type
           rdf:resource="http://purl.org/dc/dcmitype/StillImage" />
        <dc:title></dc:title>
      </cc:Work>
    </rdf:RDF>
  </metadata>
  <g
     inkscape:label="Layer 1"
     inkscape:groupmode="layer"
     id="layer1"
     transform="translate(-102.5117,-77.04525)">
    <g
       id="g2533-7-1"
       transform="translate(127.11896,-68.248741)"
       clip-path="url(#clipPath2676-0)">
      <path
         inkscape:connector-curvature="0"
         id="path1507-1-5"
         style="fill:#eb6541;fill-opacity:1;fill-rule:evenodd;stroke:none;stroke-width:0.03527778"
         d="m -12.880097,179.84057 c -0.123119,0.23283 -0.246238,0.46566 -0.369358,0.6985 -0.08361,0.15839 -0.244828,0.2861 -0.36583,0.41627 -0.575028,0.61736 -1.262945,1.01741 -2.012598,1.39065 -0.04198,-0.11782 -0.175683,-0.69462 -0.288572,-0.68932 -0.158045,0.007 -0.763058,-0.0557 -0.789517,0.10653 -0.02963,0.18274 -0.05927,0.36548 -0.08925,0.54787 -0.02434,0.14958 0.0127,0.19967 -0.138994,0.18168 -0.285044,-0.0346 -0.570089,-0.0748 -0.856545,-0.0977 -0.318558,-0.025 -0.614186,-0.0367 -0.919691,-0.13018 -0.124884,-0.0384 -0.249414,-0.0236 -0.257175,-0.1598 l -0.03387,-0.58773 c -0.0074,-0.127 -0.608542,-0.20955 -0.740481,-0.24483 -0.01411,-0.004 -0.215194,0.69603 -0.23883,0.77435 -0.386645,-0.18062 -0.770114,-0.36372 -1.15182,-0.55457 -0.32385,-0.16228 -0.56903,-0.44626 -0.784577,-0.73766 -0.270228,-0.36477 -0.539398,-0.69638 -0.727075,-1.10913 -0.184856,-0.40746 -0.274462,-0.78564 -0.371828,-1.22414 0.272344,0.21484 0.544689,0.42968 0.81668,0.64488 0.192617,0.15205 0.438503,0.35595 0.666398,0.44132 0.1778,0.0667 0.354894,0.13335 0.532694,0.19968 0.110772,0.0416 0.0755,0.31714 0.08502,0.42403 0.01658,0.1898 0.06703,0.15699 0.253294,0.20638 0.167217,0.0448 0.334433,0.0893 0.502003,0.13406 0.01729,-0.17004 0.03492,-0.33973 0.05292,-0.50977 0.280106,0.0342 0.565856,0.0896 0.848078,0.0998 l 0.550686,0.0208 c 0.08925,0.003 0.398992,-0.0385 0.470959,0.0176 0.07197,0.0557 0.09525,0.40005 0.117122,0.49036 0.04057,0.1718 0.07479,0.13053 0.253294,0.13723 l 0.63112,0.0236 c 0.179917,0.007 0.138289,-0.0321 0.162631,-0.21379 0.01164,-0.0885 0.0011,-0.43285 0.06526,-0.49388 0.07303,-0.0684 0.44062,-0.043 0.540809,-0.0529 0.306211,-0.0303 0.608542,-0.0811 0.912283,-0.12735 0.05151,-0.008 0.128059,0.30938 0.145697,0.35948 0.05468,0.15839 0.02893,0.2734 0.198262,0.23424 0.191911,-0.0452 0.384175,-0.09 0.576438,-0.13441 0.129117,-0.03 0.100542,-0.19261 0.120298,-0.31397 0.0194,-0.11747 0.01094,-0.47343 0.121002,-0.53728 0.207081,-0.1203 0.414162,-0.24059 0.621242,-0.36054 0.14605,-0.085 0.373592,-0.10724 0.535164,-0.15275 l 0.640645,-0.18098 c -0.07902,0.35278 -0.1143,0.74154 -0.283987,1.06328 z m -8.095897,-4.07318 c 0.174625,-0.46214 0.534105,-0.90487 0.782814,-1.32574 0.417689,0.78917 0.819503,1.58257 1.211791,2.3876 -0.864305,0.14605 -1.720497,0.30763 -2.579864,0.48895 0.195086,-0.51717 0.390173,-1.03363 0.585259,-1.55081 z m 5.426075,-1.57056 c 0.305506,0.50941 0.611364,1.01882 0.91687,1.52823 0.238477,0.39723 0.336197,0.90205 0.484364,1.3395 -0.821267,-0.0917 -1.642534,-0.18309 -2.463801,-0.27482 0.321381,-0.89005 0.663223,-1.73496 1.062567,-2.59291 z m 5.102931,0.99695 c -0.190147,-0.79693 -0.711906,-1.41711 -1.277056,-1.97697 -0.281164,-0.27869 -0.611011,-0.44309 -0.954264,-0.64311 -0.318558,-0.18557 -0.656166,-0.18451 -0.988483,-0.32773 -0.404636,-0.17534 -0.760236,-0.26635 -1.1938,-0.35525 -0.338667,-0.0698 -0.693561,0.048 -1.037167,-0.006 -0.254353,-0.0395 -0.503061,-0.0568 -0.748594,-0.0533 -0.07832,-0.10971 -0.162984,-0.22295 -0.211667,-0.34007 -0.06033,-0.145 -0.07514,-0.32209 -0.111125,-0.47661 -0.04621,-0.19826 -0.04586,-0.32526 -0.265289,-0.38982 -0.127,-0.037 -0.358775,-0.0349 -0.490008,-0.0159 -0.245534,0.0353 -0.348192,0.037 -0.528109,0.2039 -0.06738,0.0631 0.02822,0.3355 0.05715,0.42052 0.111831,0.32632 0.09102,0.53692 -0.01552,0.81527 -0.298097,-0.10654 -0.663222,-0.28082 -0.941211,-0.30234 -0.36195,-0.0279 -0.787753,0.16299 -1.16452,0.16793 -0.838905,0.0102 -1.581502,0.0332 -2.291997,0.53093 -0.732014,0.51258 -1.292225,1.04704 -1.652764,1.90606 -0.301978,0.71896 -0.36195,1.51976 -0.342547,2.28388 0.02505,0.9966 0.127705,1.72614 0.390172,2.68817 0.162983,0.59619 0.445911,1.5815 0.896408,1.98825 0.702381,0.6343 1.244601,1.18675 2.112787,1.54975 0.719666,0.30128 1.484136,0.39053 2.262011,0.4752 1.57727,0.17215 3.176764,0.25153 4.733925,-0.12242 1.696156,-0.4071 2.73932,-1.6517 3.428295,-3.18346 0.721078,-1.60408 0.735542,-3.15666 0.333375,-4.83729 v 0" />
      <path
         inkscape:connector-curvature="0"
         id="path1515-7-9"
         style="fill:#eb6541;fill-opacity:1;fill-rule:evenodd;stroke:none;stroke-width:0.03527778"
         d="m 1.5887322,186.531 c -0.1227667,0.23318 -0.2462389,0.46566 -0.3693584,0.69885 -0.083256,0.15804 -0.24482779,0.2861 -0.36583057,0.41592 -0.57502782,0.61737 -1.26259175,1.01742 -2.01259733,1.39065 -0.041628,-0.11782 -0.1756834,-0.69426 -0.2882195,-0.68897 -0.1580444,0.007 -0.7634111,-0.0557 -0.7898695,0.10619 -0.029633,0.18273 -0.059267,0.36547 -0.089253,0.54786 -0.024342,0.14993 0.0127,0.20002 -0.1386416,0.18168 -0.2850445,-0.0346 -0.5704417,-0.0748 -0.8565445,-0.0974 -0.3185584,-0.0254 -0.614539,-0.0367 -0.9196918,-0.13052 -0.1248833,-0.0385 -0.2497666,-0.0236 -0.257175,-0.15981 l -0.034219,-0.58738 c -0.00741,-0.12735 -0.6085417,-0.2099 -0.7404806,-0.24483 -0.013758,-0.004 -0.2151945,0.69568 -0.2384778,0.774 -0.3869973,-0.18062 -0.770114,-0.36336 -1.1518195,-0.55421 -0.3238501,-0.16264 -0.5690306,-0.44662 -0.7849306,-0.73802 -0.2698751,-0.36442 -0.5393973,-0.69638 -0.7267223,-1.10913 -0.1848556,-0.40746 -0.2744611,-0.78528 -0.3718278,-1.22414 0.2719917,0.21484 0.5443361,0.43004 0.8163278,0.64488 0.1926167,0.15205 0.4385028,0.35595 0.6667501,0.44132 0.1774472,0.0667 0.3548944,0.13335 0.5323417,0.20003 0.1107722,0.0416 0.075847,0.31679 0.085019,0.42404 0.016581,0.18979 0.067028,0.15663 0.2532945,0.20637 0.1675694,0.0444 0.3344333,0.0893 0.5020028,0.13406 0.017286,-0.17004 0.035278,-0.34008 0.052917,-0.50976 0.2804583,0.0339 0.5658555,0.0892 0.8484306,0.0998 l 0.5506861,0.0208 c 0.0889,0.003 0.3986389,-0.0388 0.4709584,0.0173 0.071614,0.0561 0.09525,0.40005 0.1167694,0.49036 0.04057,0.17216 0.074789,0.13053 0.2536473,0.13723 l 0.6311194,0.0236 c 0.1799167,0.007 0.1379362,-0.0321 0.1622778,-0.21378 0.011642,-0.0885 0.00141,-0.43251 0.065617,-0.49354 0.073025,-0.0688 0.4402667,-0.0434 0.5408084,-0.0533 0.3058583,-0.03 0.6081889,-0.0811 0.9119306,-0.12735 0.051505,-0.007 0.1284111,0.30938 0.14604999,0.35948 0.0546806,0.1584 0.028575,0.2734 0.19790835,0.23424 0.1922639,-0.0448 0.38417502,-0.0896 0.5767917,-0.13441 0.1287639,-0.03 0.1001889,-0.19226 0.11994445,-0.31362 0.01940278,-0.11782 0.01093612,-0.47378 0.12100279,-0.53763 0.20708057,-0.1203 0.41416114,-0.24024 0.6212417,-0.36054 0.14605001,-0.085 0.37394452,-0.10724 0.53516392,-0.15275 l 0.6409973,-0.18098 c -0.079375,0.35314 -0.1143,0.7419 -0.2843389,1.06328 z m -8.095545,-4.07318 c 0.174625,-0.46213 0.5337528,-0.90487 0.7824612,-1.32573 0.4176889,0.78951 0.8195028,1.58256 1.2121445,2.3876 -0.8646584,0.14605 -1.7208501,0.30797 -2.5798641,0.48895 0.1950862,-0.51718 0.3898195,-1.03364 0.5852584,-1.55082 z m 5.4257226,-1.57056 c 0.30585833,0.50941 0.6113639,1.01882 0.91686947,1.52823 0.2384778,0.39723 0.33619725,0.90241 0.4847167,1.3395 -0.82126672,-0.0914 -1.64288617,-0.18309 -2.46380017,-0.27446 0.3213806,-0.89041 0.6628695,-1.73532 1.062214,-2.59327 z m 5.1032836,0.99695 c -0.1905,-0.79693 -0.7119056,-1.41676 -1.2770556,-1.97662 -0.2811639,-0.27904 -0.6113639,-0.44344 -0.9546167,-0.64346 -0.3185584,-0.18556 -0.6561667,-0.18415 -0.98848343,-0.32773 -0.40428336,-0.17533 -0.75988338,-0.26635 -1.19380008,-0.35525 -0.33866668,-0.0695 -0.69356119,0.048 -1.03716669,-0.005 -0.2543528,-0.0399 -0.5027084,-0.0572 -0.7482418,-0.0536 -0.078317,-0.10972 -0.1633361,-0.22261 -0.2120194,-0.34008 -0.059972,-0.14464 -0.074789,-0.32209 -0.111125,-0.47625 -0.045861,-0.19862 -0.045861,-0.32562 -0.2652889,-0.38982 -0.127,-0.0374 -0.3584223,-0.0353 -0.4900084,-0.0162 -0.2451806,0.0353 -0.3478389,0.037 -0.5277556,0.20391 -0.067381,0.0631 0.028222,0.33549 0.05715,0.42086 0.1114778,0.32632 0.090664,0.53657 -0.015875,0.81492 -0.2980972,-0.10654 -0.6632222,-0.28081 -0.9408584,-0.30198 -0.3623028,-0.0282 -0.7881056,0.16298 -1.1645195,0.16757 -0.8392584,0.0106 -1.5815029,0.0332 -2.2923501,0.53093 -0.732014,0.51258 -1.2918723,1.04704 -1.652764,1.90606 -0.3019778,0.71896 -0.3615968,1.51976 -0.3425468,2.28388 0.02505,0.9966 0.127705,1.72614 0.3901718,2.68817 0.1629833,0.59619 0.4462639,1.58185 0.8964084,1.98825 0.7023806,0.6343 1.2449528,1.1871 2.1127862,1.54976 0.7196667,0.30127 1.4841362,0.39052 2.2620113,0.47519 1.5776223,0.17215 3.1767641,0.25153 4.73392527,-0.12242 1.69615563,-0.4071 2.73931963,-1.65135 3.42829463,-3.18346 0.7210779,-1.60373 0.7355417,-3.15666 0.3337278,-4.83729 v 0" />
      <path
         inkscape:connector-curvature="0"
         id="path1535-2-4"
         style="fill:#231f20;fill-opacity:1;fill-rule:evenodd;stroke:none;stroke-width:0.03527778"
         d="m -12.880097,148.11526 c -0.123119,0.23283 -0.246238,0.46567 -0.369358,0.6985 -0.08361,0.1584 -0.244828,0.2861 -0.36583,0.41628 -0.575028,0.61736 -1.262945,1.01741 -2.012598,1.39065 -0.04198,-0.11783 -0.175683,-0.69462 -0.288572,-0.68933 -0.158045,0.007 -0.763058,-0.0557 -0.789517,0.10654 -0.02963,0.18274 -0.05927,0.36512 -0.08925,0.54786 -0.02434,0.14958 0.0127,0.19967 -0.138994,0.18168 -0.285044,-0.0346 -0.570089,-0.0751 -0.856545,-0.0977 -0.318558,-0.025 -0.614186,-0.0367 -0.919691,-0.13017 -0.124884,-0.0388 -0.249414,-0.0236 -0.257175,-0.15981 l -0.03387,-0.58773 c -0.0074,-0.127 -0.608542,-0.20955 -0.740481,-0.24483 -0.01411,-0.004 -0.215194,0.69568 -0.23883,0.77435 -0.386645,-0.18062 -0.770114,-0.36371 -1.15182,-0.55457 -0.32385,-0.16227 -0.56903,-0.44661 -0.784577,-0.73765 -0.270228,-0.36442 -0.539398,-0.69639 -0.727075,-1.10949 -0.184856,-0.40711 -0.274462,-0.78528 -0.371828,-1.22379 0.272344,0.21484 0.544689,0.42969 0.81668,0.64488 0.192617,0.15205 0.438503,0.35595 0.666398,0.44133 0.1778,0.0667 0.354894,0.13335 0.532694,0.19967 0.110772,0.0416 0.0755,0.31715 0.08502,0.42404 0.01658,0.18979 0.06703,0.15698 0.253294,0.20637 0.167217,0.0448 0.334433,0.0893 0.502003,0.13406 0.01729,-0.17004 0.03492,-0.33973 0.05292,-0.50977 0.280106,0.0342 0.565856,0.0896 0.848078,0.0998 l 0.550686,0.0208 c 0.08925,0.004 0.398992,-0.0384 0.470959,0.0176 0.07197,0.0557 0.09525,0.40005 0.117122,0.49036 0.04057,0.17181 0.07479,0.13053 0.253294,0.13723 l 0.63112,0.0236 c 0.179917,0.007 0.138289,-0.0321 0.162631,-0.21378 0.01164,-0.0885 0.0011,-0.43286 0.06526,-0.49389 0.07303,-0.0684 0.44062,-0.043 0.540809,-0.0529 0.306211,-0.0303 0.608542,-0.0811 0.912283,-0.12735 0.05151,-0.008 0.128059,0.30939 0.145697,0.35948 0.05468,0.1584 0.02893,0.2734 0.198262,0.23424 0.191911,-0.0452 0.384175,-0.0899 0.576438,-0.1344 0.129117,-0.03 0.100542,-0.19262 0.120298,-0.31398 0.0194,-0.11747 0.01094,-0.47378 0.121002,-0.53728 0.207081,-0.12029 0.414162,-0.24059 0.621242,-0.36054 0.14605,-0.085 0.373592,-0.10724 0.535164,-0.15275 l 0.640645,-0.18097 c -0.07902,0.35277 -0.1143,0.74189 -0.283987,1.06327 z m -8.095897,-4.07317 c 0.174625,-0.46214 0.534105,-0.90488 0.782814,-1.32574 0.417689,0.78916 0.819503,1.58256 1.211791,2.3876 -0.864305,0.14569 -1.720497,0.30762 -2.579864,0.48859 0.195086,-0.51682 0.390173,-1.03328 0.585259,-1.55045 z m 5.426075,-1.57057 c 0.305506,0.50941 0.611364,1.01882 0.91687,1.52823 0.238477,0.39723 0.336197,0.90206 0.484364,1.3395 -0.821267,-0.0917 -1.642534,-0.18309 -2.463801,-0.27481 0.321381,-0.89006 0.663223,-1.73497 1.062567,-2.59292 z m 5.102931,0.99695 c -0.190147,-0.79693 -0.711906,-1.41711 -1.277056,-1.97697 -0.281164,-0.27869 -0.611011,-0.44309 -0.954264,-0.64311 -0.318558,-0.18556 -0.656166,-0.1845 -0.988483,-0.32773 -0.404636,-0.17533 -0.760236,-0.26635 -1.1938,-0.35525 -0.338667,-0.0699 -0.693561,0.048 -1.037167,-0.006 -0.254353,-0.0395 -0.503061,-0.0568 -0.748594,-0.0533 -0.07832,-0.10972 -0.162984,-0.22296 -0.211667,-0.34008 -0.06033,-0.14499 -0.07514,-0.32244 -0.111125,-0.47625 -0.04621,-0.19861 -0.04586,-0.32562 -0.265289,-0.39017 -0.127,-0.037 -0.358775,-0.0349 -0.490008,-0.0159 -0.245534,0.0353 -0.348192,0.037 -0.528109,0.20391 -0.06738,0.0631 0.02822,0.33549 0.05715,0.42051 0.111831,0.32632 0.09102,0.53693 -0.01552,0.81527 -0.298097,-0.10654 -0.663222,-0.28081 -0.941211,-0.30233 -0.36195,-0.0282 -0.787753,0.16298 -1.16452,0.16792 -0.838905,0.0102 -1.581502,0.0332 -2.291997,0.53093 -0.732014,0.51259 -1.292225,1.04704 -1.652764,1.90606 -0.301978,0.71896 -0.36195,1.51977 -0.342547,2.28388 0.02505,0.9966 0.127705,1.72614 0.390172,2.68817 0.162983,0.59619 0.445911,1.5815 0.896408,1.98825 0.702381,0.63395 1.244601,1.18675 2.112787,1.54976 0.719666,0.30127 1.484136,0.39017 2.262011,0.47519 1.57727,0.17215 3.176764,0.25153 4.733925,-0.12241 1.696156,-0.40711 2.73932,-1.65171 3.428295,-3.18347 0.721078,-1.60408 0.735542,-3.15666 0.333375,-4.83729 v 0" />
      <path
         inkscape:connector-curvature="0"
         id="path1543-7-9"
         style="fill:#231f20;fill-opacity:1;fill-rule:evenodd;stroke:none;stroke-width:0.03527778"
         d="m 1.5887322,154.80569 c -0.1227667,0.23319 -0.2462389,0.46567 -0.3693584,0.6985 -0.083256,0.1584 -0.24482779,0.28645 -0.36583057,0.41628 -0.57502782,0.61736 -1.26259175,1.01741 -2.01259733,1.39065 -0.041628,-0.11783 -0.1756834,-0.69427 -0.2882195,-0.68898 -0.1580444,0.007 -0.7634111,-0.0557 -0.7898695,0.10619 -0.029633,0.18274 -0.059267,0.36548 -0.089253,0.54786 -0.024342,0.14993 0.0127,0.20003 -0.1386416,0.18168 -0.2850445,-0.0346 -0.5704417,-0.0748 -0.8565445,-0.0974 -0.3185584,-0.0254 -0.614539,-0.0367 -0.9196918,-0.13053 -0.1248833,-0.0385 -0.2497666,-0.0236 -0.257175,-0.15981 l -0.034219,-0.58773 c -0.00741,-0.127 -0.6085417,-0.20955 -0.7404806,-0.24447 -0.013758,-0.004 -0.2151945,0.69568 -0.2384778,0.77399 -0.3869973,-0.18062 -0.770114,-0.36371 -1.1518195,-0.55421 -0.3238501,-0.16228 -0.5690306,-0.44662 -0.7849306,-0.73801 -0.2698751,-0.36442 -0.5393973,-0.69639 -0.7267223,-1.10914 -0.1848556,-0.40746 -0.2744611,-0.78528 -0.3718278,-1.22414 0.2719917,0.21485 0.5443361,0.42969 0.8163278,0.64488 0.1926167,0.15205 0.4385028,0.35595 0.6667501,0.44133 0.1774472,0.0667 0.3548944,0.13335 0.5323417,0.20002 0.1107722,0.0416 0.075847,0.3168 0.085019,0.42404 0.016581,0.18944 0.067028,0.15663 0.2532945,0.20638 0.1675694,0.0444 0.3344333,0.0892 0.5020028,0.1337 0.017286,-0.16969 0.035278,-0.33973 0.052917,-0.50977 0.2804583,0.0342 0.5658555,0.0896 0.8484306,0.10019 l 0.5506861,0.0205 c 0.0889,0.004 0.3986389,-0.0384 0.4709584,0.0176 0.071614,0.0561 0.09525,0.40005 0.1167694,0.49036 0.04057,0.17216 0.074789,0.13053 0.2536473,0.13724 l 0.6311194,0.0236 c 0.1799167,0.007 0.1379362,-0.0321 0.1622778,-0.21378 0.011642,-0.0885 0.00141,-0.43286 0.065617,-0.49354 0.073025,-0.0688 0.4402667,-0.0434 0.5408084,-0.0533 0.3058583,-0.0303 0.6081889,-0.0811 0.9119306,-0.12735 0.051505,-0.008 0.1284111,0.30939 0.14604999,0.35948 0.0546806,0.1584 0.028575,0.2734 0.19790835,0.23424 0.1922639,-0.0448 0.38417502,-0.0896 0.5767917,-0.1344 0.1287639,-0.0296 0.1001889,-0.19227 0.11994445,-0.31362 0.01940278,-0.11783 0.01093612,-0.47378 0.12100279,-0.53764 0.20708057,-0.12029 0.41416114,-0.24024 0.6212417,-0.36054 0.14605001,-0.085 0.37394452,-0.10724 0.53516392,-0.15275 l 0.6409973,-0.18097 c -0.079375,0.35313 -0.1143,0.74189 -0.2843389,1.06327 z m -8.095545,-4.07282 c 0.174625,-0.46249 0.5337528,-0.90523 0.7824612,-1.32609 0.4176889,0.78951 0.8195028,1.58256 1.2121445,2.3876 -0.8646584,0.14605 -1.7208501,0.30797 -2.5798641,0.48895 0.1950862,-0.51717 0.3898195,-1.03364 0.5852584,-1.55046 z m 5.4257226,-1.57092 c 0.30585833,0.50941 0.6113639,1.01882 0.91686947,1.52823 0.2384778,0.39723 0.33619725,0.90206 0.4847167,1.3395 -0.82126672,-0.0914 -1.64288617,-0.18309 -2.46380017,-0.27446 0.3213806,-0.89041 0.6628695,-1.73531 1.062214,-2.59327 z m 5.1032836,0.99695 c -0.1905,-0.79692 -0.7119056,-1.41676 -1.2770556,-1.97697 -0.2811639,-0.27869 -0.6113639,-0.44309 -0.9546167,-0.64311 -0.3185584,-0.18556 -0.6561667,-0.18415 -0.98848343,-0.32773 -0.40428336,-0.17533 -0.75988338,-0.26635 -1.19380008,-0.35525 -0.33866668,-0.0695 -0.69356119,0.048 -1.03716669,-0.005 -0.2543528,-0.0399 -0.5027084,-0.0572 -0.7482418,-0.0536 -0.078317,-0.10936 -0.1633361,-0.22296 -0.2120194,-0.34008 -0.059972,-0.14464 -0.074789,-0.32209 -0.111125,-0.47625 -0.045861,-0.19861 -0.045861,-0.32561 -0.2652889,-0.38982 -0.127,-0.0374 -0.3584223,-0.0353 -0.4900084,-0.0162 -0.2451806,0.0353 -0.3478389,0.037 -0.5277556,0.20391 -0.067381,0.0632 0.028222,0.33549 0.05715,0.42051 0.1114778,0.32667 0.090664,0.53693 -0.015875,0.81527 -0.2980972,-0.10654 -0.6632222,-0.28046 -0.9408584,-0.30198 -0.3623028,-0.0282 -0.7881056,0.16298 -1.1645195,0.16757 -0.8392584,0.0102 -1.5815029,0.0332 -2.2923501,0.53093 -0.732014,0.51259 -1.2918723,1.04705 -1.652764,1.90606 -0.3019778,0.71896 -0.3615968,1.51977 -0.3425468,2.28388 0.02505,0.9966 0.127705,1.7265 0.3901718,2.68817 0.1629833,0.59619 0.4462639,1.5815 0.8964084,1.98826 0.7023806,0.63429 1.2449528,1.18709 2.1127862,1.54975 0.7196667,0.30127 1.4841362,0.39052 2.2620113,0.47519 1.5776223,0.17216 3.1767641,0.25153 4.73392527,-0.12241 1.69615563,-0.40711 2.73931963,-1.65136 3.42829463,-3.18347 0.7210779,-1.60373 0.7355417,-3.15666 0.3337278,-4.83729 v 0" />
      <path
         inkscape:connector-curvature="0"
         id="path1549-2-0"
         style="fill:#231f20;fill-opacity:1;fill-rule:evenodd;stroke:none;stroke-width:0.03527778"
         d="m -12.880097,195.70325 c -0.123119,0.23277 -0.246238,0.46564 -0.369358,0.6984 -0.08361,0.15847 -0.244828,0.28621 -0.36583,0.41631 -0.575028,0.61736 -1.262945,1.01741 -2.012598,1.39072 -0.04198,-0.11782 -0.175683,-0.69469 -0.288572,-0.68901 -0.158045,0.007 -0.763058,-0.0561 -0.789517,0.10622 -0.02963,0.18274 -0.05927,0.36548 -0.08925,0.5478 -0.02434,0.14993 0.0127,0.20006 -0.138994,0.18175 -0.285044,-0.0346 -0.570089,-0.0752 -0.856545,-0.0977 -0.318558,-0.0251 -0.614186,-0.0364 -0.919691,-0.13021 -0.124884,-0.0385 -0.249414,-0.0237 -0.257175,-0.15984 l -0.03387,-0.58773 c -0.0074,-0.12693 -0.608542,-0.20948 -0.740481,-0.24476 -0.01411,-0.004 -0.215194,0.69564 -0.23883,0.77431 -0.386645,-0.18066 -0.770114,-0.36378 -1.15182,-0.55449 -0.32385,-0.16235 -0.56903,-0.44637 -0.784577,-0.7377 -0.270228,-0.36473 -0.539398,-0.69645 -0.727075,-1.10917 -0.184856,-0.40749 -0.274462,-0.78535 -0.371828,-1.2241 0.272344,0.21484 0.544689,0.42965 0.81668,0.64477 0.192617,0.15215 0.438503,0.35595 0.666398,0.4414 0.1778,0.0667 0.354894,0.13338 0.532694,0.19967 0.110772,0.0416 0.0755,0.31708 0.08502,0.42404 0.01658,0.18972 0.06703,0.15695 0.253294,0.20669 0.167217,0.0445 0.334433,0.0893 0.502003,0.13367 0.01729,-0.1699 0.03492,-0.33969 0.05292,-0.50973 0.280106,0.0343 0.565856,0.0897 0.848078,0.10019 l 0.550686,0.0205 c 0.08925,0.003 0.398992,-0.0384 0.470959,0.0176 0.07197,0.0557 0.09525,0.40001 0.117122,0.49029 0.04057,0.17184 0.07479,0.13049 0.253294,0.13727 l 0.63112,0.0237 c 0.179917,0.007 0.138289,-0.0321 0.162631,-0.21389 0.01164,-0.0885 0.0011,-0.43282 0.06526,-0.49346 0.07303,-0.0688 0.44062,-0.0434 0.540809,-0.0533 0.306211,-0.0303 0.608542,-0.0812 0.912283,-0.12732 0.05151,-0.008 0.128059,0.30935 0.145697,0.35952 0.05468,0.15832 0.02893,0.2734 0.198262,0.23428 0.191911,-0.045 0.384175,-0.09 0.576438,-0.13452 0.129117,-0.0299 0.100542,-0.19265 0.120298,-0.3139 0.0194,-0.11755 0.01094,-0.4735 0.121002,-0.53732 0.207081,-0.12029 0.414162,-0.24017 0.621242,-0.36046 0.14605,-0.0851 0.373592,-0.10735 0.535164,-0.15283 l 0.640645,-0.18094 c -0.07902,0.35278 -0.1143,0.74193 -0.283987,1.06327 z m -8.095897,-4.0732 c 0.174625,-0.46214 0.534105,-0.90488 0.782814,-1.32574 0.417689,0.78916 0.819503,1.58256 1.211791,2.38767 -0.864305,0.14566 -1.720497,0.30759 -2.579864,0.48891 0.195086,-0.51717 0.390173,-1.03367 0.585259,-1.55084 z m 5.426075,-1.57057 c 0.305506,0.50941 0.611364,1.01882 0.91687,1.52823 0.238477,0.3972 0.336197,0.90209 0.484364,1.3395 -0.821267,-0.0914 -1.642534,-0.18316 -2.463801,-0.2745 0.321381,-0.89037 0.663223,-1.73527 1.062567,-2.59323 z m 5.102931,0.99695 c -0.190147,-0.79692 -0.711906,-1.41711 -1.277056,-1.97697 -0.281164,-0.27869 -0.611011,-0.44309 -0.954264,-0.64311 -0.318558,-0.18556 -0.656166,-0.18415 -0.988483,-0.32773 -0.404636,-0.17533 -0.760236,-0.26635 -1.1938,-0.35525 -0.338667,-0.0699 -0.693561,0.048 -1.037167,-0.006 -0.254353,-0.0395 -0.503061,-0.0568 -0.748594,-0.0533 -0.07832,-0.10972 -0.162984,-0.22296 -0.211667,-0.34008 -0.06033,-0.14464 -0.07514,-0.32244 -0.111125,-0.47625 -0.04621,-0.19861 -0.04586,-0.32561 -0.265289,-0.39017 -0.127,-0.037 -0.358775,-0.0349 -0.490008,-0.0159 -0.245534,0.0353 -0.348192,0.037 -0.528109,0.20391 -0.06738,0.0631 0.02822,0.33549 0.05715,0.42051 0.111831,0.32667 0.09102,0.53693 -0.01552,0.81527 -0.298097,-0.10654 -0.663222,-0.28081 -0.941211,-0.30233 -0.36195,-0.0279 -0.787753,0.16298 -1.16452,0.16792 -0.838905,0.0102 -1.581502,0.0332 -2.291997,0.53093 -0.732014,0.51259 -1.292225,1.04705 -1.652764,1.90606 -0.301978,0.71896 -0.36195,1.51977 -0.342547,2.28388 0.02505,0.9966 0.127705,1.72611 0.390172,2.68813 0.162983,0.59627 0.445911,1.58158 0.896408,1.98823 0.702381,0.63433 1.244601,1.18678 2.112787,1.54975 0.719666,0.30138 1.484136,0.39024 2.262011,0.4753 1.57727,0.17212 3.176764,0.25149 4.733925,-0.12252 1.696156,-0.40707 2.73932,-1.65157 3.428295,-3.1834 0.721078,-1.60405 0.735542,-3.15669 0.333375,-4.83729 v 0" />
      <path
         inkscape:connector-curvature="0"
         id="path1563-2-9"
         style="fill:#fbc707;fill-opacity:1;fill-rule:evenodd;stroke:none;stroke-width:0.03527778"
         d="m -12.880097,163.97791 c -0.123119,0.23284 -0.246238,0.46567 -0.369358,0.6985 -0.08361,0.1584 -0.244828,0.2861 -0.36583,0.41628 -0.575028,0.61736 -1.262945,1.01741 -2.012598,1.39065 -0.04198,-0.11783 -0.175683,-0.69462 -0.288572,-0.68933 -0.158045,0.007 -0.763058,-0.0557 -0.789517,0.10654 -0.02963,0.18274 -0.05927,0.36513 -0.08925,0.54751 -0.02434,0.15029 0.0127,0.20038 -0.138994,0.18204 -0.285044,-0.0346 -0.570089,-0.0752 -0.856545,-0.0977 -0.318558,-0.025 -0.614186,-0.0367 -0.919691,-0.13053 -0.124884,-0.0381 -0.249414,-0.0233 -0.257175,-0.15946 l -0.03387,-0.58772 c -0.0074,-0.127 -0.608542,-0.20956 -0.740481,-0.24483 -0.01411,-0.004 -0.215194,0.69603 -0.23883,0.77434 -0.386645,-0.18062 -0.770114,-0.36371 -1.15182,-0.55456 -0.32385,-0.16228 -0.56903,-0.44627 -0.784577,-0.73766 -0.270228,-0.36477 -0.539398,-0.69638 -0.727075,-1.10913 -0.184856,-0.40746 -0.274462,-0.78564 -0.371828,-1.22414 0.272344,0.21484 0.544689,0.42968 0.81668,0.64487 0.192617,0.1517 0.438503,0.35596 0.666398,0.44133 0.1778,0.0667 0.354894,0.13335 0.532694,0.19967 0.110772,0.0416 0.0755,0.31715 0.08502,0.42404 0.01658,0.1898 0.06703,0.15699 0.253294,0.20638 0.167217,0.0448 0.334433,0.0893 0.502003,0.13405 0.01729,-0.17004 0.03492,-0.34008 0.05292,-0.50976 0.280106,0.0342 0.565856,0.0896 0.848078,0.0998 l 0.550686,0.0208 c 0.08925,0.003 0.398992,-0.0385 0.470959,0.0176 0.07197,0.0557 0.09525,0.40005 0.117122,0.49036 0.04057,0.1718 0.07479,0.13053 0.253294,0.13723 l 0.63112,0.0236 c 0.179917,0.007 0.138289,-0.0321 0.162631,-0.21378 0.01164,-0.0885 0.0011,-0.43286 0.06526,-0.49389 0.07303,-0.0684 0.44062,-0.043 0.540809,-0.0529 0.306211,-0.0303 0.608542,-0.0811 0.912283,-0.12736 0.05151,-0.008 0.128059,0.30939 0.145697,0.35948 0.05468,0.15805 0.02893,0.27341 0.198262,0.23425 0.191911,-0.0448 0.384175,-0.09 0.576438,-0.13441 0.129117,-0.03 0.100542,-0.19226 0.120298,-0.31397 0.0194,-0.11748 0.01094,-0.47343 0.121002,-0.53728 0.207081,-0.1203 0.414162,-0.24025 0.621242,-0.36054 0.14605,-0.085 0.373592,-0.10725 0.535164,-0.15276 l 0.640645,-0.18097 c -0.07902,0.35278 -0.1143,0.74154 -0.283987,1.06327 z m -8.095897,-4.07317 c 0.174625,-0.46249 0.534105,-0.90488 0.782814,-1.32574 0.417689,0.78916 0.819503,1.58256 1.211791,2.3876 -0.864305,0.1457 -1.720497,0.30762 -2.579864,0.48895 0.195086,-0.51717 0.390173,-1.03364 0.585259,-1.55081 z m 5.426075,-1.57057 c 0.305506,0.50941 0.611364,1.01883 0.91687,1.52824 0.238477,0.39722 0.336197,0.90205 0.484364,1.33949 -0.821267,-0.0914 -1.642534,-0.18309 -2.463801,-0.27446 0.321381,-0.89041 0.663223,-1.73531 1.062567,-2.59327 z m 5.102931,0.99695 c -0.190147,-0.79692 -0.711906,-1.41675 -1.277056,-1.97696 -0.281164,-0.2787 -0.611011,-0.44309 -0.954264,-0.64312 -0.318558,-0.18591 -0.656166,-0.1845 -0.988483,-0.32773 -0.404636,-0.17533 -0.760236,-0.26635 -1.1938,-0.35525 -0.338667,-0.0699 -0.693561,0.048 -1.037167,-0.006 -0.254353,-0.0399 -0.503061,-0.0568 -0.748594,-0.0533 -0.07832,-0.10971 -0.162984,-0.22296 -0.211667,-0.34008 -0.06033,-0.14499 -0.07514,-0.32208 -0.111125,-0.47625 -0.04621,-0.19896 -0.04586,-0.32561 -0.265289,-0.39017 -0.127,-0.037 -0.358775,-0.0349 -0.490008,-0.0159 -0.245534,0.0353 -0.348192,0.037 -0.528109,0.2039 -0.06738,0.0632 0.02822,0.33549 0.05715,0.42051 0.111831,0.32632 0.09102,0.53693 -0.01552,0.81527 -0.298097,-0.10654 -0.663222,-0.28081 -0.941211,-0.30233 -0.36195,-0.0279 -0.787753,0.16334 -1.16452,0.16792 -0.838905,0.0102 -1.581502,0.0332 -2.291997,0.53093 -0.732014,0.51259 -1.292225,1.04705 -1.652764,1.90606 -0.301978,0.71896 -0.36195,1.51977 -0.342547,2.28389 0.02505,0.99659 0.127705,1.72614 0.390172,2.68816 0.162983,0.5962 0.445911,1.58151 0.896408,1.98826 0.702381,0.63429 1.244601,1.18674 2.112787,1.5494 0.719666,0.30127 1.484136,0.39052 2.262011,0.47554 1.57727,0.17216 3.176764,0.25153 4.733925,-0.12241 1.696156,-0.40711 2.73932,-1.65171 3.428295,-3.18347 0.721078,-1.60408 0.735542,-3.15665 0.333375,-4.83729 v 0" />
      <path
         inkscape:connector-curvature="0"
         id="path1571-6-1"
         style="fill:#fbc707;fill-opacity:1;fill-rule:evenodd;stroke:none;stroke-width:0.03527778"
         d="m 1.5887322,170.66834 c -0.1227667,0.23319 -0.2462389,0.46567 -0.3693584,0.6985 -0.083256,0.1584 -0.24482779,0.28646 -0.36583057,0.41628 -0.57502782,0.61736 -1.26259175,1.01741 -2.01259733,1.39065 -0.041628,-0.11783 -0.1756834,-0.69427 -0.2882195,-0.68897 -0.1580444,0.007 -0.7634111,-0.0557 -0.7898695,0.10618 -0.029633,0.18274 -0.059267,0.36548 -0.089253,0.54787 -0.024342,0.14993 0.0127,0.20002 -0.1386416,0.18168 -0.2850445,-0.0346 -0.5704417,-0.0748 -0.8565445,-0.0974 -0.3185584,-0.0254 -0.614539,-0.0367 -0.9196918,-0.13053 -0.1248833,-0.0385 -0.2497666,-0.0236 -0.257175,-0.15981 l -0.034219,-0.58737 c -0.00741,-0.12735 -0.6085417,-0.2099 -0.7404806,-0.24483 -0.013758,-0.004 -0.2151945,0.69568 -0.2384778,0.774 -0.3869973,-0.18027 -0.770114,-0.36337 -1.1518195,-0.55422 -0.3238501,-0.16228 -0.5690306,-0.44662 -0.7849306,-0.73801 -0.2698751,-0.36442 -0.5393973,-0.69638 -0.7267223,-1.10913 -0.1848556,-0.40746 -0.2744611,-0.78529 -0.3718278,-1.22414 0.2719917,0.21484 0.5443361,0.43003 0.8163278,0.64488 0.1926167,0.15204 0.4385028,0.35595 0.6667501,0.44132 0.1774472,0.0667 0.3548944,0.13335 0.5323417,0.20003 0.1107722,0.0413 0.075847,0.31679 0.085019,0.42403 0.016581,0.18945 0.067028,0.15664 0.2532945,0.20638 0.1675694,0.0444 0.3344333,0.0892 0.5020028,0.1337 0.017286,-0.17004 0.035278,-0.33972 0.052917,-0.50941 0.2804583,0.0339 0.5658555,0.0892 0.8484306,0.0998 l 0.5506861,0.0205 c 0.0889,0.004 0.3986389,-0.0384 0.4709584,0.0176 0.071614,0.0557 0.09525,0.40005 0.1167694,0.49036 0.04057,0.17215 0.074789,0.13053 0.2536473,0.13723 l 0.6311194,0.0236 c 0.1799167,0.007 0.1379362,-0.0321 0.1622778,-0.21379 0.011642,-0.0885 0.00141,-0.4325 0.065617,-0.49353 0.073025,-0.0688 0.4402667,-0.0434 0.5408084,-0.0533 0.3058583,-0.03 0.6081889,-0.0811 0.9119306,-0.127 0.051505,-0.008 0.1284111,0.30903 0.14604999,0.35912 0.0546806,0.1584 0.028575,0.27341 0.19790835,0.23425 0.1922639,-0.0448 0.38417502,-0.0896 0.5767917,-0.13441 0.1287639,-0.03 0.1001889,-0.19226 0.11994445,-0.31362 0.01940278,-0.11783 0.01093612,-0.47378 0.12100279,-0.53763 0.20708057,-0.1203 0.41416114,-0.24024 0.6212417,-0.36054 0.14605001,-0.085 0.37394452,-0.10725 0.53516392,-0.15275 l 0.6409973,-0.18098 c -0.079375,0.35278 -0.1143,0.74189 -0.2843389,1.06327 z m -8.095545,-4.07282 c 0.174625,-0.46249 0.5337528,-0.90522 0.7824612,-1.32609 0.4176889,0.78952 0.8195028,1.58256 1.2121445,2.3876 -0.8646584,0.14605 -1.7208501,0.30762 -2.5798641,0.48895 0.1950862,-0.51682 0.3898195,-1.03364 0.5852584,-1.55046 z m 5.4257226,-1.57092 c 0.30585833,0.50942 0.6113639,1.01883 0.91686947,1.52824 0.2384778,0.39723 0.33619725,0.9024 0.4847167,1.33949 -0.82126672,-0.0914 -1.64288617,-0.18309 -2.46380017,-0.27446 0.3213806,-0.89041 0.6628695,-1.73531 1.062214,-2.59327 z m 5.1032836,0.99695 c -0.1905,-0.79692 -0.7119056,-1.41675 -1.2770556,-1.97661 -0.2811639,-0.27905 -0.6113639,-0.44344 -0.9546167,-0.64347 -0.3185584,-0.18556 -0.6561667,-0.18415 -0.98848343,-0.32773 -0.40428336,-0.17533 -0.75988338,-0.26634 -1.19380008,-0.35524 -0.33866668,-0.0699 -0.69356119,0.048 -1.03716669,-0.006 -0.2543528,-0.0395 -0.5027084,-0.0568 -0.7482418,-0.0529 -0.078317,-0.10971 -0.1633361,-0.22295 -0.2120194,-0.34043 -0.059972,-0.14464 -0.074789,-0.32208 -0.111125,-0.47625 -0.045861,-0.19861 -0.045861,-0.32561 -0.2652889,-0.38982 -0.127,-0.0374 -0.3584223,-0.0353 -0.4900084,-0.0162 -0.2451806,0.0353 -0.3478389,0.037 -0.5277556,0.2039 -0.067381,0.0632 0.028222,0.33549 0.05715,0.42051 0.1114778,0.32668 0.090664,0.53693 -0.015875,0.81527 -0.2980972,-0.10654 -0.6632222,-0.28046 -0.9408584,-0.30198 -0.3623028,-0.0282 -0.7881056,0.16299 -1.1645195,0.16757 -0.8392584,0.0106 -1.5815029,0.0332 -2.2923501,0.53093 -0.732014,0.51259 -1.2918723,1.04705 -1.652764,1.90606 -0.3019778,0.71896 -0.3615968,1.51977 -0.3425468,2.28389 0.02505,0.99659 0.127705,1.72649 0.3901718,2.68816 0.1629833,0.5962 0.4462639,1.58151 0.8964084,1.98826 0.7023806,0.63429 1.2449528,1.1871 2.1127862,1.54975 0.7196667,0.30127 1.4841362,0.39053 2.2620113,0.47519 1.5776223,0.17216 3.1767641,0.25153 4.73392527,-0.12241 1.69615563,-0.40711 2.73931963,-1.65135 3.42829463,-3.18347 0.7210779,-1.60372 0.7355417,-3.15665 0.3337278,-4.83729 v 0" />
    </g>
  </g>
</svg>
